<svg width="59" height="60" viewBox="0 0 59 60" fill="none" xmlns="http://www.w3.org/2000/svg">
<path d="M58.6651 4.08147C58.5141 3.90229 58.2982 3.79038 58.0647 3.77046L45.0068 2.65518L44.7701 0.77339C44.7091 0.289289 44.2663 -0.0538356 43.7833 0.00698462L31.67 1.52995C31.6223 1.51753 31.5735 1.50815 31.5226 1.50382L14.8731 0.081633C14.3937 0.0394455 13.9584 0.408117 13.9177 0.886593L13.6695 3.79284L0.773096 5.41424C0.295909 5.47424 -0.0531922 5.92342 0.00669055 6.40096L6.58958 58.7612C6.61946 59 6.56825 59.2295 6.66586 59.4605C6.80274 59.784 7.12852 60 7.47997 60H50.8286C51.3167 60 51.7121 59.6046 51.7121 59.1165V57.9659L53.4232 58.112C53.9026 58.1536 54.3378 57.7858 54.3786 57.307L58.8696 4.72612C58.8896 4.49257 58.8161 4.26077 58.6651 4.08147ZM6.59649 44.651L1.8702 7.05709L6.59649 6.46295V44.651ZM15.603 1.91737L23.3351 2.57772L15.4622 3.56761L15.603 1.91737ZM43.1272 1.87038L43.5786 5.46065H14.5687L43.1272 1.87038ZM52.6933 56.2763L51.7121 56.1925V30.3743C51.7121 29.8864 51.3167 29.4909 50.8286 29.4909C50.3406 29.4909 49.9452 29.8862 49.9452 30.3743V58.2329H8.36344V7.2276H49.9453V26.2516C49.9453 26.7397 50.3407 27.135 50.8288 27.135C51.3168 27.135 51.7122 26.7397 51.7122 26.2516V6.34413C51.7122 5.85616 51.3168 5.46065 50.8288 5.46065H45.3595L45.2321 4.4478L57.0339 5.45585L52.6933 56.2763Z" fill="#3283DC"/>
<path d="M46.1169 10.1725H41.405C41.1096 10.1725 40.8338 10.32 40.67 10.5659L38.6704 13.5654C36.518 12.0236 33.8828 11.1148 31.0391 11.1148C30.5511 11.1148 30.1556 11.5102 30.1556 11.9983V24.249C30.1556 24.737 30.551 25.1325 31.0391 25.1325H43.2899C43.778 25.1325 44.1734 24.7371 44.1734 24.249C44.1734 20.4877 42.5836 17.0911 40.0413 14.6944L41.878 11.9394H46.117C46.605 11.9394 47.0005 11.544 47.0005 11.056C47.0005 10.5679 46.6049 10.1725 46.1169 10.1725ZM42.3724 23.3656H31.9226V12.9157C34.0651 13.0812 36.0417 13.8453 37.6889 15.0376L36.9006 16.2202C36.6544 16.5893 36.7266 17.1006 37.0666 17.3862C37.4649 17.7206 38.0826 17.6324 38.3707 17.2003L39.0454 16.1883C40.9238 18.0542 42.1563 20.5695 42.3724 23.3656Z" fill="#3283DC"/>
<path d="M46.1169 39.3857H38.1253L36.7172 37.1328C38.9982 34.7691 40.4038 31.5549 40.4038 28.0185C40.4038 27.5304 40.0084 27.135 39.5203 27.135H28.153V15.7678C28.153 15.2798 27.7575 14.8843 27.2695 14.8843C20.0273 14.8843 14.1353 20.7763 14.1353 28.0185C14.1353 35.2607 20.0273 41.1528 27.2695 41.1528C30.3308 41.1528 33.1506 40.1 35.3864 38.3376L36.8864 40.7376C37.0479 40.9959 37.331 41.1528 37.6355 41.1528H46.1169C46.6048 41.1528 47.0003 40.7574 47.0003 40.2693C47.0003 39.7812 46.6048 39.3857 46.1169 39.3857ZM33.6731 32.2621C33.4146 31.8481 32.8693 31.7225 32.4556 31.9811C32.0418 32.2396 31.916 32.7848 32.1746 33.1986L34.4438 36.8293C32.4858 38.4266 29.9877 39.3859 27.2696 39.3859C21.0017 39.3859 15.9023 34.2865 15.9023 28.0186C15.9023 22.0479 20.5295 17.1377 26.3861 16.6853V28.0186C26.3861 28.5066 26.7816 28.9021 27.2696 28.9021H38.6029C38.4056 31.4569 37.3598 33.7776 35.748 35.5823L33.6731 32.2621Z" fill="#3283DC"/>
<path d="M19.7306 44.0975H12.1917C11.7039 44.0975 11.3082 44.4929 11.3082 44.981C11.3082 45.4691 11.7037 45.8645 12.1917 45.8645H19.7306C20.2186 45.8645 20.6141 45.4691 20.6141 44.981C20.6141 44.4929 20.2186 44.0975 19.7306 44.0975Z" fill="#3283DC"/>
<path d="M31.0391 44.0975H23.5002C23.0122 44.0975 22.6167 44.4929 22.6167 44.981C22.6167 45.4691 23.0122 45.8645 23.5002 45.8645H31.0391C31.527 45.8645 31.9226 45.4691 31.9226 44.981C31.9226 44.4929 31.527 44.0975 31.0391 44.0975Z" fill="#3283DC"/>
<path d="M24.4425 48.8094H12.1917C11.7039 48.8094 11.3082 49.2048 11.3082 49.6929C11.3082 50.181 11.7037 50.5764 12.1917 50.5764H24.4425C24.9304 50.5764 25.326 50.181 25.326 49.6929C25.326 49.2048 24.9303 48.8094 24.4425 48.8094Z" fill="#3283DC"/>
<path d="M31.0391 48.8094H28.212C27.7241 48.8094 27.3285 49.2048 27.3285 49.6929C27.3285 50.181 27.724 50.5764 28.212 50.5764H31.0391C31.5271 50.5764 31.9226 50.181 31.9226 49.6929C31.9225 49.2048 31.5271 48.8094 31.0391 48.8094Z" fill="#3283DC"/>
<path d="M15.9612 53.5212H12.1917C11.7039 53.5212 11.3082 53.9166 11.3082 54.4047C11.3082 54.8927 11.7037 55.2881 12.1917 55.2881H15.9612C16.4491 55.2881 16.8446 54.8927 16.8446 54.4047C16.8446 53.9166 16.4491 53.5212 15.9612 53.5212Z" fill="#3283DC"/>
<path d="M31.0391 53.5212H19.7308C19.2429 53.5212 18.8473 53.9166 18.8473 54.4047C18.8473 54.8927 19.2428 55.2881 19.7308 55.2881H31.0391C31.5271 55.2881 31.9226 54.8927 31.9226 54.4047C31.9226 53.9166 31.5271 53.5212 31.0391 53.5212Z" fill="#3283DC"/>
</svg>
