<svg width="60" height="60" viewBox="0 0 60 60" fill="none" xmlns="http://www.w3.org/2000/svg">
<path d="M58.8281 24.4628H51.3281C50.6809 24.4628 50.1562 24.9875 50.1562 25.6346V31.5526C50.1562 32.1997 50.6809 32.7245 51.3281 32.7245C51.9754 32.7245 52.5 32.1997 52.5 31.5526V26.8065H57.6562V57.6562H55.0781H52.5V40.3417C52.5 39.6946 51.9754 39.1698 51.3281 39.1698C50.6809 39.1698 50.1562 39.6946 50.1562 40.3417V57.6562H47.8125V33.3984C47.8125 32.7513 47.2879 32.2266 46.6406 32.2266H39.1406C38.4934 32.2266 37.9688 32.7513 37.9688 33.3984V57.6562H35.625V41.6016C35.625 40.9545 35.1004 40.4297 34.4531 40.4297H26.9531C26.3059 40.4297 25.7812 40.9545 25.7812 41.6016V57.6562H23.4375V48.3252C23.4375 47.6781 22.9129 47.1533 22.2656 47.1533H14.7656C14.1184 47.1533 13.5938 47.6781 13.5938 48.3252V57.6562H3.51562C2.86945 57.6562 2.34375 57.1305 2.34375 56.4844V3.51562C2.34375 2.86945 2.86945 2.34375 3.51562 2.34375H33.7471V10.0785C33.7471 12.017 35.3242 13.5941 37.2627 13.5941H44.9971V28.0078C44.9971 28.6549 45.5217 29.1797 46.1689 29.1797C46.8162 29.1797 47.3408 28.6549 47.3408 28.0078V12.4222C47.3408 12.1114 47.2173 11.8134 46.9976 11.5936L35.7476 0.343242C35.5277 0.123516 35.2297 0 34.9189 0H3.51562C1.57711 0 0 1.57711 0 3.51562V56.4844C0 58.4229 1.57711 60 3.51562 60H58.8281C59.4754 60 60 59.4752 60 58.8281V25.6346C60 24.9875 59.4754 24.4628 58.8281 24.4628ZM36.0908 4.00113L43.3399 11.2504H37.2627C36.6164 11.2504 36.0908 10.7246 36.0908 10.0785V4.00113ZM21.0938 57.6562H15.9375V49.4971H21.0938V57.6562ZM33.2812 57.6562H28.125V42.7734H33.2812V57.6562ZM45.4688 57.6562H40.3125V34.5703H45.4688V57.6562Z" fill="#3283DC"/>
<path d="M52.1566 34.9008C51.9387 34.6818 51.6363 34.5574 51.3281 34.5574C51.0199 34.5574 50.7176 34.6818 50.4996 34.9008C50.2816 35.1188 50.1562 35.4211 50.1562 35.7293C50.1562 36.0375 50.2816 36.3399 50.4996 36.5578C50.7176 36.7757 51.0199 36.9012 51.3281 36.9012C51.6363 36.9012 51.9387 36.7758 52.1566 36.5578C52.3746 36.3399 52.5 36.0375 52.5 35.7293C52.5 35.4211 52.3746 35.1188 52.1566 34.9008Z" fill="#3283DC"/>
<path d="M17.0598 6.41357C16.4126 6.41357 15.8879 6.93834 15.8879 7.58545V9.69354C10.4937 10.2791 6.28149 14.8612 6.28149 20.4086C6.28149 26.3517 11.1166 31.1869 17.0598 31.1869C22.6072 31.1869 27.1893 26.9748 27.7748 21.5804H29.8828C30.53 21.5804 31.0547 21.0557 31.0547 20.4086C31.0547 12.6917 24.7766 6.41357 17.0598 6.41357ZM17.0598 28.843C12.409 28.843 8.62524 25.0593 8.62524 20.4085C8.62524 16.1554 11.7899 12.6273 15.8879 12.0551V20.4085C15.8879 21.0556 16.4126 21.5803 17.0598 21.5803H25.4132C24.8409 25.6784 21.3129 28.843 17.0598 28.843ZM18.2317 19.2367V19.2366V8.8158C23.7221 9.36682 28.1014 13.7462 28.6525 19.2367H18.2317Z" fill="#3283DC"/>
<path d="M29.8828 34.4824H7.5C6.85277 34.4824 6.32812 35.0072 6.32812 35.6543C6.32812 36.3014 6.85277 36.8262 7.5 36.8262H29.8828C30.53 36.8262 31.0547 36.3014 31.0547 35.6543C31.0547 35.0072 30.53 34.4824 29.8828 34.4824Z" fill="#3283DC"/>
<path d="M15 40.1367H7.5C6.85277 40.1367 6.32812 40.6615 6.32812 41.3086C6.32812 41.9557 6.85277 42.4805 7.5 42.4805H15C15.6472 42.4805 16.1719 41.9557 16.1719 41.3086C16.1719 40.6615 15.6472 40.1367 15 40.1367Z" fill="#3283DC"/>
<path d="M21.6973 40.4801C21.4793 40.2621 21.177 40.1367 20.8687 40.1367C20.5594 40.1367 20.2582 40.262 20.0402 40.4801C19.8211 40.698 19.6969 41.0004 19.6969 41.3086C19.6969 41.6168 19.8211 41.9191 20.0402 42.137C20.2582 42.355 20.5594 42.4805 20.8687 42.4805C21.177 42.4805 21.4793 42.3551 21.6973 42.137C21.9152 41.9191 22.0406 41.6168 22.0406 41.3086C22.0406 41.0004 21.9152 40.698 21.6973 40.4801Z" fill="#3283DC"/>
</svg>
