<svg width="60" height="60" viewBox="0 0 60 60" fill="none" xmlns="http://www.w3.org/2000/svg">
<g clip-path="url(#clip0)">
<path d="M18.0002 6.00067H5.00032V8.00065H18.0002V6.00067Z" fill="#3283DC"/>
<path d="M18.0002 10.0006H5.00032V12.0006H18.0002V10.0006Z" fill="#3283DC"/>
<path d="M14.0002 14.0006H5.00032V16.0006H14.0002V14.0006Z" fill="#3283DC"/>
<path d="M14.0002 18.0005H5.00032V20.0005H14.0002V18.0005Z" fill="#3283DC"/>
<path d="M59.9996 58.0001H0.000370026V60H59.9996V58.0001Z" fill="#3283DC"/>
<path d="M57.8946 8.55365L53.8947 0.553751C53.6481 0.0595071 53.0477 -0.14124 52.5535 0.105382C52.5532 0.105507 52.553 0.105632 52.5527 0.105757L44.5528 4.10571C44.0586 4.35258 43.8579 4.95345 44.1048 5.44769C44.3517 5.94193 44.9526 6.14256 45.4468 5.89568L51.2407 3.00072L49.6597 7.51466C42.7107 27.3054 24.8123 41.1897 3.91533 43.0002L4.08533 45.0002C25.7697 43.1217 44.3416 28.7123 51.5487 8.17466L53.1627 3.56271L56.1047 9.44764C56.3515 9.94188 56.9524 10.1425 57.4467 9.89563C57.941 9.64876 58.1415 9.04802 57.8946 8.55365Z" fill="#3283DC"/>
<path d="M12.0002 48.0002H5.00032C4.44808 48.0002 4.00033 48.4479 4.00033 49.0002V55.0001C4.00033 55.5523 4.44808 56.0001 5.00032 56.0001H12.0002C12.5525 56.0001 13.0002 55.5523 13.0002 55.0001V49.0002C13.0002 48.4479 12.5525 48.0002 12.0002 48.0002ZM11.0002 54.0001H6.00031V50.0002H11.0002V54.0001Z" fill="#3283DC"/>
<path d="M23.0001 45.0002H16.0002C15.4479 45.0002 15.0002 45.4479 15.0002 46.0002V55.0001C15.0002 55.5523 15.4479 56 16.0002 56H23.0001C23.5523 56 24.0001 55.5523 24.0001 55.0001V46.0002C24.0001 45.4479 23.5523 45.0002 23.0001 45.0002ZM22.0001 54.0001H17.0002V47.0002H22.0001V54.0001Z" fill="#3283DC"/>
<path d="M33.9999 40.0002H27C26.4478 40.0002 26 40.448 26 41.0002V55.0001C26 55.5523 26.4478 56 27 56H33.9999C34.5522 56 34.9999 55.5523 34.9999 55.0001V41.0002C34.9999 40.448 34.5522 40.0002 33.9999 40.0002ZM33 54.0001H28V42.0002H33V54.0001Z" fill="#3283DC"/>
<path d="M44.9998 33.0004H37.9999C37.4477 33.0004 36.9999 33.4481 36.9999 34.0004V55.0001C36.9999 55.5523 37.4477 56.0001 37.9999 56.0001H44.9998C45.5521 56.0001 45.9998 55.5523 45.9998 55.0001V34.0004C45.9998 33.4481 45.5521 33.0004 44.9998 33.0004ZM43.9998 54.0001H38.9999V35.0003H43.9998V54.0001Z" fill="#3283DC"/>
<path d="M55.9997 19.0005H48.9998C48.4475 19.0005 47.9998 19.4483 47.9998 20.0005V55.0001C47.9998 55.5523 48.4475 56.0001 48.9998 56.0001H55.9997C56.5519 56.0001 56.9997 55.5523 56.9997 55.0001V20.0005C56.9997 19.4483 56.5519 19.0005 55.9997 19.0005ZM54.9997 54.0001H49.9997V21.0005H54.9997V54.0001Z" fill="#3283DC"/>
</g>
<defs>
<clipPath id="clip0">
<rect width="60" height="60" fill="white"/>
</clipPath>
</defs>
</svg>
