<svg width="320" height="826" viewBox="0 0 320 826" fill="none" xmlns="http://www.w3.org/2000/svg">
<path d="M368.43 -21.3878C326.645 -25.2221 285.503 -13.0803 253.361 13.7594C220.576 40.5991 200.647 77.6635 196.79 119.201C191.769 172.235 214.324 224.659 256.676 257.442C258.391 258.77 258.8 261.208 257.584 263.004C228.668 305.725 210.807 355.016 205.79 406.13C203.523 429.792 203.754 453.453 206.924 476.676C207.402 480.177 203.459 482.707 200.478 480.809C183.107 469.746 164.477 460.48 144.95 453.37C143.005 452.662 141.934 450.6 142.075 448.535C142.149 447.447 142.149 446.355 142.149 445.112C145.363 415.077 136.363 385.681 117.078 362.676C97.7925 339.67 70.7931 324.972 40.5794 321.777C-23.062 316.026 -78.3466 361.398 -84.775 423.385C-90.5606 485.372 -44.9187 540.329 17.4371 546.719C57.5418 550.457 96.4249 533.549 119.796 501.323C120.865 499.848 122.782 499.221 124.489 499.858C219.614 535.344 285.451 622.562 292.995 723.068C293.136 724.944 291.921 726.645 290.137 727.244C264.712 735.782 246.191 758.683 243.718 785.721C241.789 804.253 247.575 822.146 259.146 836.205C270.717 850.264 287.431 859.21 306.074 861.128C308.645 861.128 310.574 861.128 313.145 861.128C348.501 861.128 378.715 834.288 382.572 798.502C385.072 771.166 371.167 744.434 346.765 731.225C345.471 730.524 344.616 729.207 344.555 727.737C342.185 670.433 322.982 615.08 290.645 567.808C262.36 519.88 250.146 465.561 255.932 410.604C260.337 364.941 276.444 321.727 303.048 284.558C304.073 283.126 305.922 282.562 307.599 283.097C317.687 286.313 328.22 288.017 338.216 289.186C425 297.494 501.498 234.229 509.855 148.597C518.212 63.6046 454.57 -13.0803 368.43 -21.3878Z" fill="#1552B8"/>
</svg>
