<?xml version="1.0" encoding="utf-8"?>
<!-- Generator: Adobe Illustrator 24.0.2, SVG Export Plug-In . SVG Version: 6.00 Build 0)  -->
<svg version="1.1" id="Camada_1" xmlns="http://www.w3.org/2000/svg" xmlns:xlink="http://www.w3.org/1999/xlink" x="0px" y="0px"
	 viewBox="0 0 177.6 227.6" style="enable-background:new 0 0 177.6 227.6;" xml:space="preserve">
<style type="text/css">
	.st0{fill:#B5B5B5;}
	.st1{fill:#969696;}
	.st2{fill:#F2F2F2;}
	.st3{clip-path:url(#SVGID_2_);}
	.st4{fill:#3b66fd;}
	.st5{fill:#FFFFFF;}
	.st6{fill:#DEDFE0;}
	.st7{fill:url(#SVGID_3_);}
	.st8{fill:#D3D3D3;}
	.st9{fill:#016272;}
	.st10{fill:url(#SVGID_4_);}
	.st11{fill:#FCFCFC;}
	.st12{clip-path:url(#SVGID_6_);}
	.st13{fill:#C4C4C4;}
	.st14{fill:#ADADAD;}
	.st15{clip-path:url(#SVGID_8_);}
	.st16{fill:#C6C6C6;}
	.st17{clip-path:url(#SVGID_10_);}
	.st18{fill:#B2B2B2;}
	.st19{clip-path:url(#SVGID_12_);}
	.st20{fill:#E8E8E8;}
	.st21{clip-path:url(#SVGID_14_);}
	.st22{fill:url(#purple_1_);}
	.st23{fill:url(#purple-2_1_);}
	.st24{fill:#D8D8D8;}
	.st25{opacity:0.2;fill:#FFFFFF;}
</style>
<title>astronaut_1</title>
<path class="st0" d="M30.6,84.1L30.6,84.1c-1.5,0.9-3.4,0.4-4.3-1.2l0,0c-0.9-1.5-0.4-3.4,1.2-4.3l0,0c1.5-0.9,3.4-0.4,4.3,1.2l0,0
	C32.6,81.3,32.1,83.2,30.6,84.1z"/>
<path class="st1" d="M91.9,123.2L61.2,141c-4.7,2.7-10.7,1.4-13.9-3l-24.4-33.9c-5-7-3.4-16.6,3.5-21.6c0.4-0.3,0.8-0.6,1.3-0.8
	l30.1-17.4L91.9,123.2z"/>
<path class="st0" d="M91.7,122.8l-29.6,17.1c-4.5,2.6-10.3,1.4-13.4-2.9l-23.3-32.3c-4.9-6.8-3.3-16.3,3.5-21.2
	c0.4-0.3,0.8-0.5,1.2-0.8L58.8,66L91.7,122.8z"/>
<path class="st0" d="M85.7,44.9L85.7,44.9c1.5-0.9,3.4-0.4,4.3,1.2l0,0c0.9,1.5,0.4,3.4-1.2,4.3l0,0c-1.5,0.9-3.4,0.4-4.3-1.2l0,0
	C83.7,47.7,84.2,45.8,85.7,44.9z"/>
<path class="st1" d="M91.8,123.2l30.8-17.8c4.7-2.7,6.6-8.6,4.3-13.6l-17.2-38C106.2,46,97,42.6,89.2,46.1c-0.5,0.2-0.9,0.4-1.3,0.7
	L57.7,64.3L91.8,123.2z"/>
<path class="st0" d="M91.2,123.1l29.6-17.1c4.5-2.6,6.3-8.2,4.2-13l-16.5-36.4C105,48.9,96,45.6,88.4,49c-0.5,0.2-0.9,0.4-1.3,0.7
	L58.4,66.3L91.2,123.1z"/>
<path class="st2" d="M102.5,141l-0.7,0.4c-0.5,0.3-0.7,0.9-0.4,1.4c0,0,0,0.1,0.1,0.1c3.8,5,15.5,28.9,19,36.1
	c0.6,1.1,0.1,2.5-1,3.1l-17.6,10.2c-0.9,0.5-2.1,0.4-2.8-0.3c-2.5-2.3-8.3-7.8-15.4-15.5c-9.5-10.3-20.9-30.1-24.9-40s-4-10-6-19.4
	c-4.5,5.7-3.2,19.1-2.8,22.1c0,0.4,0.2,0.7,0.4,1.1c1.5,2,7.3,9.6,8.6,11.9c1.5,2.6,0,4.7-1.1,4.2c-2.7-1.6-5.4-3.4-7.9-5.3
	c-0.4-0.3-0.9-0.4-1.4-0.2c-1.8,0.7,1.1,3.2,1.1,3.2c1.8,1.4,3.7,2.6,5.7,3.7c1.1,0.5,1.8,1.5,2,2.6c0.2,0.8,0,1.7-0.7,2.3
	c-3.7,3.3-9.4,1.7-12.5,0.4c-1.6-0.7-3-1.8-4-3.3c-1.8-2.7-2.9-5.8-3.1-9.1c0.2-3.8-0.7-7.5-2.7-10.7c-14.1-27.1,3.3-51.1,4.9-55.7
	c9-3.2,15.1-10.6,22.1-14.6l-0.2,0.1c6.9-4.1,15.6-6.2,22.8-12.4c4.7,0.9,35.1-1.7,51.5,24.1c1.8,3.3,4.6,6,8,7.7
	c2.7,1.8,4.9,4.3,6.3,7.2c0.8,1.6,1.1,3.3,0.9,5.1c-0.4,3.4-1.8,9.1-6.6,10.6c-0.8,0.3-1.7,0-2.4-0.6c-0.9-0.8-1.3-1.9-1.2-3.1
	c0-2.3-0.1-4.5-0.4-6.8c0,0-0.8-3.7-2.2-2.6c-0.4,0.3-0.6,0.8-0.5,1.3c0.4,3.5,1.8,8.8,0.6,9.5s-2.6,1.5-4.2-1.1
	c-1.3-2.3-5.1-11.1-6.1-13.4c-0.2-0.4-0.4-0.7-0.7-0.9c-2.4-1.8-13.3-9.6-20.5-8.6c7.2,6.4,7.2,6.4,13.8,14.8s18.1,28.2,22.3,41.6
	c3.1,10,5,17.8,5.8,21.1c0.2,1-0.2,2.1-1.1,2.6l-17.6,10.2c-1.1,0.6-2.5,0.3-3.2-0.7c-4.4-6.6-19.3-28.7-21.8-34.5
	c-0.2-0.5-0.8-0.7-1.3-0.5c0,0-0.1,0-0.1,0.1L102.5,141"/>
<g>
	<defs>
		<path id="SVGID_1_" d="M102.5,141l-0.7,0.4c-0.5,0.3-0.7,0.9-0.4,1.4c0,0,0,0.1,0.1,0.1c3.8,5,15.5,28.9,19,36.1
			c0.6,1.1,0.1,2.5-1,3.1l-17.6,10.2c-0.9,0.5-2.1,0.4-2.8-0.3c-2.5-2.3-8.3-7.8-15.4-15.5c-9.5-10.3-20.9-30.1-24.9-40
			s-4-10-6-19.4c-4.5,5.7-3.2,19.1-2.8,22.1c0,0.4,0.2,0.7,0.4,1.1c1.5,2,7.3,9.6,8.6,11.9c1.5,2.6,0,4.7-1.1,4.2
			c-2.7-1.6-5.4-3.4-7.9-5.3c-0.4-0.3-0.9-0.4-1.4-0.2c-1.8,0.7,1.1,3.2,1.1,3.2c1.8,1.4,3.7,2.6,5.7,3.7c1.1,0.5,1.8,1.5,2,2.6
			c0.2,0.8,0,1.7-0.7,2.3c-3.7,3.3-9.4,1.7-12.5,0.4c-1.6-0.7-3-1.8-4-3.3c-1.8-2.7-2.9-5.8-3.1-9.1c0.2-3.8-0.7-7.5-2.7-10.7
			c-14.1-27.1,3.3-51.1,4.9-55.7c9-3.2,15.1-10.6,22.1-14.6l-0.2,0.1c6.9-4.1,15.6-6.2,22.8-12.4c4.7,0.9,35.1-1.7,51.5,24.1
			c1.8,3.3,4.6,6,8,7.7c2.7,1.8,4.9,4.3,6.3,7.2c0.8,1.6,1.1,3.3,0.9,5.1c-0.4,3.4-1.8,9.1-6.6,10.6c-0.8,0.3-1.7,0-2.4-0.6
			c-0.9-0.8-1.3-1.9-1.2-3.1c0-2.3-0.1-4.5-0.4-6.8c0,0-0.8-3.7-2.2-2.6c-0.4,0.3-0.6,0.8-0.5,1.3c0.4,3.5,1.8,8.8,0.6,9.5
			s-2.6,1.5-4.2-1.1c-1.3-2.3-5.1-11.1-6.1-13.4c-0.2-0.4-0.4-0.7-0.7-0.9c-2.4-1.8-13.3-9.6-20.5-8.6c7.2,6.4,7.2,6.4,13.8,14.8
			s18.1,28.2,22.3,41.6c3.1,10,5,17.8,5.8,21.1c0.2,1-0.2,2.1-1.1,2.6l-17.6,10.2c-1.1,0.6-2.5,0.3-3.2-0.7
			c-4.4-6.6-19.3-28.7-21.8-34.5c-0.2-0.5-0.8-0.7-1.3-0.5c0,0-0.1,0-0.1,0.1L102.5,141"/>
	</defs>
	<clipPath id="SVGID_2_">
		<use xlink:href="#SVGID_1_"  style="overflow:visible;"/>
	</clipPath>
	<g class="st3">
		
			<rect x="102.9" y="60.3" transform="matrix(0.3955 -0.9185 0.9185 0.3955 8.9455 141.644)" class="st4" width="18.4" height="7.4"/>
		<path class="st5" d="M84,57.4c0,0,33.5,5.6,47.7,20.3c11.5,16.3,9.9,9.9,11.6,12s9,4.7,4.3,19.2s12.7-8.7,12.7-8.7l-23.7-36.3
			L86.9,52.6l-2.4,4L84,57.4z"/>
		
			<rect x="24.8" y="102.8" transform="matrix(7.271257e-02 -0.9974 0.9974 7.271257e-02 -85.3542 132.7032)" class="st4" width="7.7" height="19"/>
		
			<rect x="106.1" y="142" transform="matrix(0.7923 -0.6101 0.6101 0.7923 -61.4639 106.7606)" class="st4" width="40" height="3.3"/>
		
			<rect x="71.3" y="162.1" transform="matrix(0.9239 -0.3827 0.3827 0.9239 -55.7118 47.4108)" class="st4" width="40" height="3.3"/>
		<path class="st6" d="M130.5,94.6c0,0-14.5-12.5-30.9-12.9c0,0,22.4,19.9,28.6,34c3.2,6.5,22.6,42.7,20.3,54
			C159.9,158.9,130.5,94.6,130.5,94.6z"/>
		<path class="st6" d="M66.4,152.3c0,0-13.5-34.2-13-45c-6,14.9-8.6,22.1-4.8,34.1c9.2,11.4,15.8,16.4,15.8,16.4L66.4,152.3z"/>
		<path class="st6" d="M101.7,141.5l-3.9,2.2c-0.5,0.3-0.7,1-0.4,1.5c0,0,0,0.1,0.1,0.1c3.1,4.3,15.4,22.1,23.6,38.9
			c0.3,0.5,0.9,0.8,1.5,0.5c0.2-0.1,0.3-0.2,0.4-0.3c1.2-1.5,1.8-3.4,1.7-5.3c0-0.2-0.1-0.3-0.2-0.5l-21.2-36.7
			C102.9,141.4,102.2,141.2,101.7,141.5z"/>
		<path class="st5" d="M38.6,92.5c-7.4,10.6-7.1,22.9-7.1,25.5c0,5.7,0.8,11.4,2.4,16.8c3.4,5.9,4.5,10.4,4,11.5s-6,5.8-6,5.8
			l-15.6-27l1.6-26l20.7-15.5V92.5z"/>
	</g>
</g>
<linearGradient id="SVGID_3_" gradientUnits="userSpaceOnUse" x1="-702.671" y1="595.0054" x2="-688.6909" y2="595.0054" gradientTransform="matrix(0.8656 -0.5008 0.5008 0.8656 364.3676 -770.1133)">
	<stop  offset="0" style="stop-color:#00B4A1"/>
	<stop  offset="0.2485" style="stop-color:#0097BF"/>
	<stop  offset="0.5565" style="stop-color:#007ADE"/>
	<stop  offset="0.818" style="stop-color:#0067F1"/>
	<stop  offset="1" style="stop-color:#3b66fd"/>
</linearGradient>
<!-- <circle class="st7" cx="60.2" cy="93.3" r="7"/> -->
<path class="st8" d="M103.9,113.2l-26.2,15.5c-2.8,1.7-6.5,0.8-8.2-2.1c0,0,0,0,0-0.1L63.3,116c-1.7-2.8-0.8-6.5,2.1-8.2
	c0,0,0,0,0.1,0l26.2-15.5c2.8-1.7,6.5-0.8,8.2,2.1c0,0,0,0,0,0.1l6.2,10.6C107.8,107.7,106.9,111.4,103.9,113.2
	C104,113.1,104,113.2,103.9,113.2z"/>
<path class="st0" d="M71.9,117.9l9-5.3c0.6-0.3,1.3-0.1,1.6,0.4l0,0c0.3,0.6,0.1,1.3-0.4,1.6l-9,5.3c-0.6,0.3-1.3,0.1-1.6-0.4l0,0
	C71.2,119,71.4,118.3,71.9,117.9z"/>
<ellipse class="st9" cx="81" cy="114" rx="0.9" ry="0.9"/>
<path class="st0" d="M73.6,120.8l9-5.3c0.6-0.3,1.3-0.1,1.6,0.4l0,0c0.3,0.6,0.1,1.3-0.4,1.6l-9,5.3c-0.6,0.3-1.3,0.1-1.6-0.4l0,0
	C72.9,121.9,73.1,121.1,73.6,120.8z"/>
<ellipse class="st9" cx="76.1" cy="120.8" rx="0.9" ry="0.9"/>
<path class="st0" d="M75.4,123.7l9-5.3c0.6-0.3,1.3-0.1,1.6,0.4l0,0c0.3,0.6,0.1,1.3-0.4,1.6l-9,5.3c-0.6,0.3-1.3,0.1-1.6-0.4l0,0
	C74.6,124.8,74.8,124,75.4,123.7z"/>
<ellipse class="st9" cx="81.9" cy="121.2" rx="0.9" ry="0.9"/>
<rect x="87.9" y="105.2" transform="matrix(0.8607 -0.509 0.509 0.8607 -40.6433 62.3399)" class="st0" width="11.4" height="0.5"/>
<rect x="88.3" y="105.8" transform="matrix(0.8607 -0.509 0.509 0.8607 -40.9032 62.6127)" class="st0" width="11.4" height="0.5"/>
<rect x="88.7" y="106.5" transform="matrix(0.8607 -0.509 0.509 0.8607 -41.2014 62.9182)" class="st0" width="11.4" height="0.5"/>
<rect x="89.1" y="107" transform="matrix(0.8601 -0.5101 0.5101 0.8601 -41.4575 63.3665)" class="st0" width="11.4" height="0.5"/>
<rect x="89.5" y="107.8" transform="matrix(0.8607 -0.509 0.509 0.8607 -41.7557 63.4954)" class="st0" width="11.4" height="0.5"/>
<rect x="89.9" y="108.5" transform="matrix(0.8607 -0.509 0.509 0.8607 -42.0514 63.8023)" class="st0" width="11.4" height="0.5"/>
<rect x="90.3" y="109" transform="matrix(0.8601 -0.5101 0.5101 0.8601 -42.3086 64.2588)" class="st0" width="11.4" height="0.5"/>
<rect x="90.7" y="109.7" transform="matrix(0.8601 -0.5101 0.5101 0.8601 -42.6082 64.5645)" class="st0" width="11.4" height="0.5"/>
<rect x="91.1" y="110.4" transform="matrix(0.8601 -0.5101 0.5101 0.8601 -42.9043 64.8725)" class="st0" width="11.4" height="0.5"/>
<rect x="91.5" y="111" transform="matrix(0.8601 -0.5101 0.5101 0.8601 -43.1622 65.1449)" class="st0" width="11.4" height="0.5"/>
<rect x="91.9" y="111.9" transform="matrix(0.8607 -0.509 0.509 0.8607 -43.4961 65.3025)" class="st0" width="11.4" height="0.5"/>
<rect x="92.3" y="112.5" transform="matrix(0.8607 -0.509 0.509 0.8607 -43.7523 65.5714)" class="st0" width="11.4" height="0.5"/>
<linearGradient id="SVGID_4_" gradientUnits="userSpaceOnUse" x1="-714.6078" y1="617.6006" x2="-682.6381" y2="617.6006" gradientTransform="matrix(0.8607 -0.509 0.509 0.8607 368.726 -781.7357)">
	<stop  offset="0" style="stop-color:#00B4A1"/>
	<stop  offset="0.2485" style="stop-color:#0097BF"/>
	<stop  offset="0.5565" style="stop-color:#007ADE"/>
	<stop  offset="0.818" style="stop-color:#0067F1"/>
	<stop  offset="1" style="stop-color:#3b66fd"/>
</linearGradient>
<path class="st10" d="M68.9,110l23-13.6c1.2-0.7,2.9-0.3,3.6,0.9l0,0c0.7,1.2,0.3,2.9-0.9,3.6l-23,13.6c-1.2,0.7-2.9,0.3-3.6-0.9
	l0,0C67.3,112.4,67.7,110.8,68.9,110z"/>
<rect x="124.8" y="90.5" transform="matrix(0.839 -0.5441 0.5441 0.839 -28.4787 87.8941)" class="st8" width="19" height="3.2"/>
<rect x="34.4" y="142.4" transform="matrix(0.9037 -0.4281 0.4281 0.9037 -57.4195 32.6514)" class="st8" width="19" height="3.2"/>
<rect x="60.2" y="130.1" transform="matrix(0.865 -0.5018 0.5018 0.865 -53.6707 67.0928)" class="st8" width="75.3" height="6.3"/>
<path class="st0" d="M91.2,132.2l8.6-5c0.6-0.4,1.4-0.2,1.8,0.5l3,5.1c0.4,0.6,0.2,1.4-0.5,1.8l-8.6,5c-0.6,0.4-1.4,0.2-1.8-0.5
	l-3-5.1C90.4,133.4,90.6,132.6,91.2,132.2z"/>
<ellipse transform="matrix(0.865 -0.5018 0.5018 0.865 -53.751 67.0406)" class="st11" cx="97.7" cy="133.4" rx="2.9" ry="2.9"/>
<path class="st6" d="M129.1,178.7l10.5,16.4c1.9,2.6,4.9,4.2,8.1,4.4c1.5,0.1,2.9,0.1,4.4-0.2c2-0.4,3.9-1.1,5.6-2.1
	c9.2-5.2,17.6-10.1,8.6-17.5c-1.7-1.3-3.6-2.3-5.6-2.9c-0.9-0.2-1.7-0.4-2.5-0.6c-2.8-0.6-5.2-2.4-6.6-4.9l-2.1-3.8L129.1,178.7z"/>
<g>
	<g>
		<defs>
			<path id="SVGID_5_" d="M129.1,178.7l10.5,16.4c1.9,2.6,4.9,4.2,8.1,4.4c1.5,0.1,2.9,0.1,4.4-0.2c2-0.4,3.9-1.1,5.6-2.1
				c9.2-5.2,17.6-10.1,8.6-17.5c-1.7-1.3-3.6-2.3-5.6-2.9c-0.9-0.2-1.7-0.4-2.5-0.6c-2.8-0.6-5.2-2.4-6.6-4.9l-2.1-3.8L129.1,178.7z
				"/>
		</defs>
		<clipPath id="SVGID_6_">
			<use xlink:href="#SVGID_5_"  style="overflow:visible;"/>
		</clipPath>
		<g class="st12">
			<ellipse class="st13" cx="158.2" cy="175.3" rx="5.6" ry="5.6"/>
			<path class="st13" d="M130.7,197.7l6.5-5.9c1.9,2.6,4.9,4.2,8.1,4.4c1.5,0.1,2.9,0.1,4.4-0.2c2-0.4,3.9-1.1,5.6-2.1
				c9.2-5.2,17.6-10.1,8.6-17.5c-1.7-1.3-3.6-2.3-5.6-2.9c-0.9-0.2-1.7-0.4-2.5-0.6c-2.8-0.6,16.3,0.5,14.9-2l7.1,10.5l-3.9,9.6
				l-10,8.9l-11.2,4.9l-7,0.4l-6.4-2l-4.4-3.2L130.7,197.7z"/>
		</g>
	</g>
</g>
<path class="st8" d="M149.3,168.2L130.6,179c-1.2,0.7-2.7,0.3-3.4-0.9l0,0c-0.7-1.2-0.3-2.7,0.9-3.4l18.7-10.8
	c1.2-0.7,2.7-0.3,3.4,0.9l0,0C150.9,166,150.5,167.5,149.3,168.2z"/>
<rect x="139.1" y="179.2" transform="matrix(0.8656 -0.5008 0.5008 0.8656 -73.4536 94.6999)" class="st14" width="1.1" height="9.9"/>
<rect x="144.1" y="176.3" transform="matrix(0.8656 -0.5008 0.5008 0.8656 -71.3308 96.8092)" class="st14" width="1.1" height="9.9"/>
<rect x="141.6" y="177.7" transform="matrix(0.8656 -0.5008 0.5008 0.8656 -72.3752 95.7362)" class="st14" width="1.1" height="9.9"/>
<path class="st6" d="M122.2,182.7l9,17.3c1.3,3,1.2,6.3-0.2,9.2c-0.6,1.3-1.4,2.6-2.4,3.7c-1.3,1.5-2.9,2.8-4.6,3.8
	c-9.1,5.3-17.5,10.3-19.5-1.3c-0.3-2.1-0.2-4.3,0.3-6.3c0.2-0.9,0.5-1.7,0.7-2.5c0.9-2.7,0.5-5.7-1-8.2l-2.2-3.7L122.2,182.7z"/>
<g>
	<g>
		<defs>
			<path id="SVGID_7_" d="M122.2,182.7l9,17.3c1.3,3,1.2,6.3-0.2,9.2c-0.6,1.3-1.4,2.6-2.4,3.7c-1.3,1.5-2.9,2.8-4.6,3.8
				c-9.1,5.3-17.5,10.3-19.5-1.3c-0.3-2.1-0.2-4.3,0.3-6.3c0.2-0.9,0.5-1.7,0.7-2.5c0.9-2.7,0.5-5.7-1-8.2l-2.2-3.7L122.2,182.7z"/>
		</defs>
		<clipPath id="SVGID_8_">
			<use xlink:href="#SVGID_7_"  style="overflow:visible;"/>
		</clipPath>
		<g class="st15">
			
				<ellipse transform="matrix(0.8656 -0.5008 0.5008 0.8656 -89.1636 80.2074)" class="st13" cx="104.8" cy="206.2" rx="5.6" ry="5.6"/>
			<path class="st13" d="M137.9,193.6l-8.3,2.7c1.3,3,1.2,6.3-0.2,9.2c-0.6,1.3-1.4,2.6-2.4,3.7c-1.3,1.5-2.9,2.8-4.6,3.8
				c-9.1,5.3-17.5,10.3-19.5-1.3c-0.3-2.1-0.2-4.3,0.3-6.3c0.2-0.9,0.5-1.7,0.7-2.5c0.9-2.7-7.6,14.4-9.1,11.9l5.6,11.4l10.2,1.4
				l12.7-4.2l9.9-7.3l3.9-5.9l1.4-6.6l-0.5-5.4L137.9,193.6z"/>
		</g>
	</g>
</g>
<path class="st8" d="M100.5,190.7l18.7-10.8c1.2-0.7,2.7-0.3,3.4,0.9l0,0c0.7,1.2,0.3,2.7-0.9,3.4L103,195c-1.2,0.7-2.7,0.3-3.4-0.9
	l0,0C98.9,192.9,99.3,191.4,100.5,190.7z"/>
<rect x="121.1" y="189.6" transform="matrix(0.8656 -0.5008 0.5008 0.8656 -81.0787 87.0665)" class="st14" width="1.1" height="9.9"/>
<rect x="116.1" y="192.5" transform="matrix(0.8656 -0.5008 0.5008 0.8656 -83.2034 84.9588)" class="st14" width="1.1" height="9.9"/>
<rect x="118.2" y="190.1" transform="matrix(0.867 -0.4983 0.4983 0.867 -81.4285 85.1268)" class="st14" width="1.1" height="10"/>
<rect x="-0.2" y="62.4" transform="matrix(0.8656 -0.5008 0.5008 0.8656 -31.0461 9.8064)" class="st16" width="5.9" height="0.7"/>
<path id="ear-3" class="st16" d="M6.6,50.2L6.6,50.2L6.6,50.2l9.1,15.9l0,0l0,0c-3.5,2-8,0.8-10-2.7l-1.8-3.2
	C1.9,56.7,3.1,52.2,6.6,50.2L6.6,50.2z"/>
<g>
	<g>
		<defs>
			<path id="SVGID_9_" d="M6.6,50.2L6.6,50.2L6.6,50.2l9.1,15.9l0,0l0,0c-3.5,2-8,0.8-10-2.7l-1.8-3.2C1.9,56.7,3.1,52.2,6.6,50.2
				L6.6,50.2z"/>
		</defs>
		<clipPath id="SVGID_10_">
			<use xlink:href="#SVGID_9_"  style="overflow:visible;"/>
		</clipPath>
		<g class="st17">
			
				<ellipse id="circle" transform="matrix(0.9501 -0.312 0.312 0.9501 -12.0035 12.9945)" class="st18" cx="34.6" cy="44" rx="29.5" ry="31.4"/>
			
				<ellipse transform="matrix(0.8656 -0.5008 0.5008 0.8656 -30.1445 10.7106)" class="st18" cx="4.9" cy="61.5" rx="0.9" ry="1.8"/>
		</g>
	</g>
</g>
<rect x="81.5" y="15.1" transform="matrix(0.8656 -0.5008 0.5008 0.8656 3.6191 44.3576)" class="st16" width="5.9" height="0.7"/>
<path id="ear-4" class="st16" d="M80.5,28.3L80.5,28.3L80.5,28.3l-9.1-15.8l0,0l0,0c3.5-2,8-0.8,10,2.7l0,0l1.8,3.2
	C85.2,21.8,84,26.3,80.5,28.3L80.5,28.3z"/>
<g>
	<g>
		<defs>
			<path id="SVGID_11_" d="M80.5,28.3L80.5,28.3L80.5,28.3l-9.1-15.8l0,0l0,0c3.5-2,8-0.8,10,2.7l0,0l1.8,3.2
				C85.2,21.8,84,26.3,80.5,28.3L80.5,28.3z"/>
		</defs>
		<clipPath id="SVGID_12_">
			<use xlink:href="#SVGID_11_"  style="overflow:visible;"/>
		</clipPath>
		<g class="st19">
			
				<ellipse id="circle-2" transform="matrix(0.8656 -0.5008 0.5008 0.8656 -10.1123 31.1068)" class="st18" cx="52.9" cy="34.4" rx="29.2" ry="31"/>
			<ellipse transform="matrix(0.8656 -0.5008 0.5008 0.8656 2.7148 43.4558)" class="st18" cx="82.3" cy="16.7" rx="0.9" ry="1.8"/>
		</g>
	</g>
</g>
<ellipse id="_Ellipse_2" class="st20" cx="43.8" cy="39.8" rx="38.9" ry="38.9"/>
<g>
	<g>
		<defs>
			<circle id="SVGID_13_" cx="43.8" cy="39.8" r="38.9"/>
		</defs>
		<clipPath id="SVGID_14_">
			<use xlink:href="#SVGID_13_"  style="overflow:visible;"/>
		</clipPath>
		<g class="st21">
			
				<ellipse id="_Ellipse_3" transform="matrix(0.867 -0.4983 0.4983 0.867 -13.1282 28.0055)" class="st2" cx="45.9" cy="38.6" rx="36.8" ry="38.9"/>
			
				<ellipse id="_Ellipse_4" transform="matrix(0.8656 -0.5008 0.5008 0.8656 -12.9945 28.0144)" class="st5" cx="45.7" cy="38.2" rx="36.5" ry="38.8"/>
			
				<ellipse id="_Ellipse_5" transform="matrix(0.8656 -0.5008 0.5008 0.8656 -13.5535 27.4662)" class="st2" cx="44.4" cy="39" rx="35" ry="38.8"/>
		</g>
	</g>
</g>
<linearGradient id="purple_1_" gradientUnits="userSpaceOnUse" x1="16.0205" y1="39.2059" x2="71.9045" y2="39.2059">
	<stop  offset="0" style="stop-color:#00B4A1"/>
	<stop  offset="0.2485" style="stop-color:#0097BF"/>
	<stop  offset="0.5565" style="stop-color:#007ADE"/>
	<stop  offset="0.818" style="stop-color:#0067F1"/>
	<stop  offset="1" style="stop-color:#3b66fd"/>
</linearGradient>
<path id="purple" class="st22" d="M68,25.5c7.8,13.5,3.6,29.1-9.8,36.9s-31.1,4.8-38.8-8.7s-1.6-30.2,11.8-38S60.2,12,68,25.5z"/>
<linearGradient id="purple-2_1_" gradientUnits="userSpaceOnUse" x1="-666.4893" y1="516.7215" x2="-692.4688" y2="561.6287" gradientTransform="matrix(0.8656 -0.5008 0.5008 0.8656 364.3781 -770.1158)">
	<stop  offset="0" style="stop-color:#00B4A1"/>
	<stop  offset="0.2485" style="stop-color:#0097BF"/>
	<stop  offset="0.5565" style="stop-color:#007ADE"/>
	<stop  offset="0.818" style="stop-color:#0067F1"/>
	<stop  offset="1" style="stop-color:#3b66fd"/>
</linearGradient>
<path id="purple-2" class="st23" d="M67.6,24.7c7.5,13,4.3,27.7-7.7,34.6c-12.5,7.2-28.5,2.8-35.6-9.7c-7.1-12.4-2.9-28.3,9.5-35.5
	C45.7,7.2,60.1,11.7,67.6,24.7z"/>
<g id="outline">
	<path class="st24" d="M45.2,11.8c9.1,0,17.7,4.8,22.9,13.7c7.8,13.5,3.6,29.1-9.8,36.9c-4.7,2.8-10.1,4.2-15.6,4.2
		c-9.3,0-18.3-4.3-23.3-12.9c-7.8-13.5-1.6-30.2,11.8-38C35.4,13.2,40.2,11.8,45.2,11.8 M45.1,6.8L45.1,6.8L45.1,6.8
		c-5.8,0-11.5,1.6-16.5,4.6C12.3,20.8,6.2,40.9,15,56.2c5.6,9.7,15.9,15.4,27.6,15.4c6.4,0,12.6-1.7,18.1-4.9
		c7.5-4.2,12.9-11.1,15.2-19.3c2.1-8.3,0.8-17-3.5-24.4C66.5,12.8,56.4,6.8,45.1,6.8L45.1,6.8z"/>
</g>
<path class="st16" d="M40.7,78.3L79,56.2c3.7-2.1,8.4-0.9,10.5,2.8l0,0l0.9,1.5l0,0L38.8,90.3l0,0l-0.9-1.5
	C35.8,85.1,37,80.4,40.7,78.3L40.7,78.3z"/>
<path class="st24" d="M36.5,79.1l45.2-26.2c1.7-1,3.9-0.4,5,1.3l2.9,5l0,0L38.1,89.1l0,0l-2.9-5C34.2,82.3,34.8,80.1,36.5,79.1z"/>
<ellipse class="st0" cx="40.7" cy="82.4" rx="2.3" ry="2.3"/>
<ellipse class="st0" cx="47.7" cy="78.4" rx="2.3" ry="2.3"/>
<ellipse class="st0" cx="54.6" cy="74.4" rx="2.3" ry="2.3"/>
<ellipse class="st0" cx="61.6" cy="70.3" rx="2.3" ry="2.3"/>
<ellipse class="st0" cx="68.5" cy="66.3" rx="2.3" ry="2.3"/>
<ellipse class="st0" cx="75.5" cy="62.3" rx="2.3" ry="2.3"/>
<ellipse class="st0" cx="82.5" cy="58.3" rx="2.3" ry="2.3"/>
<g>
	<path class="st5" d="M61.2,94.2c-1.4-0.5-2.8-1-4.3-0.7c-0.4,0.1-0.2,0.7,0.2,0.6c1.3-0.3,2.7,0.2,3.9,0.6
		C61.3,94.9,61.6,94.3,61.2,94.2L61.2,94.2z"/>
	<path class="st5" d="M63.4,97.2C63.2,95.8,62,94.9,61,94c-1.2-1.1-1.5-2.5-0.8-4c0.2-0.4-0.4-0.6-0.5-0.3c-0.6,1.3-0.6,2.7,0.2,3.9
		c0.9,1.2,2.7,1.9,2.9,3.5C62.9,97.6,63.5,97.6,63.4,97.2L63.4,97.2z"/>
	<path class="st5" d="M60.1,88c0.7,0.3,0.9,1.2,0.6,1.8c-0.3,0.7-1.2,1-1.8,0.6c-0.7-0.3-0.9-1.2-0.6-1.8
		C58.7,87.9,59.5,87.7,60.1,88z"/>
	<path class="st5" d="M57.4,92.9c0.5,0.3,0.7,0.9,0.4,1.4c-0.3,0.5-0.9,0.7-1.4,0.4c-0.5-0.3-0.7-0.9-0.4-1.4
		C56.3,92.9,56.9,92.7,57.4,92.9z"/>
	<path class="st5" d="M63.6,96.4c0.4,0.2,0.5,0.7,0.3,1c-0.2,0.4-0.7,0.5-1,0.4c-0.4-0.2-0.5-0.7-0.3-1
		C62.8,96.3,63.2,96.2,63.6,96.4z"/>
	<path class="st25" d="M63.6,96.4c0.4,0.2,0.5,0.7,0.3,1c-0.2,0.4-0.7,0.5-1,0.4c-0.4-0.2-0.5-0.7-0.3-1
		C62.8,96.3,63.2,96.2,63.6,96.4z"/>
</g>
</svg>
