<svg width="103" height="79" viewBox="0 0 103 79" fill="none" xmlns="http://www.w3.org/2000/svg">
<path d="M99.1745 0.020248C67.3944 0.020248 35.6122 0.0283457 3.83208 4.91122e-06C1.96766 -0.00201943 0.668033 0.621478 0 2.39682C0 8.90103 0 15.4052 0 21.9095C0.67613 23.6888 1.99802 24.4034 3.8503 24.2597C4.2167 24.2314 4.59525 24.3063 4.95559 24.2455C5.9131 24.0836 6.06897 24.5168 6.06897 25.3873C6.04266 41.914 6.05076 58.4427 6.05076 74.9695C6.05076 77.7205 7.13175 78.8036 9.87676 78.8036C37.6345 78.8036 65.3923 78.8036 93.1501 78.8036C95.8364 78.8036 96.9497 77.7023 96.9497 75.0444C96.9497 58.9529 96.9497 42.8614 96.9518 26.7699C96.9518 25.9703 96.6846 24.9115 97.0894 24.4399C97.5631 23.8872 98.6563 24.2779 99.4761 24.2658C101.822 24.2293 102.996 23.0775 102.998 20.7374C103.001 15.1056 103.001 9.47392 102.998 3.8422C102.998 1.08303 101.934 0.020248 99.1745 0.020248ZM90.9395 71.6698C90.9415 72.6374 90.6378 72.7872 89.7694 72.7872C64.2546 72.765 38.7418 72.765 13.227 72.7872C12.3525 72.7872 12.057 72.6273 12.061 71.6678C12.0954 56.2463 12.0975 40.8229 12.059 25.4014C12.057 24.3832 12.3606 24.2354 13.2817 24.2374C26.0553 24.2698 38.8289 24.2597 51.6025 24.2597C64.3417 24.2597 77.0829 24.2678 89.822 24.2415C90.652 24.2395 90.9415 24.367 90.9395 25.3043C90.903 40.7581 90.903 56.2139 90.9395 71.6698ZM95.8566 18.2373C81.0364 18.2171 66.2182 18.2211 51.398 18.2211C36.6466 18.2211 21.8932 18.211 7.14188 18.2454C6.19651 18.2474 6.00015 17.9782 6.01432 17.0895C6.06695 13.7048 6.0548 10.316 6.01837 6.93135C6.01027 6.24307 6.16817 6.03861 6.88883 6.03861C36.6284 6.05886 66.368 6.05886 96.1076 6.03861C96.8283 6.03861 96.9862 6.2451 96.9781 6.93135C96.9437 10.3505 96.9153 13.7716 96.9922 17.1907C97.0145 18.1664 96.6582 18.2393 95.8566 18.2373Z" fill="white"/>
<path d="M59.3187 30.5392C56.7316 30.0615 54.102 30.4724 52.0675 30.3489C49.4197 30.3489 47.3407 30.3186 45.2637 30.355C40.3122 30.4441 36.391 34.4482 36.3809 39.3876C36.3708 44.329 40.2838 48.3919 45.2171 48.4587C49.4035 48.5174 53.5939 48.5133 57.7802 48.4587C62.3107 48.4 66.2035 44.7825 66.578 40.3856C66.9889 35.592 63.9281 31.3894 59.3187 30.5392ZM57.2903 42.4423C55.3469 42.4525 53.4036 42.4444 51.4602 42.4444C49.5168 42.4444 47.5735 42.4565 45.6301 42.4403C43.7535 42.4261 42.4357 41.1832 42.4195 39.4463C42.4033 37.6608 43.7313 36.3875 45.6584 36.3815C49.5452 36.3693 53.4319 36.3713 57.3186 36.3815C59.262 36.3875 60.588 37.6386 60.5799 39.424C60.5738 41.2075 59.2478 42.4322 57.2903 42.4423Z" fill="white"/>
</svg>
