<svg width="509" height="390" viewBox="0 0 509 390" fill="none" xmlns="http://www.w3.org/2000/svg">
<path d="M489.91 0.100023C332.92 0.100023 175.92 0.140024 18.93 2.42608e-05C9.72 -0.00997574 3.3 3.07002 0 11.84C0 43.97 0 76.1 0 108.23C3.34 117.02 9.87 120.55 19.02 119.84C20.83 119.7 22.7 120.07 24.48 119.77C29.21 118.97 29.98 121.11 29.98 125.41C29.85 207.05 29.89 288.7 29.89 370.34C29.89 383.93 35.23 389.28 48.79 389.28C185.91 389.28 323.03 389.28 460.15 389.28C473.42 389.28 478.92 383.84 478.92 370.71C478.92 291.22 478.92 211.73 478.93 132.24C478.93 128.29 477.61 123.06 479.61 120.73C481.95 118 487.35 119.93 491.4 119.87C502.99 119.69 508.79 114 508.8 102.44C508.81 74.62 508.81 46.8 508.8 18.98C508.8 5.35002 503.54 0.100023 489.91 0.100023ZM449.23 354.04C449.24 358.82 447.74 359.56 443.45 359.56C317.41 359.45 191.38 359.45 65.34 359.56C61.02 359.56 59.56 358.77 59.58 354.03C59.75 277.85 59.76 201.66 59.57 125.48C59.56 120.45 61.06 119.72 65.61 119.73C128.71 119.89 191.81 119.84 254.91 119.84C317.84 119.84 380.78 119.88 443.71 119.75C447.81 119.74 449.24 120.37 449.23 125C449.05 201.34 449.05 277.69 449.23 354.04ZM473.52 90.09C400.31 89.99 327.11 90.01 253.9 90.01C181.03 90.01 108.15 89.96 35.28 90.13C30.61 90.14 29.64 88.81 29.71 84.42C29.97 67.7 29.91 50.96 29.73 34.24C29.69 30.84 30.47 29.83 34.03 29.83C180.94 29.93 327.85 29.93 474.76 29.83C478.32 29.83 479.1 30.85 479.06 34.24C478.89 51.13 478.75 68.03 479.13 84.92C479.24 89.74 477.48 90.1 473.52 90.09Z" fill="#1160D8"/>
<path d="M293.03 150.86C280.25 148.5 267.26 150.53 257.21 149.92C244.13 149.92 233.86 149.77 223.6 149.95C199.14 150.39 179.77 170.17 179.72 194.57C179.67 218.98 199 239.05 223.37 239.38C244.05 239.67 264.75 239.65 285.43 239.38C307.81 239.09 327.04 221.22 328.89 199.5C330.92 175.82 315.8 155.06 293.03 150.86ZM283.01 209.66C273.41 209.71 263.81 209.67 254.21 209.67C244.61 209.67 235.01 209.73 225.41 209.65C216.14 209.58 209.63 203.44 209.55 194.86C209.47 186.04 216.03 179.75 225.55 179.72C244.75 179.66 263.95 179.67 283.15 179.72C292.75 179.75 299.3 185.93 299.26 194.75C299.23 203.56 292.68 209.61 283.01 209.66Z" fill="#1160D8"/>
</svg>
