<svg width="340" height="340" viewBox="0 0 340 340" fill="none" xmlns="http://www.w3.org/2000/svg">
<g clip-path="url(#clip0_1406_4842)">
<circle cx="170" cy="170" r="170" fill="#D9D9D9"/>
<path fill-rule="evenodd" clip-rule="evenodd" d="M210.128 73.2008C240.885 93.2677 246.959 130.611 247.379 164.661C247.557 179.057 247.421 193.389 247.286 207.703C247.022 235.55 246.759 263.326 248.805 291.352C248.662 289.351 216.232 284.54 212.529 284.375C204.742 284.039 196.689 284.77 188.726 285.493C184.802 285.849 180.9 286.204 177.063 286.427C170.37 286.846 163.528 287.013 156.649 287.182C143.46 287.506 130.133 287.832 117.457 289.936C114.999 290.345 112.574 290.759 110.168 291.17C97.4316 293.344 85.2519 295.423 71.7731 296.173C70.7076 296.358 69.6114 296.143 68.6954 295.568C67.6694 294.727 67.6694 293.209 67.6694 291.885C67.6694 276.028 68.3798 260.178 69.0896 244.339C70.0922 221.967 71.0937 199.62 70.0906 177.311C69.1982 158.331 72.3453 139.379 79.3238 121.706C85.2861 106.466 94.6394 92.7837 106.675 81.6954C109.942 78.7424 113.449 76.0658 117.16 73.6932C144.726 55.9654 182.357 55.0831 210.128 73.2008ZM119.683 150.114L134.138 160.373L180.715 113.806L174.857 110.103C169.274 119.565 161.612 127.634 152.451 133.699C142.334 140.649 131.308 146.172 119.683 150.114Z" fill="#051C3D"/>
<path d="M287 292C229 348 129.5 360 57 296L103.967 274.322C105.495 273.599 106.984 272.798 108.429 271.921L109.578 271.203C109.989 270.946 110.389 270.68 110.789 270.403C117.087 266.058 122.249 260.263 125.839 253.506C129.943 245.76 131.297 237.204 131.358 228.484C131.358 223.693 131.164 218.902 131.04 214.121C131.04 213.047 131.02 211.97 130.979 210.889C130.938 207.641 130.904 204.388 130.876 201.133H130.938L132.908 202.159L138.242 204.918L169.317 210.202L201.244 215.639L202.003 241.287L202.178 247.34V248.438L202.66 264.719L214.427 269.51L223.66 273.244L287 292Z" fill="#FAA69E"/>
<path d="M202.003 241.277C199.784 242.801 197.132 243.568 194.442 243.462C179.279 241.831 149.671 229.941 131.061 207.935C131.061 206.861 131.041 205.784 131 204.703C131 203.513 131 202.323 131 201.133L132.969 202.159L138.304 204.918L169.379 210.202L201.306 215.639L202.003 241.277Z" fill="#180301" fill-opacity="0.28"/>
<circle cx="102.151" cy="168.273" r="17.4406" fill="#FAA69E"/>
<circle cx="108.306" cy="166.221" r="17.4406" fill="#180301" fill-opacity="0.28"/>
<path d="M223.763 141.866C235.807 183.6 210.211 234.065 194.483 234.065C172.939 234.065 120.617 216.85 108.583 175.116C96.5492 133.381 112.595 92.0983 144.398 82.9266C176.201 73.755 211.708 100.121 223.763 141.866Z" fill="#FAA69E"/>
<path fill-rule="evenodd" clip-rule="evenodd" d="M182.968 204.544C175.141 203.58 167.928 199.811 162.669 193.935L165.727 191.198C170.324 196.334 176.628 199.629 183.469 200.471L182.968 204.544Z" fill="#18191B"/>
<path fill-rule="evenodd" clip-rule="evenodd" d="M183.405 146.908C183.399 146.891 183.301 146.611 183.301 146.256H187.404C187.404 146.036 187.368 145.867 187.354 145.808C187.336 145.729 187.317 145.668 187.307 145.635C187.285 145.57 187.266 145.523 187.261 145.512C187.254 145.496 187.25 145.486 187.25 145.486C187.25 145.486 187.253 145.492 187.258 145.504C187.282 145.554 187.325 145.64 187.395 145.775C187.471 145.923 187.539 146.056 187.618 146.208C187.715 146.396 187.827 146.613 187.987 146.924C188.495 147.915 189.202 149.32 189.993 151.015C191.57 154.394 193.498 158.967 194.838 163.749L194.848 163.784L194.856 163.82C196.098 168.947 196.672 174.212 196.565 179.486L196.525 181.497H180.654V177.393H192.468C192.405 173.158 191.871 168.942 190.877 164.821C189.621 160.351 187.8 156.018 186.275 152.75C185.513 151.117 184.83 149.761 184.335 148.796C184.215 148.562 184.076 148.293 183.959 148.065C183.868 147.89 183.79 147.739 183.742 147.646C183.673 147.51 183.608 147.381 183.558 147.279C183.535 147.23 183.503 147.161 183.472 147.089C183.458 147.054 183.431 146.988 183.405 146.908C183.405 146.909 183.405 146.908 183.405 146.908Z" fill="#18191B"/>
<path fill-rule="evenodd" clip-rule="evenodd" d="M220.954 137.28C213.644 135.157 205.799 135.898 199.016 139.354L197.153 135.697C204.866 131.768 213.786 130.925 222.099 133.339L220.954 137.28Z" fill="#18191B"/>
<path fill-rule="evenodd" clip-rule="evenodd" d="M168.638 142.467C158.898 138.268 147.794 138.623 138.342 143.437L136.48 139.781C147.019 134.412 159.402 134.016 170.263 138.699L168.638 142.467Z" fill="#18191B"/>
<path d="M155.406 150.699C161.664 150.75 161.664 160.312 155.406 160.363H155.119C148.861 160.363 148.861 150.75 155.119 150.699H155.406Z" fill="#18191B"/>
<path d="M206.825 149.272C212.642 149.272 212.642 158.198 206.825 158.239H206.569C200.762 158.239 200.762 149.313 206.569 149.272H206.825Z" fill="#18191B"/>
<path d="M186.907 72.5795C186.368 77.4043 185.529 82.1909 184.395 86.9114C182.453 95.2421 179.236 103.223 174.858 110.572C169.155 119.962 161.39 127.932 152.152 133.88C141.947 140.7 130.851 146.082 119.178 149.874C110.069 152.918 100.669 153.075 90.9396 154.879C91.3577 147.056 91.1372 139.42 92.2177 130.343C93.0192 123.828 94.535 117.62 97.492 112.641C105.511 99.4678 117.098 88.837 130.911 81.98L131.035 81.92C146.307 74.3074 169.907 66.9038 186.907 72.5795Z" fill="#051C3D"/>
<path d="M287.5 292C232.684 349.885 121.463 360.025 57 296L103.967 274.322C106.344 273.204 108.626 271.893 110.789 270.403C111.445 269.951 112.102 269.479 112.728 268.987C118.161 264.83 122.633 259.549 125.839 253.506C128.263 248.862 129.873 243.838 130.599 238.65C131.324 239.352 132.084 240.017 132.877 240.641C139.167 245.296 145.994 249.178 153.211 252.203C156.714 253.664 160.297 254.928 163.942 255.988C174.923 259.19 186.389 260.403 197.797 259.569C199.377 259.446 200.967 259.292 202.547 259.179L202.701 264.391V264.729L215.114 269.777L287.5 292Z" fill="#FCD2CF"/>
</g>
<defs>
<clipPath id="clip0_1406_4842">
<rect width="340" height="340" fill="white"/>
</clipPath>
</defs>
</svg>
