<?xml version="1.0" encoding="iso-8859-1"?>
<!-- Generator: Adobe Illustrator 19.0.0, SVG Export Plug-In . SVG Version: 6.00 Build 0)  -->
<svg version="1.1" id="Layer_1" xmlns="http://www.w3.org/2000/svg" xmlns:xlink="http://www.w3.org/1999/xlink" x="0px" y="0px"
	 viewBox="0 0 512 512" style="enable-background:new 0 0 512 512;" xml:space="preserve">
<path style="fill:#215EFF;" d="M349.867,8.533h119.467c9.429,0,17.067,7.637,17.067,17.067v460.8
	c0,9.429-7.637,17.067-17.067,17.067H349.867c-9.429,0-17.067-7.637-17.067-17.067V25.6C332.8,16.171,340.437,8.533,349.867,8.533z"
	/>
<path style="fill:#0F7BE4;" d="M315.733,8.533H435.2c9.429,0,17.067,7.637,17.067,17.067v460.8c0,9.429-7.637,17.067-17.067,17.067
	H315.733c-9.429,0-17.067-7.637-17.067-17.067V25.6C298.667,16.171,306.304,8.533,315.733,8.533z"/>
<path style="fill:#A60916;" d="M196.267,8.533h119.467c9.429,0,17.067,7.637,17.067,17.067v460.8
	c0,9.429-7.637,17.067-17.067,17.067H196.267c-9.429,0-17.067-7.637-17.067-17.067V25.6C179.2,16.171,186.837,8.533,196.267,8.533z"
	/>
<path style="fill:#C90006;" d="M162.133,8.533H281.6c9.429,0,17.067,7.637,17.067,17.067v460.8c0,9.429-7.637,17.067-17.067,17.067
	H162.133c-9.429,0-17.067-7.637-17.067-17.067V25.6C145.067,16.171,152.704,8.533,162.133,8.533z"/>
<path style="fill:#215EFF;" d="M42.667,8.533h119.467c9.429,0,17.067,7.637,17.067,17.067v460.8c0,9.429-7.637,17.067-17.067,17.067
	H42.667c-9.429,0-17.067-7.637-17.067-17.067V25.6C25.6,16.171,33.237,8.533,42.667,8.533z"/>
<path style="fill:#0F7BE4;" d="M42.667,8.533H128c9.429,0,17.067,7.637,17.067,17.067v460.8c0,9.429-7.637,17.067-17.067,17.067
	H42.667c-9.429,0-17.067-7.637-17.067-17.067V25.6C25.6,16.171,33.237,8.533,42.667,8.533z"/>
<g>
	<path style="fill:#434444;" d="M298.667,426.667c0,23.561-19.106,42.667-42.667,42.667c-4.335-0.009-8.644-0.649-12.8-1.877
		c-22.528-6.912-35.183-30.78-28.271-53.308c4.156-13.534,14.746-24.124,28.271-28.271c4.156-1.229,8.465-1.869,12.8-1.877
		C279.561,384,298.667,403.106,298.667,426.667z"/>
	<path style="fill:#434444;" d="M145.067,426.667c0,23.561-19.106,42.667-42.667,42.667c-4.335-0.009-8.644-0.649-12.8-1.877
		c-22.528-6.912-35.183-30.78-28.271-53.308c4.156-13.534,14.746-24.124,28.271-28.271c4.156-1.229,8.465-1.869,12.8-1.877
		C125.961,384,145.067,403.106,145.067,426.667z"/>
	<path style="fill:#434444;" d="M452.267,426.667c0,23.561-19.106,42.667-42.667,42.667c-4.335-0.009-8.644-0.649-12.8-1.877
		c-22.528-6.912-35.183-30.78-28.271-53.308c4.156-13.534,14.746-24.124,28.271-28.271c4.156-1.229,8.465-1.869,12.8-1.877
		C433.161,384,452.267,403.106,452.267,426.667z"/>
</g>
<g>
	<path style="fill:#5E5F5F;" d="M273.067,426.667c0.043,18.662-12.058,35.191-29.867,40.789
		c-22.528-6.912-35.183-30.78-28.271-53.308c4.156-13.534,14.746-24.124,28.271-28.271
		C261.009,391.475,273.109,408.004,273.067,426.667z"/>
	<path style="fill:#5E5F5F;" d="M119.467,426.667c0.043,18.662-12.058,35.191-29.867,40.789
		c-22.528-6.912-35.183-30.78-28.271-53.308c4.156-13.534,14.746-24.124,28.271-28.271
		C107.409,391.475,119.509,408.004,119.467,426.667z"/>
	<path style="fill:#5E5F5F;" d="M426.667,426.667c0.043,18.662-12.058,35.191-29.867,40.789
		c-22.528-6.912-35.183-30.78-28.271-53.308c4.156-13.534,14.746-24.124,28.271-28.271
		C414.609,391.475,426.709,408.004,426.667,426.667z"/>
</g>
<g>
	<rect x="213.333" y="42.667" style="fill:#F0F0F0;" width="85.333" height="298.667"/>
	<rect x="59.733" y="42.667" style="fill:#F0F0F0;" width="85.333" height="298.667"/>
	<rect x="366.933" y="42.667" style="fill:#F0F0F0;" width="85.333" height="298.667"/>
</g>
<path d="M315.733,512H196.267c-14.14,0-25.6-11.46-25.6-25.6V25.6c0-14.14,11.46-25.6,25.6-25.6h119.467
	c14.14,0,25.6,11.46,25.6,25.6v460.8C341.333,500.54,329.873,512,315.733,512z M196.267,17.067c-4.71,0-8.533,3.823-8.533,8.533
	v460.8c0,4.71,3.823,8.533,8.533,8.533h119.467c4.71,0,8.533-3.823,8.533-8.533V25.6c0-4.71-3.823-8.533-8.533-8.533H196.267z"/>
<g>
	<rect x="213.333" y="42.667" style="fill:#FFFFFF;" width="51.2" height="298.667"/>
	<rect x="59.733" y="42.667" style="fill:#FFFFFF;" width="51.2" height="298.667"/>
	<rect x="366.933" y="42.667" style="fill:#FFFFFF;" width="51.2" height="298.667"/>
</g>
<path d="M298.667,349.867h-85.333c-4.71,0-8.533-3.823-8.533-8.533V42.667c0-4.71,3.823-8.533,8.533-8.533h85.333
	c4.71,0,8.533,3.823,8.533,8.533v298.667C307.2,346.044,303.377,349.867,298.667,349.867z M221.867,332.8h68.267V51.2h-68.267V332.8
	z"/>
<path id="SVGCleanerId_0" d="M256,477.867c-28.279,0-51.2-22.921-51.2-51.2s22.921-51.2,51.2-51.2c28.279,0,51.2,22.921,51.2,51.2
	S284.279,477.867,256,477.867z M256,392.533c-18.85,0-34.133,15.283-34.133,34.133S237.15,460.8,256,460.8
	c18.85,0,34.133-15.283,34.133-34.133S274.85,392.533,256,392.533z"/>
<path d="M162.133,512H42.667c-14.14,0-25.6-11.46-25.6-25.6V25.6c0-14.14,11.46-25.6,25.6-25.6h119.467
	c14.14,0,25.6,11.46,25.6,25.6v460.8C187.733,500.54,176.273,512,162.133,512z M42.667,17.067c-4.71,0-8.533,3.823-8.533,8.533
	v460.8c0,4.71,3.823,8.533,8.533,8.533h119.467c4.71,0,8.533-3.823,8.533-8.533V25.6c0-4.71-3.823-8.533-8.533-8.533H42.667z"/>
<path d="M145.067,349.867H59.733c-4.71,0-8.533-3.823-8.533-8.533V42.667c0-4.71,3.823-8.533,8.533-8.533h85.333
	c4.71,0,8.533,3.823,8.533,8.533v298.667C153.6,346.044,149.777,349.867,145.067,349.867z M68.267,332.8h68.267V51.2H68.267V332.8z"
	/>
<path d="M102.4,477.867c-28.279,0-51.2-22.921-51.2-51.2s22.921-51.2,51.2-51.2s51.2,22.921,51.2,51.2
	S130.679,477.867,102.4,477.867z M102.4,392.533c-18.85,0-34.133,15.283-34.133,34.133S83.55,460.8,102.4,460.8
	s34.133-15.283,34.133-34.133S121.25,392.533,102.4,392.533z"/>
<path d="M469.333,512H349.867c-14.14,0-25.6-11.46-25.6-25.6V25.6c0-14.14,11.46-25.6,25.6-25.6h119.467
	c14.14,0,25.6,11.46,25.6,25.6v460.8C494.933,500.54,483.473,512,469.333,512z M349.867,17.067c-4.71,0-8.533,3.823-8.533,8.533
	v460.8c0,4.71,3.823,8.533,8.533,8.533h119.467c4.71,0,8.533-3.823,8.533-8.533V25.6c0-4.71-3.823-8.533-8.533-8.533H349.867z"/>
<path d="M452.267,349.867h-85.333c-4.71,0-8.533-3.823-8.533-8.533V42.667c0-4.71,3.823-8.533,8.533-8.533h85.333
	c4.71,0,8.533,3.823,8.533,8.533v298.667C460.8,346.044,456.977,349.867,452.267,349.867z M375.467,332.8h68.267V51.2h-68.267V332.8
	z"/>
<path d="M409.6,477.867c-28.279,0-51.2-22.921-51.2-51.2s22.921-51.2,51.2-51.2c28.279,0,51.2,22.921,51.2,51.2
	S437.879,477.867,409.6,477.867z M409.6,392.533c-18.85,0-34.133,15.283-34.133,34.133S390.75,460.8,409.6,460.8
	c18.85,0,34.133-15.283,34.133-34.133S428.45,392.533,409.6,392.533z"/>
<g>
	<path id="SVGCleanerId_0_1_" d="M256,477.867c-28.279,0-51.2-22.921-51.2-51.2s22.921-51.2,51.2-51.2
		c28.279,0,51.2,22.921,51.2,51.2S284.279,477.867,256,477.867z M256,392.533c-18.85,0-34.133,15.283-34.133,34.133
		S237.15,460.8,256,460.8c18.85,0,34.133-15.283,34.133-34.133S274.85,392.533,256,392.533z"/>
</g>
<g>
</g>
<g>
</g>
<g>
</g>
<g>
</g>
<g>
</g>
<g>
</g>
<g>
</g>
<g>
</g>
<g>
</g>
<g>
</g>
<g>
</g>
<g>
</g>
<g>
</g>
<g>
</g>
<g>
</g>
</svg>
