<?xml version="1.0" encoding="iso-8859-1"?>
<!-- Generator: Adobe Illustrator 19.0.0, SVG Export Plug-In . SVG Version: 6.00 Build 0)  -->
<svg version="1.1" id="Capa_1" xmlns="http://www.w3.org/2000/svg" xmlns:xlink="http://www.w3.org/1999/xlink" x="0px" y="0px"
	 viewBox="0 0 512.047 512.047" style="enable-background:new 0 0 512.047 512.047;" xml:space="preserve">
<g transform="translate(-1)">
	<path style="fill:#CBB292;" d="M452.662,255.061c2.508,1.768,5.025,3.518,7.412,5.465V98.628c0-19.332-14.389-27.983-32.221-27.983
		H232.499c-12.19-0.014-23.52-6.279-30.014-16.596L179.18,16.619c-6.493-10.317-17.824-16.582-30.014-16.596H26.022
		C19.164,0.125,12.64,2.997,7.934,7.985S0.741,19.655,1.04,26.506v384.177c0.635,17.282,14.928,30.91,32.221,30.72h216.332
		c28.932,50.127,85.529,77.517,142.792,69.104s103.59-50.924,116.882-107.254S500.123,288.185,452.662,255.061L452.662,255.061z
		 M253.862,292.923c0.22-0.33,0.483-0.626,0.706-0.953c-0.227,0.336-0.409,0.703-0.632,1.042L253.862,292.923z M264.366,279.203
		c2.433-2.859,4.889-5.699,7.503-8.349c5.909-5.828,12.314-11.131,19.141-15.85C281.137,261.906,272.184,270.037,264.366,279.203z
		 M256.841,288.896c1.91-2.66,3.797-5.333,5.872-7.854C260.637,283.563,258.742,286.233,256.841,288.896L256.841,288.896z
		 M412.052,318.258c3.266,1.412,6.532,3.09,9.71,4.855c-6.351-3.429-12.963-6.351-19.774-8.739
		C405.425,315.445,408.787,316.743,412.052,318.258z M381.62,309.824l-0.2-0.04h-0.088c-0.353-0.088-0.794-0.088-1.148-0.177
		c-0.345-0.102-0.7-0.161-1.059-0.177c5.14,0.344,10.23,1.232,15.183,2.648C390.138,311.028,385.898,310.274,381.62,309.824
		L381.62,309.824z M392.1,312.436l-0.306-0.091L392.1,312.436z M371.798,229.541c-4.824-0.001-9.645,0.243-14.445,0.729
		c9.605-0.972,19.285-0.972,28.89,0C381.444,229.784,376.622,229.54,371.798,229.541z M333.663,317.375
		c1.412-0.618,2.913-1.236,4.414-1.766c-3.266,1.236-6.356,2.56-9.445,4.061C330.309,318.788,331.986,318.082,333.663,317.375z
		 M343.459,232.389l0.002-0.023c4.545-0.918,9.156-1.614,13.832-2.087C352.61,230.756,347.999,231.46,343.459,232.389
		L343.459,232.389z M364.471,309.43c-5.124,0.473-10.202,1.359-15.183,2.648C354.241,310.662,359.331,309.774,364.471,309.43z
		 M396.637,314.233c0.177,0.078,0.364,0.136,0.541,0.215C397.001,314.37,396.814,314.311,396.637,314.233L396.637,314.233z
		 M386.303,230.279c4.675,0.474,9.286,1.17,13.832,2.087l0.002,0.023C395.601,231.466,390.989,230.763,386.303,230.279
		L386.303,230.279z M294.027,252.919c-0.345,0.228-0.72,0.414-1.063,0.645c0.335-0.227,0.639-0.494,0.975-0.719L294.027,252.919z
		 M233.405,342.443c-0.926,4.553-1.632,9.181-2.117,13.883c0.474-4.692,1.172-9.319,2.094-13.881L233.405,342.443z M345.179,426.507
		c-0.656-0.313-1.335-0.584-1.977-0.919C343.844,425.923,344.523,426.195,345.179,426.507z M350.778,428.834
		c-0.842-0.302-1.703-0.566-2.527-0.903C349.076,428.269,349.936,428.532,350.778,428.834z M449.57,252.919l0.088-0.073
		c0.338,0.223,0.638,0.492,0.973,0.718C450.288,253.333,449.915,253.147,449.57,252.919z M231.286,356.336
		c-0.972,9.606-0.972,19.285,0,28.891C230.314,375.621,230.314,365.942,231.286,356.336z M233.382,399.119
		c-0.918-4.545-1.613-9.155-2.087-13.831c0.477,4.683,1.181,9.294,2.11,13.833L233.382,399.119z M353.562,429.826
		c0.586,0.179,1.197,0.297,1.79,0.458C354.758,430.122,354.147,430.004,353.562,429.826L353.562,429.826z M359.11,431.24
		l0.266,0.042L359.11,431.24z M390.689,430.368c-3.802,0.896-7.669,1.486-11.564,1.766c5.181-0.481,10.317-1.366,15.36-2.648
		C393.249,429.75,391.925,430.104,390.689,430.368z M428.295,414.655c-0.332,0.209-0.707,0.365-1.042,0.571
		c1.624-0.979,3.269-1.946,4.838-2.954C430.855,413.066,429.619,413.861,428.295,414.655z"/>
	<g>
		<path style="fill:none;stroke:#000000;stroke-width:2;stroke-linecap:round;stroke-linejoin:round;" d="M369.68,309.077
			c-1.417,0-2.832,0.089-4.237,0.265c0.731-0.103,1.468-0.162,2.207-0.177c0.467-0.073,0.94-0.102,1.412-0.088L369.68,309.077z"/>
		<path style="fill:none;stroke:#000000;stroke-width:2;stroke-linecap:round;stroke-linejoin:round;" d="M378.154,309.342
			c-1.406-0.176-2.821-0.265-4.237-0.265h0.618c0.473-0.015,0.945,0.015,1.412,0.088
			C376.686,309.18,377.423,309.239,378.154,309.342z"/>
	</g>
	<g>
		<g>
			<path style="fill:#7F6E5D;" d="M451.467,169.248c-4.814-0.062-8.667-4.014-8.607-8.828c0.165-14.436-11.385-26.282-25.821-26.483
				H124.405c-4.788-0.121-8.607-4.038-8.607-8.828s3.819-8.706,8.607-8.828H417.04c24.058,0.337,43.307,20.079,43.034,44.138
				C460.134,165.234,456.281,169.186,451.467,169.248z"/>
			<path style="fill:#7F6E5D;" d="M8.102,169.248c-4.359-0.539-7.493-4.456-7.062-8.828c0-24.336,15.841-44.138,35.31-44.138h28.248
				c4.359,0.539,7.493,4.456,7.062,8.828c0.431,4.371-2.703,8.288-7.062,8.828H36.35c-13.07,1.63-22.465,13.373-21.186,26.483
				C15.595,164.791,12.461,168.708,8.102,169.248z"/>
		</g>
		<path style="fill:#84B5CB;" d="M371.798,229.541c-78.005,0-141.241,63.236-141.241,141.241s63.236,141.241,141.241,141.241
			S513.04,448.788,513.04,370.782c0.01-37.463-14.867-73.394-41.357-99.884C445.192,244.408,409.261,229.53,371.798,229.541z
			 M477.376,371.224c-0.441,0.618-1.501,1.854-3.001,3.619c-0.706,0.883-1.589,1.854-2.56,2.913
			c-2.207,2.472-4.943,5.385-8.21,8.651c-1.148,1.236-2.56,2.56-3.972,3.884c-3.178,3.001-6.709,6.179-10.505,9.357
			c-1.148,0.971-2.295,1.942-3.531,2.825c-1.148,0.971-2.295,1.854-3.443,2.737c-1.236,0.883-2.472,1.854-3.708,2.737
			c-2.03,1.501-4.149,2.913-6.356,4.326c-1.236,0.794-2.472,1.589-3.796,2.383c-3.835,2.42-7.815,4.601-11.917,6.532
			c-1.766,0.883-3.531,1.766-5.385,2.56c-1.218,0.635-2.488,1.167-3.796,1.589c-1.229,0.562-2.498,1.034-3.796,1.412
			c-1.324,0.441-2.648,0.883-3.884,1.324c-1.677,0.53-3.354,0.971-5.032,1.412c-1.236,0.265-2.56,0.618-3.796,0.883
			c-3.802,0.896-7.669,1.486-11.564,1.766h-0.353c-0.198,0.072-0.408,0.102-0.618,0.088c-0.618,0.088-1.147,0.088-1.766,0.177
			c-1.501,0.088-3.09,0.177-4.59,0.177s-3.09-0.088-4.59-0.177c-0.618-0.088-1.148-0.088-1.766-0.177
			c-0.21,0.014-0.42-0.016-0.618-0.088h-0.353c-1.412-0.088-2.825-0.265-4.149-0.441c-2.737-0.353-5.473-0.883-8.21-1.501
			c-4.64-1.072-9.209-2.429-13.683-4.061c-0.706-0.265-1.412-0.53-2.03-0.794c-1.308-0.422-2.577-0.954-3.796-1.589
			c-1.854-0.794-3.619-1.677-5.385-2.56c-3.091-1.413-6.098-3.005-9.004-4.767c-4.59-2.648-8.916-5.561-13.065-8.474
			c-1.236-0.883-2.472-1.854-3.708-2.737c-2.383-1.766-4.767-3.619-6.974-5.561c-3.796-3.178-7.327-6.356-10.505-9.357
			c-1.412-1.324-2.825-2.648-3.972-3.884c-3.266-3.266-6.003-6.179-8.21-8.651c-0.971-1.059-1.854-2.03-2.56-2.913
			c-1.501-1.766-2.56-3.001-3.001-3.619c-0.088-0.088-0.177-0.265-0.265-0.265c-0.051-0.046-0.082-0.109-0.088-0.177l0.177-0.177
			c0.441-0.53,1.501-1.942,3.178-3.884c0.706-0.883,1.589-1.854,2.56-2.913c2.207-2.472,4.943-5.385,8.21-8.651
			c1.148-1.236,2.56-2.56,3.972-3.884c3.178-3.001,6.709-6.179,10.505-9.357c2.207-1.854,4.59-3.708,6.974-5.561
			c1.236-0.883,2.472-1.854,3.708-2.737c2.825-2.03,5.826-4.061,8.916-5.914c1.507-1.025,3.069-1.968,4.679-2.825
			c3.178-1.854,6.444-3.619,9.887-5.208c1.677-0.883,3.354-1.589,5.032-2.295c1.412-0.618,2.913-1.236,4.414-1.766
			c2.03-0.794,4.237-1.501,6.356-2.207c1.595-0.523,3.215-0.965,4.855-1.324c4.953-1.417,10.043-2.304,15.183-2.648h0.353
			c0.198-0.072,0.408-0.103,0.618-0.088c0.971-0.088,1.854-0.177,2.825-0.177c0.258-0.072,0.527-0.102,0.794-0.088h0.088
			c0.165-0.088,0.364-0.088,0.53,0h0.353c1.174-0.118,2.357-0.118,3.531,0h0.353c0.196-0.088,0.421-0.088,0.618,0
			c1.211,0,2.421,0.089,3.619,0.265c0.21-0.014,0.42,0.016,0.618,0.088h0.353c5.14,0.344,10.23,1.232,15.183,2.648
			c1.64,0.359,3.26,0.801,4.855,1.324c0.959,0.27,1.902,0.594,2.825,0.971c3.436,1.072,6.798,2.369,10.063,3.884
			c3.266,1.412,6.532,3.09,9.71,4.855l0.53,0.265c2.472,1.412,4.855,2.825,7.151,4.237c1.589,0.971,3.09,1.942,4.679,3.001
			c1.412,0.971,2.913,2.03,4.326,3.001c1.236,0.883,2.472,1.854,3.708,2.737c1.148,0.883,2.295,1.766,3.443,2.737
			c1.236,0.883,2.383,1.854,3.531,2.825c3.796,3.178,7.327,6.356,10.505,9.357c1.412,1.324,2.825,2.648,3.972,3.884
			c3.266,3.266,6.003,6.179,8.21,8.651c0.971,1.059,1.854,2.03,2.56,2.913c1.677,1.942,2.737,3.354,3.178,3.884l0.176,0.176
			c-0.006,0.068-0.038,0.131-0.088,0.177C477.553,370.959,477.464,371.135,477.376,371.224z"/>
		<g>
			<path style="fill:#E6E7E8;" d="M364.824,432.134h-0.353c-1.412-0.088-2.825-0.265-4.149-0.441
				c-2.737-0.353-5.473-0.883-8.21-1.501c-4.64-1.072-9.209-2.429-13.683-4.061c-0.706-0.265-1.412-0.53-2.03-0.794
				c-1.324-0.53-2.56-1.059-3.796-1.589c-1.854-0.794-3.619-1.677-5.385-2.56c-3.09-1.501-6.091-3.09-9.004-4.767
				c-4.59-2.648-8.916-5.561-13.065-8.474c-1.236-0.883-2.472-1.854-3.708-2.737c-2.383-1.854-4.767-3.708-6.974-5.561
				c-3.796-3.178-7.327-6.356-10.505-9.357c-1.412-1.324-2.737-2.648-3.972-3.884c-3.266-3.266-6.003-6.179-8.21-8.651
				c-0.971-1.059-1.854-2.03-2.56-2.913c-1.501-1.766-2.56-3.001-3.001-3.619c-0.088-0.088-0.177-0.265-0.265-0.265
				c-0.051-0.046-0.082-0.109-0.088-0.177l0.177-0.177c0.441-0.53,1.501-1.942,3.178-3.884c0.706-0.883,1.589-1.854,2.56-2.913
				c2.207-2.472,4.943-5.385,8.21-8.651c1.236-1.236,2.56-2.56,3.972-3.884c3.178-3.001,6.709-6.179,10.505-9.357
				c2.207-1.854,4.59-3.708,6.974-5.561c1.236-0.883,2.472-1.854,3.708-2.737c2.825-2.03,5.826-4.061,8.916-5.914
				c1.501-0.971,3.09-1.942,4.679-2.825c3.178-1.854,6.444-3.619,9.887-5.208c3.09-1.501,6.179-2.825,9.445-4.061
				c2.03-0.794,4.237-1.501,6.356-2.207c1.595-0.523,3.215-0.965,4.855-1.324c4.982-1.289,10.059-2.175,15.183-2.648h0.353
				c-31.222,3.523-54.819,29.932-54.819,61.352S333.602,428.611,364.824,432.134z"/>
			<path style="fill:#E6E7E8;" d="M477.729,370.782c-0.006,0.068-0.038,0.131-0.088,0.177c-0.088,0-0.177,0.177-0.265,0.265
				c-0.441,0.618-1.501,1.854-3.001,3.619c-0.706,0.883-1.589,1.854-2.56,2.913c-2.207,2.472-4.943,5.385-8.21,8.651
				c-1.236,1.236-2.56,2.56-3.972,3.884c-3.178,3.001-6.709,6.179-10.505,9.357c-1.148,0.971-2.295,1.942-3.531,2.825
				c-1.148,0.971-2.295,1.854-3.443,2.737c-1.236,0.883-2.472,1.854-3.708,2.737c-2.03,1.501-4.149,2.913-6.356,4.326
				c-5.043,3.302-10.292,6.28-15.713,8.916c-1.766,0.883-3.531,1.766-5.385,2.56c-1.236,0.53-2.56,1.059-3.796,1.589
				c-1.236,0.441-2.56,0.971-3.796,1.412c-1.324,0.441-2.648,0.883-3.884,1.324c-1.677,0.53-3.354,0.971-5.032,1.412
				c-5.043,1.282-10.179,2.167-15.36,2.648h-0.353c30.732-3.465,54.158-29.135,54.805-60.055
				c0.647-30.92-21.685-57.547-52.245-62.295c4.375,0.449,8.712,1.217,12.977,2.295c1.64,0.359,3.26,0.801,4.855,1.324
				c0.959,0.27,1.902,0.594,2.825,0.971c6.811,2.388,13.423,5.31,19.774,8.739l0.53,0.265c2.472,1.412,4.855,2.825,7.151,4.237
				c1.589,0.971,3.09,1.942,4.679,3.001c1.412,0.971,2.913,2.03,4.326,3.001c1.236,0.883,2.472,1.854,3.708,2.737
				c1.148,0.883,2.295,1.766,3.443,2.737c1.236,0.883,2.383,1.854,3.531,2.825c3.796,3.178,7.327,6.356,10.505,9.357
				c1.412,1.324,2.737,2.648,3.972,3.884c3.266,3.266,6.003,6.179,8.21,8.651c0.971,1.059,1.854,2.03,2.56,2.913
				c1.677,1.942,2.737,3.354,3.178,3.884L477.729,370.782z"/>
		</g>
		<path style="fill:#8697CB;" d="M381.42,309.784h-0.088c-0.353-0.088-0.794-0.088-1.148-0.177c-0.345-0.102-0.7-0.161-1.059-0.177
			h-0.353c-0.198-0.072-0.408-0.103-0.618-0.088c-1.198-0.176-2.408-0.265-3.619-0.265h-0.971c-1.174-0.118-2.357-0.118-3.531,0
			h-0.971c-0.268-0.014-0.536,0.015-0.794,0.088c-0.971,0-1.854,0.088-2.825,0.177c-0.21-0.014-0.42,0.016-0.618,0.088
			c-31.206,3.524-54.796,29.908-54.818,61.312s23.53,57.823,54.73,61.391h0.088c0.198,0.072,0.408,0.102,0.618,0.088
			c0.618,0.088,1.147,0.088,1.766,0.177c1.501,0.088,3.09,0.177,4.59,0.177s3.09-0.088,4.59-0.177
			c0.618-0.088,1.148-0.088,1.766-0.177c0.21,0.014,0.42-0.016,0.618-0.088c30.716-3.467,54.135-29.114,54.804-60.018
			S411.957,314.576,381.42,309.784L381.42,309.784z M371.798,397.265c-14.626,0-26.483-11.857-26.483-26.483
			s11.857-26.483,26.483-26.483s26.483,11.857,26.483,26.483c0.009,7.027-2.778,13.768-7.746,18.737
			C385.566,394.487,378.825,397.274,371.798,397.265z"/>
		<circle style="fill:#556080;" cx="371.798" cy="370.782" r="26.483"/>
	</g>
</g>
<g>
</g>
<g>
</g>
<g>
</g>
<g>
</g>
<g>
</g>
<g>
</g>
<g>
</g>
<g>
</g>
<g>
</g>
<g>
</g>
<g>
</g>
<g>
</g>
<g>
</g>
<g>
</g>
<g>
</g>
</svg>
