<?xml version="1.0" encoding="utf-8"?>
<!-- Generator: Adobe Illustrator 21.1.0, SVG Export Plug-In . SVG Version: 6.00 Build 0)  -->
<svg version="1.1" id="Camada_1" xmlns="http://www.w3.org/2000/svg" xmlns:xlink="http://www.w3.org/1999/xlink" x="0px" y="0px"
	 viewBox="0 0 413 338" style="enable-background:new 0 0 413 338;" xml:space="preserve">
<style type="text/css">
	.st0{fill:#3F3552;}
</style>
<g id="rXQUDZ.tif">
	<g>
		<path class="st0" d="M4,221.5c0-9.2,0-18.4,0-27.6c0.4-1.6,1.1-3.2,1.3-4.8c8.1-53.6,36.1-93.3,83.8-118.9c6-3.2,6.7-6,4.4-11.6
			C88.1,46,79.6,35.6,70.1,25.9c-4.2-4.2-5.6-9.1-3.3-14.5c2.2-5.2,6.6-7.5,12.2-7.5c49.3,0,98.6,0,147.9,0c5.9,0,10.3,2.4,12.6,7.9
			c2.3,5.4,0.5,9.9-3.2,13.9c-2,2.1-4,4.2-6,6.3c-7.3,8.1-13.7,16.8-17.7,27.1c-2,5-1.9,8.1,3.9,10.7c10.6,4.7,20.2,11.3,29,19
			c3.3,2.9,6.7,4,11.1,4c31.4-0.2,62.8-0.1,94.2-0.1c6,0,11.1,1.9,13.6,7.7c2.5,5.8,0.7,10.7-3.7,15.1c-5.5,5.5-10.2,11.6-13.6,18.6
			c-2.1,4.3-2.1,6.8,3,9.5c23.4,12.6,39.7,31.7,50.2,56.1c4.2,9.8,5.8,20.4,8.6,30.5c0,8.2,0,16.4,0,24.7c-0.5,1.3-1.1,2.6-1.3,4
			c-4.9,32.5-23.1,54.6-54.1,64.6c-38.9,12.6-78,12.1-116.1-4.4c-2.9-1.3-5.2-1.4-8.2-0.4c-47.7,15.9-96,16.3-144.1,2.8
			c-38.5-10.8-65-35.1-75.8-74.6C6.8,238.6,5.7,230,4,221.5z M106.4,29.5c3.9,7.6,9.2,14.4,11,22.6c1.3,6,4.4,6.2,9.4,5
			c4.7-1.2,9.5-1.9,14.3-2.2c7.3-0.4,13.1,4.4,13.8,11c0.7,6.9-3.7,12.2-11.2,13.5c-4,0.7-8.2,1.1-12.2,1.9
			c-59.5,12.3-103.8,68-102.2,128.9c1.2,47.8,22.4,76.8,67.1,88.7c38.8,10.3,78.1,10,116.7-0.9c31-8.7,52.4-28.1,60.5-60.3
			c14.9-59.8-19.1-126.6-76.6-149.6c-8.3-3.3-11.5-8.7-11.7-17c-0.2-11.8,3.7-22.3,9.2-32.4c1.7-3.1,3.5-6.1,5.4-9.4
			C192.3,28.4,113.2,28.4,106.4,29.5z M261.4,301.9c3,0.9,5,1.6,7.1,2c23.3,4.4,46.7,4.6,69.7-1.3c21.8-5.6,37.9-17.6,43.2-40.9
			c9.1-40.2-12-82.7-49.7-99.5c-11.2-5-13.9-10-12.2-22.2c0.9-6.3,2.7-12.3,5.5-17.9c1.6-3.1,1-4.4-2.6-4.4c-14.5,0-29,0-43.5,0
			c-3.2,0-4.7,0.9-2.8,4.3c1.9,3.4,3.4,6.9,5.4,10.2C311.5,183.1,311.1,261.8,261.4,301.9z"/>
		<path class="st0" d="M156.1,264.8c-6.1,1.5-7.4-1.7-6.6-6.7c1.2-7.3-0.9-11-9.3-11c-4.6,0-9.2-2.5-13.8-3.8c-4-1.2-5-3.2-3.7-7.5
			c3.1-10.3,2.8-10.4,12.9-6.8c7.4,2.7,15,3.8,22.8,2.6c6.3-1,11.5-3.9,12.9-10.9c1.3-6.6-1.9-11.5-7.4-14.3
			c-7.7-4-15.9-7-23.6-10.9c-9.5-4.7-16.7-11.5-17.4-23c-0.9-14.1,6.2-25.1,20.6-29.4c6.4-1.9,7.5-4.9,7.2-10.7
			c-0.4-7.7,5-11,12.2-8.1c3.5,1.4,2.2,4.6,1.9,6.9c-0.8,6.4,0.8,10.1,8.1,9.6c1.6-0.1,3.3,0.6,5,1c11.3,2.6,11.4,3.1,7.9,14.4
			c-1.2,4-2.5,5-6.5,3.2c-6.9-3.2-14.4-4.1-21.9-3.4c-6.1,0.5-11.4,2.6-13,9.4c-1.5,6.7,2.4,10.6,7.6,13.2c8,4,16.3,7.2,24.2,11.3
			c9,4.6,15.4,11.5,16.6,22.2c1.6,15.3-5.5,27.8-20.5,32.5c-7.2,2.3-9.9,5.4-8.6,12.5C164.7,263.2,162.9,266.6,156.1,264.8z"/>
	</g>
</g>
</svg>
