<?xml version="1.0" encoding="utf-8"?>
<!-- Generator: Adobe Illustrator 21.1.0, SVG Export Plug-In . SVG Version: 6.00 Build 0)  -->
<svg version="1.1" id="Camada_1" xmlns="http://www.w3.org/2000/svg" xmlns:xlink="http://www.w3.org/1999/xlink" x="0px" y="0px"
	 viewBox="0 0 100 125" style="enable-background:new 0 0 100 125;" xml:space="preserve">
<style type="text/css">
	.st0{fill:#7F8FA4;}
</style>
<circle class="st0" cx="56.7" cy="43.3" r="6.7"/>
<path class="st0" d="M83.3,10H30c-3.7,0-6.7,3-6.7,6.7v6.7h-6.7c-3.7,0-6.7,3-6.7,6.7v53.3c0,3.7,3,6.7,6.7,6.7H70
	c3.7,0,6.7-3,6.7-6.7v-6.7h6.7c3.7,0,6.7-3,6.7-6.7V16.7C90,13,87,10,83.3,10z M16.7,83.3V46.7l26.7,30l10-10L70,83.3H16.7z
	 M70,73.9L53.3,57.2L43.6,67l-27-30.3V30H70V73.9z M83.3,70h-6.7V30c0-3.7-3-6.7-6.7-6.7H30v-6.7h53.3V70z"/>
</svg>
