<?xml version="1.0" encoding="utf-8"?>
<!-- Generator: Adobe Illustrator 23.0.6, SVG Export Plug-In . SVG Version: 6.00 Build 0)  -->
<svg version="1.1" id="Camada_1" xmlns="http://www.w3.org/2000/svg" xmlns:xlink="http://www.w3.org/1999/xlink" x="0px" y="0px"
	 viewBox="0 0 46.6 78.5" style="enable-background:new 0 0 46.6 78.5;" xml:space="preserve">
<style type="text/css">
	.st0{fill:#337CD3;}
</style>
<path class="st0" d="M1.8,11.3L21.1,0.5c1.4-0.7,3-0.7,4.3,0l19.3,10.8c0.3,0.2,0.3,0.6,0,0.8l-7.2,3.6c-0.4,0.2-0.9,0-1-0.5
	c-0.2-0.6-0.5-1.1-0.9-1.4c-2.7-2.3-7.3-4.9-12.5-4.9c-4.8,0-9.1,2.4-11.9,4.4c-0.8,0.6-1.2,1.5-1.2,2.5v4.3c0,2.9-2.1,5.2-4.6,5.2
	H4.5v-2.1h0.9c1.5,0,2.8-1.4,2.8-3.1v-4.9L1.8,12C1.5,11.9,1.5,11.4,1.8,11.3z M41.5,76.1c-6,1.6-12.1,2.4-18.2,2.4
	s-12.2-0.8-18.2-2.4l0,0c-3.7-1-5.9-5.9-4.8-10.6l0.1-0.3C2.1,58.4,5.8,52.6,10.7,49l0.4-0.3c3.2-2.3,7-2.8,10.8-1.4
	c1,0.4,2,0.3,3-0.1c3.4-1.5,7.3-0.9,10.7,1.5L36,49c4.9,3.6,8.5,9.3,10.2,16.1l0.1,0.2C47.4,70.2,45.2,75.1,41.5,76.1z M43.2,66.3
	v-0.2c-1.6-6.1-4.8-11.2-9-14.4l-0.4-0.3c-2.5-1.8-5.1-2.2-7.5-1.2c-1.8,0.8-3.7,0.9-5.4,0.2c-2-0.7-4.9-1.2-7.8,0.9l-0.4,0.3
	C8.4,54.8,5.1,59.9,3.6,66l-0.1,0.2C2.7,69.4,4.2,72.5,6,73c11.5,3,23.2,3,34.8,0C42.5,72.6,44,69.5,43.2,66.3z M23.3,11.5
	c6.7,0,12.1,5,12.1,11.2c0,3.5-1.7,9.3-3.9,13.6c-2.4,4.7-5.3,7.2-8.2,7.2c-3.1,0-6-2.7-8.5-7.7c-2.1-4.3-3.6-9.8-3.6-13.1
	C11.2,16.5,16.6,11.5,23.3,11.5z M14.3,22.7c0,2.5,1.2,7.5,3.3,11.7c1.8,3.7,4,6,5.7,6c1.6,0,3.6-2,5.4-5.5
	c2.2-4.3,3.6-9.6,3.6-12.2H14.3z"/>
</svg>
