<?xml version="1.0" encoding="utf-8"?>
<!-- Generator: Adobe Illustrator 21.1.0, SVG Export Plug-In . SVG Version: 6.00 Build 0)  -->
<svg version="1.1" id="Camada_1" xmlns="http://www.w3.org/2000/svg" xmlns:xlink="http://www.w3.org/1999/xlink" x="0px" y="0px"
	 viewBox="0 0 24 30" style="enable-background:new 0 0 24 30;" xml:space="preserve">
<style type="text/css">
	.st0{fill:#7F8FA4;}
</style>
<path class="st0" d="M3.8,17.1h7.8v1.4H9.9c-0.2,0-0.4,0.2-0.4,0.4s0.2,0.4,0.4,0.4h4.4c0.2,0,0.4-0.2,0.4-0.4s-0.2-0.4-0.4-0.4
	h-1.8v-1.4h7.8c0.2,0,0.4-0.2,0.4-0.4V5.1c0-0.2-0.2-0.4-0.4-0.4H3.8c-0.2,0-0.4,0.2-0.4,0.4v11.6C3.4,16.9,3.6,17.1,3.8,17.1z
	 M4.2,5.5h15.6v10.8H4.2V5.5z"/>
</svg>
