<?xml version="1.0" encoding="utf-8"?>
<!-- Generator: Adobe Illustrator 21.1.0, SVG Export Plug-In . SVG Version: 6.00 Build 0)  -->
<svg version="1.1" id="Layer_1" xmlns="http://www.w3.org/2000/svg" xmlns:xlink="http://www.w3.org/1999/xlink" x="0px" y="0px"
	 viewBox="0 0 100 125" style="enable-background:new 0 0 100 125;" xml:space="preserve">
<style type="text/css">
	.st0{fill:#3F3552;}
</style>
<title>picture</title>
<path class="st0" d="M2,43.5c1.3,1.6,3.4,2,5.1,0.9l2.3-1.8v44.6c0,2,1.6,3.6,3.6,3.6h26.5c2,0,3.6-1.6,3.6-3.6V68.6h13.5v18.6
	c0,2,1.6,3.6,3.6,3.6h26.4c2,0,3.6-1.6,3.6-3.6V42.4l2.7,1.8c0.5,0.5,1.3,0.7,2,0.7c1.1,0,2.2-0.5,2.9-1.6c1.1-1.6,0.7-4-0.9-5.1
	l-9.6-6.7l0,0V11.7c0-2-1.6-3.6-3.6-3.6H68.6c-2,0-3.6,1.6-3.6,3.6V16L51.3,6.4c-1.3-0.9-2.9-0.9-4.2,0l-44.4,32
	C1.1,39.7,0.7,41.8,2,43.5z M80.4,26.7l-7.9-5.6v-5.8h7.9V26.7z M16.6,37.3l32.7-23.5l34,23.7c-0.2,0.4-0.2,0.7-0.2,1.1v45H63.9V65
	c0-2-1.6-3.6-3.6-3.6H39.5c-2,0-3.6,1.6-3.6,3.6v18.6H16.6V37.3z"/>
</svg>
