<?xml version="1.0" encoding="utf-8"?>
<!-- Generator: Adobe Illustrator 21.1.0, SVG Export Plug-In . SVG Version: 6.00 Build 0)  -->
<svg version="1.1" id="Camada_1" xmlns="http://www.w3.org/2000/svg" xmlns:xlink="http://www.w3.org/1999/xlink" x="0px" y="0px"
	 viewBox="0 0 100 125" style="enable-background:new 0 0 100 125;" xml:space="preserve">
<style type="text/css">
	.st0{fill:#7F8FA4;}
</style>
<path class="st0" d="M59.7,33.7c-1.5-3.9-5.4-6.6-9.6-6.6s-8.1,2.6-9.6,6.6c-0.2,0.5-0.3,1-0.5,1.5c-0.2,0.8-0.2,1.5-0.2,2.2v1.2
	c0,8.9,4.6,16.1,10.3,16.1s10.3-7.2,10.3-16.1v-1.2c0-0.7-0.1-1.5-0.2-2.2C60,34.7,59.9,34.2,59.7,33.7z M54.7,38.7
	c0,6.3-3.1,10.4-4.7,10.4c-1.6,0-4.7-4-4.7-10.4v-1.2c0-0.3,0-0.7,0.1-1c0.1-0.2,0.1-0.4,0.2-0.6c0.7-1.8,2.5-3,4.4-3s3.7,1.2,4.4,3
	c0.1,0.2,0.2,0.5,0.2,0.7c0.1,0.3,0.1,0.7,0.1,1V38.7z"/>
<path class="st0" d="M50,5.5C25.5,5.5,5.5,25.5,5.5,50S25.4,94.5,50,94.5s44.5-20,44.5-44.5S74.5,5.5,50,5.5z M50,88.4
	c-5.3,0-10.3-1.1-14.9-3V67.5c1.3-0.8,6.5-4.1,15.5-4.2v-0.2v0.2c7.6,0.1,12.1,2.4,14.2,3.8L65,85.4C60.4,87.3,55.3,88.4,50,88.4z
	 M70.6,82.4V66.3c0-1.3-0.5-2.1-0.9-2.5s-6.2-5.9-18.7-6.1h-0.9c-12.4,0.2-19.4,5.7-19.7,6c0,0-1.2,1-1.2,2.8l0.1,16
	C18.7,75.6,11.6,63.6,11.6,50c0-21.2,17.2-38.4,38.4-38.4S88.4,28.8,88.4,50C88.4,63.6,81.3,75.5,70.6,82.4z"/>
</svg>
