<?xml version="1.0" encoding="UTF-8"?>
<svg width="20px" height="15px" viewBox="0 0 20 15" version="1.1" xmlns="http://www.w3.org/2000/svg" xmlns:xlink="http://www.w3.org/1999/xlink">
    <!-- Generator: Sketch 52.4 (67378) - http://www.bohemiancoding.com/sketch -->
    <title>Shape</title>
    <desc>Created with Sketch.</desc>
    <g id="Simbolos" stroke="none" stroke-width="1" fill="none" fill-rule="evenodd">
        <g id="HEADER-ACADEMICO" transform="translate(-528.000000, -33.000000)" fill="#777676" fill-rule="nonzero">
            <g id="HEADER">
                <g id="menu" transform="translate(528.000000, 30.000000)">
                    <path d="M18.5247465,11.4127816 C18.5247465,11.1683255 18.3409899,11.0460974 17.9734766,11.0460974 L6.6568432,11.0460974 C6.37947473,11.0460974 6.08303718,11.1211804 5.76753055,11.2713463 C5.45202392,11.4215121 5.20412586,11.6048542 5.02383635,11.8213724 L1.96584901,15.6244107 C1.8410332,15.7920377 1.77862529,15.9317269 1.77862529,16.0434783 C1.77862529,16.2879343 1.9623819,16.4101624 2.32989512,16.4101624 L13.6465286,16.4101624 C13.923897,16.4101624 14.2220681,16.3333333 14.5410419,16.1796752 C14.8600156,16.0260171 15.1061801,15.8409289 15.2795354,15.6244107 L18.3375228,11.8213724 C18.4623386,11.6677143 18.5247465,11.5315174 18.5247465,11.4127816 Z M6.6568432,9.70508119 L14.645055,9.70508119 L14.645055,8.0288109 C14.645055,7.74943251 14.5479761,7.51196089 14.3538182,7.31639602 C14.1596602,7.12083115 13.923897,7.02304872 13.6465286,7.02304872 L7.65536968,7.02304872 C7.37800121,7.02304872 7.14223802,6.92526628 6.94808009,6.72970141 C6.75392216,6.53413655 6.6568432,6.29666492 6.6568432,6.01728654 L6.6568432,5.34677842 C6.6568432,5.06740003 6.55976424,4.82992841 6.36560631,4.63436354 C6.17144838,4.43879867 5.93568519,4.34101624 5.65831672,4.34101624 L2.32989512,4.34101624 C2.05252665,4.34101624 1.81676346,4.43879867 1.62260553,4.63436354 C1.4284476,4.82992841 1.33136864,5.06740003 1.33136864,5.34677842 L1.33136864,14.2833944 L3.99410592,10.9832373 C4.29921123,10.6130609 4.70139551,10.3074908 5.20065875,10.066527 C5.69992199,9.82556312 6.18531681,9.70508119 6.6568432,9.70508119 Z M19.8561151,11.4127816 C19.8561151,11.8458181 19.6966282,12.2648856 19.3776545,12.6699843 L16.3092658,16.4730225 C16.0110947,16.8431989 15.6089105,17.148769 15.102713,17.3897328 C14.5965156,17.6306967 14.1111207,17.7511786 13.6465286,17.7511786 L2.32989512,17.7511786 C1.69194765,17.7511786 1.14414493,17.5206915 0.686486955,17.0597171 C0.228828985,16.5987428 0,16.0469705 0,15.4044002 L0,5.34677842 C0,4.70420814 0.228828985,4.15243583 0.686486955,3.6914615 C1.14414493,3.23048717 1.69194765,3 2.32989512,3 L5.65831672,3 C6.29626419,3 6.84406692,3.23048717 7.30172489,3.6914615 C7.75938286,4.15243583 7.98821184,4.70420814 7.98821184,5.34677842 L7.98821184,5.68203248 L13.6465286,5.68203248 C14.284476,5.68203248 14.8322788,5.91251964 15.2899367,6.37349398 C15.7475947,6.83446831 15.9764237,7.38624061 15.9764237,8.0288109 L15.9764237,9.70508119 L17.9734766,9.70508119 C18.3479241,9.70508119 18.6911675,9.79064082 19.0032071,9.96176008 C19.3152466,10.1328793 19.5475427,10.3790815 19.7000953,10.7003667 C19.8041085,10.9238694 19.8561151,11.161341 19.8561151,11.4127816 Z" id="Shape"></path>
                </g>
            </g>
        </g>
    </g>
</svg>