<svg width="22" height="22" viewBox="0 0 22 22" fill="none" xmlns="http://www.w3.org/2000/svg">
<path fill-rule="evenodd" clip-rule="evenodd" d="M20.0668 7.06672H19.1335V5.20003C19.1335 4.6853 18.7149 4.26669 18.2002 4.26669H12.1334C12.0242 4.26669 11.9188 4.22843 11.8348 4.15889L9.16449 1.93334H3.73338C3.21864 1.93334 2.80004 2.35194 2.80004 2.86668V6.13337H20.0668V7.06672H2.80004H1.8667V2.86668C1.8667 1.83721 2.70391 1 3.73338 1H9.33343C9.44263 1 9.54809 1.03827 9.63209 1.1078L12.3024 3.33335H18.2002C19.2296 3.33335 20.0668 4.17056 20.0668 5.20003V6.13337V7.06672Z" fill="#909191"/>
<path d="M20.0668 7.06672H19.1335V5.20003C19.1335 4.6853 18.7149 4.26669 18.2002 4.26669H12.1334C12.0242 4.26669 11.9188 4.22843 11.8348 4.15889L9.16449 1.93334H3.73338C3.21864 1.93334 2.80004 2.35194 2.80004 2.86668V6.13337H20.0668M20.0668 7.06672V6.13337M20.0668 7.06672H2.80004H1.8667V2.86668C1.8667 1.83721 2.70391 1 3.73338 1H9.33343C9.44263 1 9.54809 1.03827 9.63209 1.1078L12.3024 3.33335H18.2002C19.2296 3.33335 20.0668 4.17056 20.0668 5.20003V6.13337" stroke="#909191" stroke-width="0.5"/>
<rect x="1" y="7" width="19.9335" height="13.8668" rx="2" stroke="#909191" stroke-width="1.5"/>
</svg>
