<?xml version="1.0" encoding="utf-8"?>
<!-- Generator: Adobe Illustrator 21.1.0, SVG Export Plug-In . SVG Version: 6.00 Build 0)  -->
<svg version="1.1" id="Camada_1" xmlns="http://www.w3.org/2000/svg" xmlns:xlink="http://www.w3.org/1999/xlink" x="0px" y="0px"
	 viewBox="0 0 100 100" style="enable-background:new 0 0 100 100;" xml:space="preserve">
<style type="text/css">
	.st0{fill:#520F7A;}
	.st1{fill:#FFFFFF;}
</style>
<g transform="translate(0.000000,2000.000000) scale(0.100000,-0.100000)">
	<path class="st0" d="M592.1,19865.3c-9.7-0.5-22.4-1.6-29.8-2.7c-23.3-3.4-56.7-17.5-83.4-35.3c-15.5-10.2-26.9-19.5-39.7-32.3
		c-14.5-14.4-23.4-25.9-33.5-43.4l-4.5-7.7l-5.2,2.5c-34.8,16.4-82,21.1-120,11.9c-27.5-6.6-58.3-23.3-81.2-43.9
		c-2.7-2.4-5.3-4.7-5.8-5.1c-1.7-1.2-13.2-13.9-17.3-19c-5.7-7.2-12.8-18.2-16.9-26.3c-10.5-20.8-19.5-51.6-20.7-70.6l-0.3-5.5
		l-12.4-6.2c-20.7-10.3-34.8-20.6-51.9-38.2c-14.7-15-24.4-28.2-32.5-44.2c-17.4-34.4-23.2-74-16.1-110.9
		c6.5-34.2,22.6-64.9,47.8-90.9c27.3-28.4,48.2-40.7,84-49.7c18.6-4.7,36.7-6.1,89.6-6.9c9.6-0.1,23-0.3,29.8-0.5
		c61.3-1.2,445.7-1.9,478.3-0.8c41.9,1.3,61.3,2.8,79.2,5.8c16.6,2.8,28.4,6.5,46.4,14.6c24.6,11.1,38.3,20.3,55.1,37.3
		c17.6,17.7,29.5,36,38.5,59.6c11.4,29.7,15.4,65,10.6,94.2c-4,24.8-15.4,52.6-30,73.3c-8.1,11.4-22.4,26.9-33.2,35.9
		c-22.4,18.7-45.1,30.8-70.5,37.6c-5.8,1.6-7,2.1-7,2.8c0,0.5,0.6,5.3,1.3,10.6c1.2,8.9,1.3,11,1.3,25.5c0,17-0.7,24.6-3.4,38.6
		c-7.1,36-23.3,71.3-46.4,101.4c-16.5,21.6-38.4,41.5-59.8,54.2c-24.4,14.6-64.6,30.4-84.5,33.1
		C635.5,19865.8,612.4,19866.3,592.1,19865.3z"/>
</g>
<path class="st1" d="M50,39.7L29.1,60.6H44v26.9h12V60.6h14.9L50,39.7z"/>
</svg>
