<?xml version="1.0" encoding="UTF-8"?>
<svg width="44px" height="48px" viewBox="0 0 44 48" version="1.1" xmlns="http://www.w3.org/2000/svg" xmlns:xlink="http://www.w3.org/1999/xlink">
    <!-- Generator: Sketch 52.4 (67378) - http://www.bohemiancoding.com/sketch -->
    <title>Group 19</title>
    <desc>Created with Sketch.</desc>
    <defs>
        <path d="M0.43725,3.07642105 C5.38828125,8.63621053 6.57834375,15.9318947 7.40059375,22.8549474 C7.64121875,24.8785263 11.1179063,24.8996842 10.8752188,22.8549474 C9.9405625,14.9842105 8.50403125,7.11947368 2.8936875,0.819789474 C2.55303125,0.436736842 2.15290625,0.276947368 1.761375,0.276947368 C0.52284375,0.276631579 -0.631125,1.87673684 0.43725,3.07642105" id="path-1"></path>
        <linearGradient x1="-10.8027069%" y1="5.5779972%" x2="113.129794%" y2="94.522642%" id="linearGradient-3">
            <stop stop-color="#2ADBD6" offset="0%"></stop>
            <stop stop-color="#0460F4" offset="100%"></stop>
        </linearGradient>
        <path d="M31.0292812,0.0865263158 C22.7112187,0.343894737 15.371125,3.72978947 11.4255625,10.6468421 C7.41228125,17.6816842 8.81478125,27.8447368 1.00753125,32.8064211 C-0.8215625,33.9688421 0.91334375,36.7367368 2.761,35.5629474 C9.6806875,31.1652632 10.7683125,23.52 12.742125,16.5669474 C15.0779062,8.33873684 21.8246875,3.56305263 31.0292812,3.27821053 C33.23925,3.21 33.2698437,0.0855789474 31.1004375,0.0852631579 C31.0767187,0.0852631579 31.0533437,0.0858947368 31.0292812,0.0865263158" id="path-4"></path>
        <linearGradient x1="4.05092537e-05%" y1="50.0002092%" x2="100.000151%" y2="50.0002092%" id="linearGradient-6">
            <stop stop-color="#0460F4" offset="0%"></stop>
            <stop stop-color="#56F6A1" offset="100%"></stop>
        </linearGradient>
        <path d="M8.10734375,0.162947368 C3.71009375,0.162947368 0.144375,3.33821053 0.144375,7.25589474 C0.144375,11.1729474 3.71009375,14.3482105 8.10734375,14.3482105 C12.505625,14.3482105 16.0703125,11.1729474 16.0703125,7.25589474 C16.0703125,3.33821053 12.505625,0.162947368 8.10734375,0.162947368 Z" id="path-7"></path>
        <linearGradient x1="92.9840529%" y1="24.4046336%" x2="7.0175817%" y2="75.5953317%" id="linearGradient-9">
            <stop stop-color="#0460F4" offset="0%"></stop>
            <stop stop-color="#56B3A1" offset="100%"></stop>
        </linearGradient>
        <polygon id="path-10" points="0.126775 0.093 9.199025 0.093 9.199025 7.89473684 0.126775 7.89473684"></polygon>
        <polygon id="path-12" points="0.126775 0.093 9.199025 0.093 9.199025 7.89473684 0.126775 7.89473684"></polygon>
    </defs>
    <g id="Simbolos" stroke="none" stroke-width="1" fill="none" fill-rule="evenodd">
        <g id="HEADER-ACADEMICO" transform="translate(-46.000000, -16.000000)">
            <g id="HEADER">
                <g id="Group-19" transform="translate(46.000000, 16.000000)">
                    <g id="Group-3" transform="translate(4.125000, 4.574211)">
                        <mask id="mask-2" fill="white">
                            <use xlink:href="#path-1"></use>
                        </mask>
                        <g id="Clip-2"></g>
                        <path d="M0.43725,3.07642105 C5.38828125,8.63621053 6.57834375,15.9318947 7.40059375,22.8549474 C7.64121875,24.8785263 11.1179063,24.8996842 10.8752188,22.8549474 C9.9405625,14.9842105 8.50403125,7.11947368 2.8936875,0.819789474 C2.55303125,0.436736842 2.15290625,0.276947368 1.761375,0.276947368 C0.52284375,0.276631579 -0.631125,1.87673684 0.43725,3.07642105" id="Fill-1" fill="url(#linearGradient-3)" mask="url(#mask-2)"></path>
                    </g>
                    <g id="Group-6" transform="translate(2.750000, 9.626842)">
                        <mask id="mask-5" fill="white">
                            <use xlink:href="#path-4"></use>
                        </mask>
                        <g id="Clip-5"></g>
                        <path d="M31.0292812,0.0865263158 C22.7112187,0.343894737 15.371125,3.72978947 11.4255625,10.6468421 C7.41228125,17.6816842 8.81478125,27.8447368 1.00753125,32.8064211 C-0.8215625,33.9688421 0.91334375,36.7367368 2.761,35.5629474 C9.6806875,31.1652632 10.7683125,23.52 12.742125,16.5669474 C15.0779062,8.33873684 21.8246875,3.56305263 31.0292812,3.27821053 C33.23925,3.21 33.2698437,0.0855789474 31.1004375,0.0852631579 C31.0767187,0.0852631579 31.0533437,0.0858947368 31.0292812,0.0865263158" id="Fill-4" fill="url(#linearGradient-6)" mask="url(#mask-5)"></path>
                    </g>
                    <g id="Group-9" transform="translate(27.843750, 0.153158)">
                        <mask id="mask-8" fill="white">
                            <use xlink:href="#path-7"></use>
                        </mask>
                        <g id="Clip-8"></g>
                        <path d="M8.10734375,0.162947368 C3.71009375,0.162947368 0.144375,3.33821053 0.144375,7.25589474 C0.144375,11.1729474 3.71009375,14.3482105 8.10734375,14.3482105 C12.505625,14.3482105 16.0703125,11.1729474 16.0703125,7.25589474 C16.0703125,3.33821053 12.505625,0.162947368 8.10734375,0.162947368 Z" id="Fill-7" fill="url(#linearGradient-9)" mask="url(#mask-8)"></path>
                    </g>
                    <g id="Group-18" transform="translate(0.000000, 1.100526)">
                        <path d="M11.5812812,5.42223158 C11.5812812,8.36002105 8.98871875,10.7413895 5.7908125,10.7413895 C2.59290625,10.7413895 0,8.36002105 0,5.42223158 C0,2.48381053 2.59290625,0.102442105 5.7908125,0.102442105 C8.98871875,0.102442105 11.5812812,2.48381053 11.5812812,5.42223158" id="Fill-10" fill="#2BDCD6"></path>
                        <g id="Group-14" transform="translate(1.031250, 38.842105)">
                            <mask id="mask-11" fill="white">
                                <use xlink:href="#path-10"></use>
                            </mask>
                            <g id="Clip-13"></g>
                            <path d="M9.199025,3.99394737 C9.199025,6.14826316 7.16780625,7.89489474 4.66255625,7.89489474 C2.1583375,7.89489474 0.126775,6.14826316 0.126775,3.99394737 C0.126775,1.83963158 2.1583375,0.093 4.66255625,0.093 C7.16780625,0.093 9.199025,1.83963158 9.199025,3.99394737" id="Fill-12" fill="#2BDCD6" mask="url(#mask-11)"></path>
                        </g>
                        <g id="Group-17" transform="translate(1.031250, 38.842105)">
                            <mask id="mask-13" fill="white">
                                <use xlink:href="#path-12"></use>
                            </mask>
                            <g id="Clip-16"></g>
                            <path d="M9.199025,3.99394737 C9.199025,6.14826316 7.16780625,7.89489474 4.66255625,7.89489474 C2.1583375,7.89489474 0.126775,6.14826316 0.126775,3.99394737 C0.126775,1.83963158 2.1583375,0.093 4.66255625,0.093 C7.16780625,0.093 9.199025,1.83963158 9.199025,3.99394737" id="Fill-15" fill="#0461F5" mask="url(#mask-13)"></path>
                        </g>
                    </g>
                </g>
            </g>
        </g>
    </g>
</svg>