<?xml version="1.0" encoding="utf-8"?>
<!-- Generator: Adobe Illustrator 21.0.0, SVG Export Plug-In . SVG Version: 6.00 Build 0)  -->
<svg version="1.1" id="Layer_1" xmlns="http://www.w3.org/2000/svg" xmlns:xlink="http://www.w3.org/1999/xlink" x="0px" y="0px"
	 viewBox="0 0 101.5 81.7" style="enable-background:new 0 0 101.5 81.7;" xml:space="preserve">
<style type="text/css">
	.st0{fill:#09CC6A;}
	.st1{fill:#016272;}
</style>
<path class="st0" d="M100.9,53.4c0,4.1-3.3,7.4-7.4,7.4H15.3c-4.1,0-7.4-3.3-7.4-7.4V13.3c0-4.1,3.3-7.4,7.4-7.4h78.2
	c4.1,0,7.4,3.3,7.4,7.4V53.4z"/>
<g>
	<path class="st1" d="M51,28.7c4.7,0,8.5-3.9,8.5-8.6c0-4.7-3.8-8.6-8.5-8.6c-4.7,0-8.5,3.9-8.5,8.6C42.4,24.8,46.3,28.7,51,28.7z
		 M51,14.7c3,0,5.3,2.4,5.3,5.4s-2.4,5.4-5.3,5.4c-3,0-5.4-2.4-5.4-5.4S48,14.7,51,14.7z"/>
	<path class="st1" d="M59.1,30.4l-0.8-0.2L51,35.7l-7.4-5.6l-0.8,0.2c-8.4,2.5-10.5,10.3-10.4,14l0,1.6h37.1l0-1.6
		C69.6,40.7,67.5,32.9,59.1,30.4z M35.7,42.8c0.4-2.5,1.9-7.1,7.3-9.1l8,6.1l8-6.1c5.4,2,6.9,6.7,7.3,9.1H35.7z"/>
	<path class="st1" d="M9,0C5.3,0,2.3,3,2.3,6.8v44.6c0,3.7,3,6.8,6.6,6.8h83.7c3.7,0,6.6-3,6.6-6.8V6.8c0-3.7-3-6.8-6.6-6.8L9,0L9,0
		z M96.1,6.8v44.6c0,2-1.6,3.6-3.5,3.6H9c-1.9,0-3.5-1.6-3.5-3.6V6.8c0-2,1.6-3.6,3.5-3.6h83.7C94.5,3.2,96.1,4.8,96.1,6.8z"/>
	<path class="st1" d="M22.7,81.7c3.3,0,6-2.3,6.7-5.4h72.2v-3.2H29.4c-0.7-3.1-3.4-5.4-6.7-5.4c-3.3,0-6,2.3-6.7,5.4H0v3.2h15.9
		C16.7,79.4,19.4,81.7,22.7,81.7z"/>
</g>
</svg>
