<?xml version="1.0" encoding="utf-8"?>
<!-- Generator: Adobe Illustrator 21.0.0, SVG Export Plug-In . SVG Version: 6.00 Build 0)  -->
<svg version="1.1" id="Layer_1" xmlns="http://www.w3.org/2000/svg" xmlns:xlink="http://www.w3.org/1999/xlink" x="0px" y="0px"
	 viewBox="0 0 149.5 104.2" style="enable-background:new 0 0 149.5 104.2;" xml:space="preserve">
<style type="text/css">
	.st0{fill:#09CC6A;}
	.st1{fill:#016272;}
</style>
<rect x="10" y="34.2" class="st0" width="84" height="70"/>
<path class="st0" d="M73,9.2V29c1.7-0.1,3.4,0.2,4.9,1c0.3-0.1,0.7-0.2,1.1-0.2h0c1.2-0.2,2.6-0.2,4.2,0.1c0.5,0.1,0.8,0.3,1.2,0.5
	c0-0.1,0-0.1,0-0.2c0.9-3.5,5.3-2.9,6.5,0c0,0.1,0,0.1,0.1,0.2c0.8,0.5,1.4,1.4,1.4,2.7v5.3c0,0.7-0.2,1.3-0.6,1.9
	c0.1,5.5,0.2,11-0.7,16.4c0.1,2.3,0.2,4.7,0,7c0,0.5-0.1,0.9-0.3,1.3H146v-56H73z"/>
<g>
	<path class="st1" d="M15.2,88.7H76v-5.1H17.7V38h-5.1v48.2C12.7,87.6,13.8,88.7,15.2,88.7z"/>
	<rect x="22.8" y="68.4" class="st1" width="5.1" height="10.1"/>
	<rect x="32.9" y="65.9" class="st1" width="5.1" height="12.7"/>
	<rect x="43.1" y="60.8" class="st1" width="5.1" height="17.7"/>
	<rect x="53.2" y="55.8" class="st1" width="5.1" height="22.8"/>
	<rect x="63.4" y="48.2" class="st1" width="5.1" height="30.4"/>
	<path class="st1" d="M55.8,48.2h5.1V38c0-1.4-1.1-2.5-2.5-2.5H48.2v5.1h3.6c-8.2,6.6-18.4,10.2-28.9,10.1v5.1
		c12,0,23.7-4.2,32.9-11.9V48.2z"/>
	<rect x="76" y="78.6" class="st1" width="5.1" height="5.1"/>
	<path class="st1" d="M147,0H65.9c-1.4,0-2.5,1.1-2.5,2.5v22.8H2.5c-1.4,0-2.5,1.1-2.5,2.5v71c0,1.4,1.1,2.5,2.5,2.5h91.2
		c1.4,0,2.5-1.1,2.5-2.5V65.9H147c1.4,0,2.5-1.1,2.5-2.5V2.5C149.5,1.1,148.4,0,147,0z M91.2,96.3H5.1V30.4h86.2V96.3z M144.5,60.8
		H96.3v-5.1h38v-5.1h-38V27.9c0-1.4-1.1-2.5-2.5-2.5H78.6V10.1h-5.1v15.2h-5.1V5.1h76V60.8z"/>
	<rect x="134.3" y="45.6" class="st1" width="5.1" height="5.1"/>
	<rect x="121.7" y="38" class="st1" width="5.1" height="7.6"/>
	<rect x="111.5" y="35.5" class="st1" width="5.1" height="10.1"/>
	<rect x="101.4" y="30.4" class="st1" width="5.1" height="15.2"/>
	<path class="st1" d="M104.9,25.2l11.1-4.5l4.6,4.6h-4v5.1h10.1c1.4,0,2.5-1.1,2.5-2.5V17.7h-5.1v4l-5.8-5.8
		c-0.7-0.7-1.8-0.9-2.7-0.6L104.1,20l-11.6-7l-2.6,4.3l12.7,7.6C103.3,25.4,104.1,25.5,104.9,25.2z"/>
</g>
</svg>
