<?xml version="1.0" encoding="utf-8"?>
<!-- Generator: Adobe Illustrator 21.0.0, SVG Export Plug-In . SVG Version: 6.00 Build 0)  -->
<svg version="1.1" id="Layer_1" xmlns="http://www.w3.org/2000/svg" xmlns:xlink="http://www.w3.org/1999/xlink" x="0px" y="0px"
	 viewBox="28.4 310.2 743.2 459.6" style="enable-background:new 28.4 310.2 743.2 459.6;" xml:space="preserve">
<style type="text/css">
	.st0000{fill:#EAB82A;}
</style>
<g>
	<path class="st0000" d="M302.3,625c2.5,1.8,5.5,2.8,8.5,2.8c2.1,0,4.3-0.5,6.3-1.5c25.5-12.5,52.7-26.8,83-43.5
		c30.4,16.8,57.6,31,83,43.5c4.8,2.3,10.5,1.8,14.7-1.4c4.3-3.2,6.4-8.5,5.5-13.7c-5.1-30.8-10.5-63.2-15.9-96.2
		c25.2-26,46.5-47.4,66.7-67c3.8-3.7,5.2-9.3,3.7-14.4c-1.6-5.1-5.9-8.9-11.2-9.8c-30.2-5.2-61.4-10.6-92.3-15.8
		c-6.1-13.2-12.2-26.4-18.3-39.6c-7.7-16.6-15.4-33.3-23.1-50c-2.3-5-7.4-8.2-12.9-8.2l0,0c-5.5,0-10.6,3.2-12.9,8.2
		c-7.8,16.9-15.7,33.8-23.5,50.7c-6,13-12,25.9-18,38.9c-30.1,5-60.6,10.3-90.1,15.4l-2.2,0.4c-5.3,0.9-9.6,4.7-11.2,9.8
		c-1.6,5.1-0.2,10.7,3.7,14.4c20.2,19.6,41.6,41,66.7,67c-5.3,32.2-10.6,64.6-15.9,96.2C295.9,616.5,298,621.8,302.3,625z
		 M285.5,447.1c23.9-4.1,48.2-8.3,72.2-12.2c4.6-0.8,8.6-3.8,10.6-8c7.1-15.2,14.1-30.5,21.2-45.7c3.5-7.6,7-15.3,10.6-22.9
		c3.4,7.4,6.8,14.8,10.2,22.1c7.2,15.5,14.3,31,21.5,46.5c2,4.3,5.9,7.3,10.6,8c24,4,48.2,8.1,72.2,12.2
		c-16,15.9-33.1,33.3-52.5,53.3c-3.1,3.2-4.5,7.7-3.8,12.2c4.2,25.8,8.4,51.1,12.5,75.7c-19.8-10.1-40.8-21.4-63.8-34.1
		c-2.1-1.2-4.5-1.8-6.9-1.8c-2.4,0-4.8,0.6-6.9,1.8c-22.9,12.7-43.9,24-63.7,34.1c4.2-25.1,8.3-50.5,12.5-75.7
		c0.7-4.4-0.7-8.9-3.8-12.2C318.6,480.4,301.5,463,285.5,447.1z"/>
	<path class="st0000" d="M38.6,654.5c23.8,6.9,49,14.8,79,24.6c9,27,18.1,53.9,27,80.9c1.7,5.1,6.1,8.7,11.3,9.6
		c0.7,0.1,1.5,0.2,2.2,0.2c4.5,0,8.8-2.2,11.5-5.9c14.6-20.1,29.9-42.3,46.5-67.5c12.9,0.2,24.9,0.3,36.5,0.3
		c16,0,30.9-0.2,45.5-0.6c5.3-0.2,10.1-3.3,12.4-8.1c2.3-4.8,1.7-10.5-1.5-14.7c-17.2-22.6-34.4-45.3-51.6-68
		c8.9-30.4,16.6-55.7,24.2-79.1c1.7-5.1,0.3-10.7-3.5-14.5c-3.8-3.8-9.4-5.1-14.4-3.5c-25.4,8.3-51.6,16.8-77.8,25.5
		c-9.9-7.6-19.8-15.1-29.8-22.7c-13-9.9-26-19.8-38.9-29.7c-4.4-3.4-10.4-3.8-15.2-1.3c-4.9,2.6-7.8,7.8-7.6,13.3
		c0.8,16.4,1.7,32.7,2.6,49.1c0.7,12.4,1.3,24.8,2,37.2c-21.5,16.4-43.2,33.2-64.3,49.4l-0.6,0.5c-4.2,3.3-6.3,8.6-5.3,13.9
		C29.6,648.8,33.5,653,38.6,654.5z M122,597.8c3.7-2.8,5.8-7.4,5.6-12c-0.8-14.9-1.6-29.8-2.3-44.7c-0.3-6.1-0.6-12.3-1-18.4
		c4.8,3.7,9.7,7.4,14.5,11.1c11.9,9.1,23.8,18.2,35.8,27.3c3.7,2.8,8.6,3.7,13.1,2.2c19.5-6.5,39.1-12.9,58.4-19.2
		c-5.7,18.2-11.6,37.9-18.1,60.3c-1.2,4.3-0.4,9,2.3,12.5c13,17.2,26,34.3,39,51.4c-5.5,0-11.1,0.1-16.8,0.1
		c-13.8,0-28.1-0.2-43.8-0.5c-4.9-0.1-9.5,2.3-12.2,6.4c-11.9,18.3-23.1,34.9-33.8,50.3c-6.8-20.4-13.6-40.8-20.5-61.2
		c-1.4-4.3-4.8-7.6-9-9c-22.2-7.3-41.8-13.5-60-19.1C89.4,622.8,105.8,610.2,122,597.8z"/>
	<path class="st0000" d="M521.9,511.8c-3.8,3.8-5.1,9.4-3.5,14.5c7.6,23.4,15.4,48.7,24.2,79.1c-17.2,22.7-34.4,45.3-51.6,68
		c-3.2,4.2-3.8,9.9-1.5,14.7c2.3,4.8,7.1,7.9,12.4,8.1c14.6,0.4,29.5,0.6,45.5,0.6c11.6,0,23.6-0.1,36.5-0.3
		c16.6,25.2,31.8,47.4,46.4,67.5c2.7,3.7,7,5.9,11.5,5.9c0.7,0,1.4-0.1,2.2-0.2c5.3-0.8,9.6-4.5,11.3-9.5c9-27,18-54,27-80.9
		c30-9.8,55.2-17.6,79-24.6c5.1-1.5,9-5.7,10-11c1-5.2-1-10.6-5.3-13.9l-1.2-0.9c-20.9-16.1-42.4-32.7-63.8-49
		c0.7-12.7,1.3-25.4,2-38c0.9-16.1,1.7-32.2,2.5-48.3c0.3-5.5-2.7-10.7-7.6-13.3c-4.9-2.6-10.8-2.1-15.2,1.3
		c-12.8,9.7-25.5,19.4-38.3,29.2c-10.2,7.7-20.3,15.5-30.5,23.2c-26-8.6-52.3-17.2-77.8-25.5C531.3,506.7,525.7,508,521.9,511.8z
		 M612.3,563.1c4.5,1.5,9.4,0.7,13.1-2.2c12.2-9.2,24.3-18.5,36.4-27.8c4.6-3.5,9.2-7,13.9-10.6c-0.3,5.9-0.6,11.7-0.9,17.6
		c-0.8,15.2-1.6,30.4-2.4,45.5c-0.2,4.7,1.8,9.2,5.6,12c16.2,12.4,32.6,25,48.8,37.4c-18.3,5.6-37.9,11.8-60,19.1
		c-4.3,1.4-7.6,4.7-9,9c-6.8,20.4-13.7,40.8-20.5,61.2c-10.7-15.4-21.9-32-33.8-50.3c-2.6-4-7.1-6.4-11.9-6.4c-0.1,0-0.2,0-0.3,0
		c-15.7,0.3-30,0.5-43.8,0.5c-5.8,0-11.4,0-16.8-0.1c13-17.1,26-34.3,39-51.4c2.7-3.6,3.6-8.2,2.3-12.5
		c-6.5-22.4-12.4-42.2-18.1-60.3C573.3,550.2,592.9,556.7,612.3,563.1z"/>
</g>
</svg>
