<?xml version="1.0" encoding="utf-8"?>
<!-- Generator: Adobe Illustrator 21.1.0, SVG Export Plug-In . SVG Version: 6.00 Build 0)  -->
<svg version="1.1" id="Camada_1" xmlns="http://www.w3.org/2000/svg" xmlns:xlink="http://www.w3.org/1999/xlink" x="0px" y="0px"
	 viewBox="0 0 100 125" style="enable-background:new 0 0 100 125;" xml:space="preserve">
<style type="text/css">
	.st0{fill:#A1A0AE;}
</style>
<title>Artboard 1 Copy 12</title>
<desc>Created with Sketch.</desc>
<g>
	<g>
		<path class="st0" d="M11,74V40.3l34.5,19.5c1.3,0.7,2.9,1.1,4.5,1.1s3.2-0.4,4.5-1.1L89,40.3V74H11z M89,26v10
			c-0.3,0-0.7,0.1-1,0.2l-35.5,20c-1.3,0.7-3.7,0.7-5,0L12,36.3c-0.3-0.2-0.6-0.2-1-0.2V26H89z M89,22H11c-2.2,0-4,1.8-4,4v48
			c0,2.2,1.8,4,4,4h78c2.2,0,4-1.8,4-4V26C93,23.8,91.2,22,89,22L89,22z"/>
	</g>
</g>
</svg>
