<?xml version="1.0" encoding="utf-8"?>
<!-- Generator: Adobe Illustrator 21.1.0, SVG Export Plug-In . SVG Version: 6.00 Build 0)  -->
<svg version="1.1" id="Camada_1" xmlns="http://www.w3.org/2000/svg" xmlns:xlink="http://www.w3.org/1999/xlink" x="0px" y="0px"
	 viewBox="0 0 100 125" style="enable-background:new 0 0 100 125;" xml:space="preserve">
<style type="text/css">
	.st0{fill:#7F8FA4;}
</style>
<title>photo</title>
<g id="rNnWUj.tif">
	<g>
		<path class="st0" d="M98.3,39.2c0,17.3,0,34.6,0,51.8c-2.2,5.3-4.3,6.8-10.1,6.8c-25.7,0-51.4,0-77.1,0c-5.8,0-9.3-3.5-9.3-9.2
			c0-15.7,0.1-31.4-0.1-47c0-5,3.5-9.4,9.3-9.3c3.5,0,7,0,10.4,0c2.1,0,2.7-0.4,3.3-2.4c0.8-2.6,1.5-5.3,2.3-8
			c1.3-4.5,4.6-6.9,9.2-6.9c9.1,0,18.2,0,27.4,0c4.7,0,8,2.4,9.3,6.9c0.8,2.7,1.5,5.4,2.3,8.1c0.6,1.9,1.5,2.5,3.4,2.5
			c3.6,0,7.3,0,10.9,0c2.3,0,4.3,0.7,6,2.3C97,35.9,97.6,37.6,98.3,39.2z M50.1,91.8c13,0,26.1,0,39.1,0c2.3,0,3.1-0.8,3.1-3.1
			c0-15.7,0-31.4,0-47c0-2.2-0.9-3.1-3.1-3.1c-3.6,0-7.1,0-10.7,0c-4.5,0-7.8-2.5-9.1-6.9c-0.8-2.6-1.5-5.2-2.3-7.8
			c-0.6-2.1-1.6-2.8-3.7-2.8c-9,0-18.1,0-27.1,0c-2.1,0-3,0.7-3.5,2.7c-0.8,2.8-1.6,5.5-2.4,8.3c-1.2,4-4.3,6.3-8.4,6.3
			c-3.6,0-7.1,0-10.7,0c-2.6,0-3.5,0.8-3.5,3.4c0,15.5,0,31,0,46.6c0,2.8,0.7,3.5,3.5,3.5C24.2,91.8,37.1,91.8,50.1,91.8z"/>
		<path class="st0" d="M50.2,85.6c-13.2,0-23.9-10.6-23.9-23.8C26.3,48.7,37,38,50.1,38c13.2,0,24,10.8,23.9,23.9
			C74,75,63.3,85.6,50.2,85.6z M50.1,79.5C60,79.5,68,71.6,68,61.7C68,52,60,44,50.2,44c-9.9,0-17.9,7.9-17.9,17.7
			C32.3,71.6,40.2,79.5,50.1,79.5z"/>
	</g>
</g>
</svg>
