<?xml version="1.0" encoding="utf-8"?>
<!-- Generator: Adobe Illustrator 21.0.0, SVG Export Plug-In . SVG Version: 6.00 Build 0)  -->
<svg version="1.1" id="Layer_1" xmlns="http://www.w3.org/2000/svg" xmlns:xlink="http://www.w3.org/1999/xlink" x="0px" y="0px"
	 viewBox="0 0 103.1 103.1" style="enable-background:new 0 0 103.1 103.1;" xml:space="preserve">
<style type="text/css">
	.st0{fill:#09CC6A;}
	.st1{fill:#016272;}
</style>
<path class="st0" d="M59.7,71.9c-0.8,0-1.5,0-2.3,0c-1.5,0-2.3-1.1-2.4-2.2c-0.2,0-0.3-0.1-0.5-0.1c-2.1-0.5-2.5-3.6-0.6-4.6
	c7.9-4,15.9-3.3,24.2-3.2V4.8h-66v81.5h66V73.7C71.9,75.2,65.1,75.4,59.7,71.9z"/>
<g>
	<path class="st1" d="M94.8,59.8h-5V10h-6.7V0H6.6v10H0v86.4h36.7c0.8,3.8,4.1,6.6,8.1,6.6c4,0,7.4-2.9,8.1-6.6h36.7V76.5h5
		c4.6,0,8.3-3.7,8.3-8.3C103.1,63.6,99.3,59.8,94.8,59.8z M89.8,66.5h-6.7v3.3h6.7v3.3H63.2v-3.3h16.6v-3.3H63.2v-3.3h26.6V66.5z
		 M59.8,72.1l-6.1-3c-0.4-0.2-0.6-0.5-0.6-0.9c0-0.4,0.2-0.7,0.6-0.9l6.1-3V72.1z M83.1,16.6v-3.3h3.3v46.5h-3.3V19.9h-3.3v39.9
		H61.1l-8.8,4.4c-1.5,0.7-2.4,2.2-2.4,3.9c0,1.7,0.9,3.2,2.4,3.9l8.8,4.4h18.7v10H46.5V3.3h33.2v13.3H83.1z M10,3.3h33.2v83.1H10
		V3.3z M86.4,93.1H49.9v1.7c0,2.8-2.2,5-5,5s-5-2.2-5-5v-1.7H3.3V13.3h3.3v76.5h76.5V76.5h3.3V93.1z M94.8,73.1h-1.7v-10h1.7
		c2.8,0,5,2.2,5,5C99.7,70.9,97.5,73.1,94.8,73.1z"/>
	<rect x="49.9" y="79.8" class="st1" width="26.6" height="3.3"/>
	<path class="st1" d="M26.6,33.2c7.3,0,13.3-6,13.3-13.3c0-7.3-6-13.3-13.3-13.3c-7.3,0-13.3,6-13.3,13.3
		C13.3,27.3,19.3,33.2,26.6,33.2z M26.6,10c5.5,0,10,4.5,10,10c0,5.5-4.5,10-10,10c-5.5,0-10-4.5-10-10C16.6,14.4,21.1,10,26.6,10z"
		/>
	<rect x="19.9" y="36.6" class="st1" width="19.9" height="3.3"/>
	<rect x="13.3" y="43.2" class="st1" width="26.6" height="3.3"/>
	<rect x="13.3" y="49.9" class="st1" width="26.6" height="3.3"/>
	<rect x="13.3" y="56.5" class="st1" width="26.6" height="3.3"/>
	<rect x="49.9" y="29.9" class="st1" width="26.6" height="3.3"/>
	<rect x="49.9" y="36.6" class="st1" width="26.6" height="3.3"/>
	<rect x="49.9" y="43.2" class="st1" width="26.6" height="3.3"/>
	<rect x="49.9" y="49.9" class="st1" width="15" height="3.3"/>
	<rect x="13.3" y="63.2" class="st1" width="26.6" height="3.3"/>
	<rect x="23.3" y="69.8" class="st1" width="16.6" height="3.3"/>
	<rect x="13.3" y="69.8" class="st1" width="6.6" height="3.3"/>
	<rect x="13.3" y="76.5" class="st1" width="26.6" height="3.3"/>
	<path class="st1" d="M49.9,26.6h26.6V6.6H49.9V26.6z M53.2,10h19.9v13.3H53.2V10z"/>
	<rect x="13.3" y="36.6" class="st1" width="3.3" height="3.3"/>
</g>
</svg>
