<?xml version="1.0" encoding="utf-8"?>
<!-- Generator: Adobe Illustrator 21.1.0, SVG Export Plug-In . SVG Version: 6.00 Build 0)  -->
<svg version="1.1" id="Camada_1" xmlns="http://www.w3.org/2000/svg" xmlns:xlink="http://www.w3.org/1999/xlink" x="0px" y="0px"
	 viewBox="0 0 100 125" style="enable-background:new 0 0 100 125;" xml:space="preserve">
<style type="text/css">
	.st0{fill:#A2A2A2;}
</style>
<g>
	<path class="st0" d="M59.5,62.5c-7.6,0-19-11.4-19-19c0-2.8,2.2-5,5-5c0.3,0,0.5,0.1,0.7,0.3l4,4c0.2,0.2,0.3,0.4,0.3,0.7
		c0,1.8-1,3.4-2.5,4.3c1.4,2.8,4.3,5.8,7.2,7.2c0.9-1.5,2.5-2.5,4.3-2.5c0.3,0,0.5,0.1,0.7,0.3l4,4c0.2,0.2,0.3,0.4,0.3,0.7
		C64.5,60.3,62.3,62.5,59.5,62.5z M45.1,40.5c-1.5,0.2-2.6,1.5-2.6,3c0,6.5,10.5,17,17,17c1.5,0,2.8-1.1,3-2.6l-3.4-3.4
		c-1.1,0.1-2.1,0.9-2.4,2c-0.1,0.3-0.3,0.5-0.5,0.6c-0.2,0.1-0.5,0.1-0.8,0c-3.9-1.4-8.2-5.7-9.6-9.6c-0.1-0.3-0.1-0.5,0-0.8
		c0.1-0.2,0.3-0.4,0.6-0.5c1.1-0.4,1.9-1.3,2-2.4L45.1,40.5z"/>
</g>
</svg>
