<?xml version="1.0" encoding="utf-8"?>
<!-- Generator: Adobe Illustrator 23.0.6, SVG Export Plug-In . SVG Version: 6.00 Build 0)  -->
<svg version="1.1" id="Camada_1" xmlns="http://www.w3.org/2000/svg" xmlns:xlink="http://www.w3.org/1999/xlink" x="0px" y="0px"
	 viewBox="0 0 46.6 43.4" style="enable-background:new 0 0 46.6 43.4;" xml:space="preserve">
<style type="text/css">
	.st0{fill:#337CD3;}
	.st1{display:none;}
	.st2{display:inline;fill:#030405;}
</style>
<path class="st0" d="M12.4,29.4c0.6,2.1,1.5,4.4,2.4,6.3c2.5,5,5.4,7.7,8.5,7.7c2.9,0,5.8-2.5,8.2-7.2c1.1-2.1,2-4.5,2.7-6.9
	c3.3-0.2,6-3,6-6.3c0-2.9-2-5.4-4.6-6.1c-1-5.9-6.1-10.3-12.3-10.3S12,11.1,11,16.9c-2.7,0.8-4.6,3.2-4.6,6.1
	C6.4,26.4,9.1,29.2,12.4,29.4z M23.3,40.3c-1.7,0-3.8-2.2-5.7-6c-2.1-4.2-3.3-9.2-3.3-11.7c0-4.4,4-8,9-8c4.3,0,7.9,2.7,8.8,6.3
	c-0.1,3.9-2.3,7.4-5.8,9c-0.6-1-1.7-1.6-2.9-1.6c-1.9,0-3.5,1.6-3.5,3.5s1.6,3.5,3.5,3.5c1.8,0,3.3-1.4,3.4-3.2
	c1.7-0.8,3.2-1.9,4.4-3.3c-0.6,2-1.4,4.2-2.4,6.1C26.9,38.3,25,40.3,23.3,40.3z M24.7,31.7c0,0.8-0.6,1.4-1.4,1.4s-1.4-0.6-1.4-1.4
	c0-0.8,0.6-1.4,1.4-1.4S24.7,31,24.7,31.7z M38.1,23c0,2-1.4,3.7-3.3,4.2c0.4-1.7,0.6-3.3,0.6-4.6c0-1.2-0.2-2.4-0.6-3.6h0.5
	C37,19.6,38.1,21.2,38.1,23z M23.3,8.6c4.8,0,8.8,3.3,10,7.7c-2.2-2.9-5.9-4.9-10-4.9c-4.2,0-7.8,1.9-10,4.9
	C14.5,11.9,18.5,8.6,23.3,8.6z M11.3,19h0.5c-0.4,1.1-0.6,2.3-0.6,3.6c0,1.3,0.2,2.9,0.6,4.6c-1.9-0.4-3.3-2.1-3.3-4.2
	C8.5,21.2,9.7,19.6,11.3,19z"/>
<g class="st1">
	<path class="st2" d="M1.8,11.3L21.1,0.5c1.4-0.7,3-0.7,4.3,0l19.3,10.8c0.3,0.2,0.3,0.6,0,0.8l-8.1,4.1c0-0.9-0.4-1.8-1-2.3
		C32.9,11.6,28.3,9,23.1,9c-4.8,0-9.1,2.4-11.9,4.4C10.4,14,10,14.9,10,15.9v4.3c0,2.9-2.1,5.2-4.6,5.2H4.5v-2.1h0.9
		c1.5,0,2.8-1.4,2.8-3.1v-4.9l-6.4-3.2C1.5,11.9,1.5,11.4,1.8,11.3z M41.5,76.1c-6,1.6-12.1,2.4-18.2,2.4s-12.2-0.8-18.2-2.4l0,0
		c-3.7-1-5.9-5.9-4.8-10.6l0.1-0.3C2.1,58.4,5.8,52.6,10.7,49l0.4-0.3c3.2-2.3,7-2.8,10.8-1.4c1,0.4,2,0.3,3-0.1
		c3.4-1.5,7.3-0.9,10.7,1.5L36,49c4.9,3.6,8.5,9.3,10.2,16.1l0.1,0.2C47.4,70.2,45.2,75.1,41.5,76.1z M43.2,66.3v-0.2
		c-1.6-6.1-4.8-11.2-9-14.4l-0.4-0.3c-2.5-1.8-5.1-2.2-7.5-1.2c-1.8,0.8-3.7,0.9-5.4,0.2c-2-0.7-4.9-1.2-7.8,0.9l-0.4,0.3
		C8.4,54.8,5.1,59.9,3.6,66l-0.1,0.2C2.7,69.4,4.2,72.5,6,73c11.5,3,23.2,3,34.8,0C42.5,72.6,44,69.5,43.2,66.3z M23.3,11.5
		c6.7,0,12.1,5,12.1,11.2c0,3.5-1.7,9.3-3.9,13.6c-2.4,4.7-5.3,7.2-8.2,7.2c-3.1,0-6-2.7-8.5-7.7c-2.1-4.3-3.6-9.8-3.6-13.1
		C11.2,16.5,16.6,11.5,23.3,11.5z M14.3,22.7c0,2.5,1.2,7.5,3.3,11.7c1.8,3.7,4,6,5.7,6c1.6,0,3.6-2,5.4-5.5
		c2.2-4.3,3.6-9.6,3.6-12.2H14.3z"/>
</g>
<g class="st1">
	<path class="st2" d="M23.9,57.3L23.9,57.3c-1.8-1.8-4.8-1.8-6.7,0c-1.8,1.8-1.8,4.8,0,6.7c0.9,0.9,2.1,1.4,3.3,1.4s2.4-0.5,3.3-1.4
		C25.7,62.1,25.7,59.1,23.9,57.3z M22.4,62.5c-1,1-2.7,1-3.7,0s-1-2.7,0-3.7c0.5-0.5,1.2-0.8,1.9-0.8s1.3,0.3,1.8,0.8
		C23.4,59.8,23.4,61.4,22.4,62.5z M30.4,69c0.4,0.4,0.4,1.1,0,1.5c-0.2,0.2-0.5,0.3-0.7,0.3c-0.3,0-0.5-0.1-0.7-0.3L24.5,66
		c-0.4-0.4-0.4-1.1,0-1.5s1.1-0.4,1.5,0L30.4,69z M46.3,65.6l-0.1-0.3c-1.7-6.8-5.4-12.6-10.2-16.1l-0.4-0.3
		c-3.4-2.5-7.3-3-10.7-1.5c-1,0.5-2,0.5-3,0.1c-3.8-1.5-7.6-1-10.8,1.4l-0.4,0.3c-4.9,3.6-8.6,9.4-10.3,16.2l-0.1,0.3
		c-1.1,4.7,1.1,9.6,4.8,10.6l0,0c6,1.6,12.1,2.4,18.2,2.4s12.2-0.8,18.2-2.4C45.2,75.2,47.4,70.3,46.3,65.6z M40.7,73.1
		c-11.6,3-23.3,3-34.8,0c-1.8-0.5-3.3-3.6-2.5-6.8v-0.2C5,60,8.2,54.8,12.5,51.6l0.4-0.3c2.9-2.1,5.8-1.7,7.8-0.9
		c1.7,0.7,3.6,0.6,5.4-0.2c2.4-1.1,5.1-0.6,7.5,1.2l0.4,0.3c4.3,3.2,7.5,8.3,9.1,14.4l0.1,0.2C44,69.5,42.5,72.7,40.7,73.1z
		 M23.3,43.5c2.9,0,5.8-2.5,8.2-7.2c2.2-4.3,3.9-10.2,3.9-13.7c0-6.2-5.4-11.2-12.1-11.2s-12.1,5-12.1,11.2c0,3.3,1.5,8.8,3.6,13.1
		C17.3,40.8,20.2,43.5,23.3,43.5z M23.3,14.6c5,0,9,3.6,9,8c0,2.6-1.3,7.9-3.6,12.2c-1.8,3.5-3.8,5.5-5.4,5.5c-1.7,0-3.8-2.2-5.7-6
		c-2.1-4.2-3.3-9.3-3.3-11.7C14.3,18.2,18.3,14.6,23.3,14.6z"/>
</g>
</svg>
