<?xml version="1.0" encoding="utf-8"?>
<!-- Generator: Adobe Illustrator 21.1.0, SVG Export Plug-In . SVG Version: 6.00 Build 0)  -->
<svg version="1.1" id="Camada_1" xmlns="http://www.w3.org/2000/svg" xmlns:xlink="http://www.w3.org/1999/xlink" x="0px" y="0px"
	 viewBox="0 0 413 338" style="enable-background:new 0 0 413 338;" xml:space="preserve">
<style type="text/css">
	.st0{fill:#7F8FA4;}
</style>
<g id="xSB56t.tif">
	<g>
		<path class="st0" d="M183.2,1.9c1.4,1.4,2.9,3.2,4.3,4.7c60.5,60.5,121,121,181.6,181.9c6.1,6.1,6.1,6.1,0,12.2
			c-11.8,12.2-24,24.4-35.8,36.5c-4.3,4.3-4.3,4.3-9,0.7c-12.9-10.4-30.8-9.3-41.9,2.1c-10,10-10.7,27.2-1.8,39
			c4.7,6.4,4.7,6.4-0.7,11.8c-14.3,14.3-28.7,28.7-42.6,43c-2.9,3.2-4.7,3.2-7.9,0c-61.2-62-122.8-123.6-184.4-184.8
			c-1.4-1.4-3.2-2.9-4.7-4.3c0-0.4,0-0.7,0-0.7c15.8-15.8,31.5-31.5,47.3-47.3c4.7-4.7,3.6-5.7,10.4-0.7
			c17.2,13.3,41.9,5.7,47.6-14.7c2.9-10.4,1.1-20.1-6.1-28.7c-2.9-3.2-3.2-5.4,0.4-8.6c3.6-2.9,6.4-6.4,9.7-9.7
			c10.4-10.7,21.8-20.8,31.5-32.6C181.7,1.9,182.4,1.9,183.2,1.9z M112.6,194.6c1.1,1.4,2.5,2.9,3.6,4.3
			c11.1,11.5,22.9,22.9,34,34.4c26.5,26.9,53.4,53.4,79.9,79.9c2.1,2.1,3.6,2.1,5.7,0c7.9-7.9,15.4-16.1,23.6-23.6
			c4.3-3.9,5.4-7.2,2.9-13.3c-7.5-18.6-1.8-40.5,14.3-52.3c14.3-10.7,30.4-11.8,46.9-4.7c3.2,1.4,5,1.1,7.5-1.4
			c6.1-6.4,12.5-12.9,19-19c3.2-2.9,3.2-4.7,0-7.9c-37.6-37.6-75.6-75.2-113.2-112.8c-0.7-0.7-1.4-1.1-1.8-1.8
			c-1.4-1.8-2.5-1.4-4.3,0c-4.3,3.9-4.3,3.9-8.6,0c-1.1-1.1-1.8-1.8-2.9-2.9c-3.2-2.5-2.9-4.7,0-6.8c2.5-1.8,2.5-3.6,0-5.7
			c-11.8-11.5-23.3-23.3-34.7-35.1c-2.1-2.1-3.6-2.1-5.7,0c-6.1,6.1-11.8,12.5-18.3,18.3c-3.9,3.6-4.7,6.4-2.5,11.8
			c8.6,20.8,1.1,44-17.5,55.2c-14,8.6-29,9.3-44,2.1c-2.5-1.1-4.3-1.1-6.4,1.1c-9,9-17.9,17.9-26.9,26.9c-2.1,2.1-2.1,3.6,0,5.7
			c6.1,5.7,11.8,11.8,17.9,17.9c6.8,6.8,14,13.6,20.8,20.4C106.2,188.5,109,191.7,112.6,194.6z"/>
		<path class="st0" d="M103.3,184.9c2.5-5.7,7.5-9,11.8-12.9c2.1-1.8,3.6,1.1,4.7,2.1c1.8,2.5,7.5,4.3,5.4,7.5
			c-2.9,4.7-7.2,9-12.2,12.5C109,191.7,106.2,188.5,103.3,184.9z"/>
		<path class="st0" d="M235.1,217.8c-0.4,0.7-0.7,1.4-1.4,1.8c-2.1,2.1-3.9,3.9-6.1,6.1c-1.8,2.1-3.2,1.4-5-0.4
			c-16.1-16.1-32.2-32.2-48.7-48.7c-1.8-1.8-2.1-3.2,0-5.4c10.4-9.7,6.4-9.3,15.8-0.4c14.3,14,28.3,28.3,42.6,42.6
			C233.3,215,234.7,216.1,235.1,217.8z"/>
		<path class="st0" d="M244.4,208.5c-1.4,0-2.1-1.1-3.2-1.8c-16.1-16.5-32.2-32.9-48.3-49.1c-1.8-1.8-1.8-3.2,0-5
			c10-9.7,6.4-9.3,15.8-0.4c14,14,27.9,27.9,41.9,41.9c4.3,4.3,4.3,4.3,0,8.6c-1.4,1.4-2.9,2.9-4.3,4.3
			C245.8,207.8,244.7,208.2,244.4,208.5z"/>
		<path class="st0" d="M219.7,126.9c1.4,0,2.1,1.1,2.9,1.8c16.1,16.1,32.2,32.2,48.3,48.3c2.1,2.1,2.1,3.6,0,5.7
			c-7.5,7.9-7.5,7.9-15.4,0.4c-13.6-13.6-27.2-27.2-40.8-40.8c-6.1-6.1-6.1-4.7,0-11.1C216.5,129.4,217.9,127.6,219.7,126.9z"/>
		<path class="st0" d="M163.5,144.1c-0.4,0.7-0.7,1.4-1.4,2.1c-2.9,2.9-5.7,5.7-8.6,8.6c-1.8,1.8-3.2,1.4-4.7,0
			c-10-10.4-9.7-6.8-0.4-16.1c6.1-6.1,4.7-6.1,11.1,0C163.5,142.6,163.5,142.6,163.5,144.1z"/>
		<path class="st0" d="M188.9,117.6c-1.8-0.4-2.5-1.8-3.9-3.2c-6.4-6.4-6.4-6.4,0-12.9c7.9-7.5,5.4-7.9,14,0.4
			c2.9,2.9,2.9,4.7,0,7.2c-2.5,2.1-4.7,4.7-7.2,6.8C190.7,116.5,190.3,117.6,188.9,117.6z"/>
	</g>
</g>
</svg>
