<?xml version="1.0" encoding="utf-8"?>
<!-- Generator: Adobe Illustrator 21.0.0, SVG Export Plug-In . SVG Version: 6.00 Build 0)  -->
<svg version="1.1" id="Layer_1" xmlns="http://www.w3.org/2000/svg" xmlns:xlink="http://www.w3.org/1999/xlink" x="0px" y="0px"
	 viewBox="0 0 131 103" style="enable-background:new 0 0 131 103;" xml:space="preserve">
<style type="text/css">
	.ust0{fill:#0BAF59;}
	.ust1{fill:#09CC6A;}
	.uust2{fill:#016272;}
</style>
<path class="ust0" d="M114.9,62.5c3.5-5.5,5.6-12.1,5.6-19.1c0-19.8-16.1-35.9-35.9-35.9C70.2,7.4,57.8,15.8,52,28
	c7.1,0.3,14.6,5.1,19.1,10.3c6.6,7.5,8,16.7,7.3,26c0.1,0.5,0.2,1,0.2,1.6c0,2.5-0.5,4.9-1.2,7c-0.4,1.8-0.7,3.7-1.1,5.5
	c2.6,0.6,5.4,1,8.2,1c5.8,0,11.2-1.4,16.1-3.8c7,5.5,17.3,5,23.8-1.4c0.4-0.4,0.7-0.7,1-1.1L114.9,62.5z"/>
<path class="ust1" d="M46.4,31.1c-19.8,0-35.9,16.1-35.9,35.9c0,7,2.1,13.6,5.6,19.1L5.6,96.6c0.3,0.4,0.6,0.8,1,1.1
	c6.5,6.5,16.7,7,23.8,1.4c4.8,2.4,10.3,3.8,16.1,3.8c19.8,0,35.9-16.1,35.9-35.9C82.3,47.2,66.3,31.1,46.4,31.1z"/>
<g>
	<path class="uust2" d="M120.3,57.1c3.3-5.8,5-12.2,5-18.9C125.3,17.2,108.1,0,87,0C69.7,0,55.1,11.5,50.4,27.2
		c1.5,0.3,2.9,0.7,4.3,1.2C58.9,14.5,71.8,4.4,87,4.4c18.7,0,33.8,15.2,33.8,33.8c0,6.4-1.8,12.6-5.2,18l-0.9,1.5L124.8,68
		c-2.9,2.7-6.7,4.1-10.6,4.1l0,0c-3.5,0-7-1.2-9.7-3.4l-1.1-0.9l-1.3,0.6c-4.8,2.4-9.8,3.6-15.1,3.6c-3,0-6-0.4-8.8-1.2
		c0.1,0.3,0,0.7-0.1,1c-0.5,1.1-1,2.1-1.4,3.2c3.3,0.9,6.7,1.4,10.3,1.4c5.5,0,10.8-1.2,15.9-3.5c3.3,2.2,7.3,3.5,11.3,3.5
		c0,0,0,0,0,0c5.4,0,10.5-2.1,14.3-5.9c0.4-0.4,0.8-0.9,1.1-1.3l1.3-1.6L120.3,57.1z"/>
	<path class="uust2" d="M44,100.1c-5.5,0-10.8-1.2-15.9-3.5c-3.3,2.2-7.3,3.5-11.3,3.5c-5.4,0-10.5-2.1-14.3-5.9
		c-0.4-0.4-0.8-0.9-1.1-1.2L0,91.3l10.7-10.7c-3.3-5.8-5-12.2-5-18.9c0-21.1,17.2-38.3,38.3-38.3c21.1,0,38.3,17.2,38.3,38.3
		C82.3,82.9,65.1,100.1,44,100.1z M27.6,91.4l1.3,0.6c4.8,2.4,9.8,3.6,15.1,3.6c18.7,0,33.8-15.2,33.8-33.8
		c0-18.7-15.2-33.8-33.8-33.8c-18.7,0-33.8,15.2-33.8,33.8c0,6.4,1.8,12.6,5.2,18l0.9,1.5L6.1,91.5c2.9,2.7,6.7,4.1,10.6,4.1
		c3.5,0,7-1.2,9.7-3.4L27.6,91.4z"/>
	<g>
		<circle class="uust2" cx="28" cy="63.2" r="4.2"/>
		<circle class="uust2" cx="44" cy="63.2" r="4.2"/>
		<circle class="uust2" cx="60" cy="63.2" r="4.2"/>
	</g>
	<g>
		<circle class="uust2" cx="73.2" cy="38.3" r="3.3"/>
		<circle class="uust2" cx="85.9" cy="38.3" r="3.3"/>
		<circle class="uust2" cx="98.6" cy="38.3" r="3.3"/>
	</g>
</g>
</svg>
