<?xml version="1.0" encoding="utf-8"?>
<!-- Generator: Adobe Illustrator 21.1.0, SVG Export Plug-In . SVG Version: 6.00 Build 0)  -->
<svg version="1.1" id="Camada_1" xmlns="http://www.w3.org/2000/svg" xmlns:xlink="http://www.w3.org/1999/xlink" x="0px" y="0px"
	 viewBox="0 0 413 338" style="enable-background:new 0 0 413 338;" xml:space="preserve">
<style type="text/css">
	.st0{fill:#3F3552;}
</style>
<g id="VWrgU4.tif">
	<g>
		<path class="st0" d="M4,286.4c0-88.5,0-177,0-265.5c85.2,0,170.4,0,255.5-0.1c5,0,6.4,1.2,6.3,6.3c-0.3,17.4,0.1,34.7-0.2,52.1
			c-0.1,5,1.6,6,6.2,5.9c27.2-0.2,54.5,0,81.7-0.2c4.2,0,6.3,1.2,8.2,5.1c14.4,30.2,29,60.3,43.7,90.4c0.9,1.9,1.1,4.3,3.5,5.3
			c0,33.5,0,67.1,0,100.6c-10.9-1.4-21.8-0.2-32.6-0.7c-3.6-0.2-5.2,1-6.5,4.6c-7.6,20.6-26,33.5-47.2,33.6
			c-21.5,0.1-40.2-12.7-47.9-33.4c-1.4-3.8-3.2-4.8-7-4.8c-38,0.1-76,0.1-113.9,0c-3.8,0-5.6,1.1-6.9,4.8
			c-4.2,12.1-12.3,21.3-23.6,27.3c-27.2,14.6-60.3,2.1-71.7-26.8c-0.9-2.3-0.9-5.3-4.7-5.2C32.6,286.2,18.3,285.1,4,286.4z
			 M240.5,57.2c-1.8,1-2.6,1.4-3.4,1.9C169,103.6,100.9,148.1,32.8,192.6c-2.8,1.8-3.5,3.8-3.5,6.9c0.1,15.6,0.1,31.1,0.1,46.7
			c0,14.8,0,14.6,14.7,14.8c4.3,0.1,6.2-1.2,7.7-5.3c7.5-20.1,26.6-33,47.8-32.8c21.4,0.2,40,13,47.4,33.4c1.3,3.7,3,4.8,6.8,4.8
			c26.9-0.2,53.7-0.2,80.6,0c5.1,0,6.3-1.5,6.3-6.4c-0.2-53.5-0.1-107-0.1-160.6C240.5,82.1,240.5,70.2,240.5,57.2z M265.8,185.6
			c0,23.4,0,46.8,0,70.3c0,4.6,2.5,6.5,6.1,4.9c2.2-1,2.1-3.3,2.7-5.1c9.6-24.8,36.1-38.3,61.6-30.8c16.6,4.9,28,15.8,33.7,32.1
			c2.3,6.7,7.2,3.6,11,3.8c4.3,0.2,2.5-3.9,2.5-6c0.2-19,0.1-38,0.1-56.9c0-2.6-0.2-5.1-1.4-7.6c-12.4-25.4-24.7-50.7-36.9-76.2
			c-1.4-2.9-3.1-4.1-6.4-4.1c-22.6,0.1-45.2,0.2-67.8,0c-4.4,0-5.3,1.5-5.3,5.6C265.9,138.8,265.8,162.2,265.8,185.6z M29.3,165
			C90,125.2,149.5,86.3,209,47.3c-23.1-1.2-45.7-1.2-68.3-1.2c-1.9,0-3.5,0.8-5,1.8C101.3,70.1,67,92.4,32.6,114.6
			c-1.9,1.3-3.3,2.5-3.3,5.2C29.4,134.3,29.3,148.8,29.3,165z M322.2,298.8c14.1,0,25.4-11.1,25.7-25.2
			c0.2-14.1-11.5-25.9-25.7-25.9c-13.9,0-25.6,11.5-25.7,25.3C296.2,287.1,307.9,298.8,322.2,298.8z M99.3,298.8
			c14.3-0.1,25.9-11.8,25.6-25.8c-0.3-13.9-11.9-25.2-25.8-25.2c-13.8,0-25.5,11.5-25.7,25.3C73.3,287.1,85.1,298.8,99.3,298.8z
			 M90.2,47.5c-0.1-0.5-0.2-0.9-0.4-1.4c-16.7,0-33.4,0-50.1,0c-10.5,0-10.5,0-10.5,10.4c0,9.7,0,19.4,0,30.2
			C50.4,73.2,70.3,60.3,90.2,47.5z"/>
	</g>
</g>
</svg>
