<svg xmlns="http://www.w3.org/2000/svg" width="47.194" height="42.892" viewBox="0 0 47.194 42.892">
    <defs>
        <style>
            .cls-1{fill:#fff}
        </style>
    </defs>
    <path id="icone_shop" d="M47.194 3.262A3.258 3.258 0 0 0 43.932 0H3.262A3.258 3.258 0 0 0 0 3.262v7.7a5.82 5.82 0 0 0 10.272 3.4 5.779 5.779 0 0 0 8.884 0 5.779 5.779 0 0 0 8.884 0 5.779 5.779 0 0 0 8.884 0 5.782 5.782 0 0 0 4.442 2.082 5.865 5.865 0 0 0 5.83-5.83V3.262zm-5.83 10.41a3.081 3.081 0 0 1-3.054-3.054V6.663a1.388 1.388 0 0 0-2.776 0v3.956a3.054 3.054 0 1 1-6.107 0V6.663a1.388 1.388 0 1 0-2.776 0v3.956a3.054 3.054 0 0 1-6.107 0V6.663a1.388 1.388 0 1 0-2.776 0v3.956a3.054 3.054 0 1 1-6.107 0V6.663a1.388 1.388 0 1 0-2.776 0v3.956a3.054 3.054 0 1 1-6.107 0V3.262a.474.474 0 0 1 .486-.486h40.67a.474.474 0 0 1 .486.486v7.287a3.1 3.1 0 0 1-3.056 3.123zM28.039 41.5V24.569h-8.884V41.5a1.392 1.392 0 0 1-1.388 1.388H5.136A1.392 1.392 0 0 1 3.748 41.5V18.6a1.388 1.388 0 1 1 2.776 0v21.515h9.925V23.181a1.423 1.423 0 0 1 1.388-1.388H29.5a1.392 1.392 0 0 1 1.388 1.388v16.934h9.925V18.392a1.388 1.388 0 1 1 2.776 0V41.5a1.392 1.392 0 0 1-1.389 1.391H29.427a1.37 1.37 0 0 1-.972-.416 1.26 1.26 0 0 1-.416-.975z" class="cls-1"/>
</svg>
