<?xml version="1.0" encoding="utf-8"?>
<!-- Generator: Adobe Illustrator 21.0.0, SVG Export Plug-In . SVG Version: 6.00 Build 0)  -->
<svg version="1.1" id="Layer_1" xmlns="http://www.w3.org/2000/svg" xmlns:xlink="http://www.w3.org/1999/xlink" x="0px" y="0px"
	 viewBox="0 0 96 97.7" style="enable-background:new 0 0 96 97.7;" xml:space="preserve">
<style type="text/css">
	.xst0{fill:#09CC6A;}
	.xst1{fill:#016272;}
	.xst2{fill:none;stroke:#016272;stroke-width:7;stroke-miterlimit:10;}
</style>
<circle class="xst0" cx="51.2" cy="52.9" r="44.8"/>
<path class="xst1" d="M46.3,92.7c-12.1,0-23.5-4.6-32.2-13C5.4,71.2,0.4,59.9,0,47.8C-0.8,22.3,19.3,0.8,44.9,0
	c12.7-0.4,24.6,4.3,33.7,13c8.7,8.4,13.7,19.7,14.1,31.8c0.8,25.5-19.3,47-44.9,47.8C47.3,92.7,46.8,92.7,46.3,92.7z M46.4,4.4
	c-0.4,0-0.9,0-1.4,0C21.9,5.2,3.7,24.6,4.5,47.7C5.2,70.9,24.3,89,47.7,88.2C70.8,87.5,89,68.1,88.2,45C87.5,22.3,69.1,4.4,46.4,4.4
	z"/>
<path class="xst1" d="M46.3,81c-18.8,0-34-14.7-34.6-33.5c-0.3-9.2,3-18,9.4-24.8c6.3-6.7,14.9-10.6,24.1-10.9
	c19.3-0.6,35.1,14.3,35.7,33.5c0.6,19.1-14.4,35.1-33.5,35.7C47.1,81,46.7,81,46.3,81z M46.4,16.2c-0.3,0-0.7,0-1,0
	c-8.1,0.3-15.5,3.6-21,9.5c-5.5,5.9-8.4,13.5-8.2,21.6C16.7,64,30.5,77,47.3,76.5C63.9,76,77,62,76.5,45.4
	C76,29,62.7,16.2,46.4,16.2z"/>
<line class="xst2" x1="84.2" y1="23.7" x2="74.3" y2="30"/>
<line class="xst2" x1="18.1" y1="30.5" x2="8.3" y2="24"/>
<g>
	<path class="xst1" d="M40.2,36.5c3.2,0,5.5,1.4,5.5,5.9c0,4.2-2.5,6.2-5.7,6.2c-3.2,0-5.4-1.6-5.4-6C34.5,38.3,37,36.5,40.2,36.5z
		 M40.1,45.9c1.3,0,1.7-0.6,1.7-3.4c0-2.9-0.6-3.4-1.8-3.4s-1.7,0.4-1.7,3.3C38.3,45.2,38.9,45.9,40.1,45.9z M42.5,59.2l-2-0.7
		c0,0-0.5-1.5,0.4-3.1l10.4-19.5l2,0.7c0,0,0.5,1.4-0.4,3.1L42.5,59.2z M53.9,46.5c3.2,0,5.5,1.4,5.5,5.9c0,4.2-2.5,6.2-5.7,6.2
		c-3.2,0-5.4-1.6-5.4-6C48.2,48.4,50.7,46.5,53.9,46.5z M53.8,56c1.3,0,1.7-0.6,1.7-3.4c0-2.9-0.6-3.4-1.8-3.4S52,49.6,52,52.5
		C52,55.3,52.6,56,53.8,56z"/>
</g>
</svg>
