<?xml version="1.0" encoding="utf-8"?>
<!-- Generator: Adobe Illustrator 21.1.0, SVG Export Plug-In . SVG Version: 6.00 Build 0)  -->
<svg version="1.1" id="Camada_1" xmlns="http://www.w3.org/2000/svg" xmlns:xlink="http://www.w3.org/1999/xlink" x="0px" y="0px"
	 viewBox="0 0 100 125" style="enable-background:new 0 0 100 125;" xml:space="preserve">
<style type="text/css">
	.st0{fill:#7F8FA4;}
</style>
<g id="Bqf5ck.tif">
	<g>
		<path class="st0" d="M42.2,14c0.8,0.1,1.6,0.2,2.4,0.3c6,0.8,11.4,3,16.2,6.6c7.6,5.8,12.1,13.4,13.5,22.9c1,6.6,0,12.9-2.7,19
			c-1.5,3.3-3.5,6.4-5.9,9.1c-0.2,0.3-0.2,0.4,0,0.6c0.1,0.1,0.2,0.2,0.3,0.3c8.9,8.9,17.9,17.9,26.8,26.8c0.3,0.3,0.6,0.6,0.9,1
			c0,0.3,0,0.6,0,0.8c-0.5,1.2-1.8,1.3-2.7,0.4c-9-9.1-18.1-18.1-27.1-27.2c-0.5-0.5-0.5-0.5-1,0c-3.9,3.4-8.3,5.8-13.3,7.3
			c-2.6,0.7-5.2,1.1-7.9,1.3c-8.8,0.3-16.6-2.2-23.4-7.7c-5.9-4.8-9.8-10.9-11.7-18.2c-0.5-2-0.9-4-1-6c0-0.2-0.1-0.3-0.1-0.5
			c0-1.5,0-2.9,0-4.4c0-0.2,0.1-0.3,0.1-0.5c0.2-2.9,0.8-5.7,1.7-8.5c2.2-6.4,5.9-11.7,11.1-15.9c5-4,10.7-6.5,17-7.3
			c0.8-0.1,1.7-0.2,2.5-0.3C39.4,14,40.8,14,42.2,14z M8.4,48.6C8.3,66,22.4,80.3,39.9,80.4c17.7,0.1,31.9-14.1,31.9-31.7
			c0.1-17.7-14.3-31.8-31.6-31.8C22.7,16.9,8.3,31.1,8.4,48.6z"/>
	</g>
</g>
</svg>
