<?xml version="1.0" encoding="utf-8"?>
<!-- Generator: Adobe Illustrator 21.0.0, SVG Export Plug-In . SVG Version: 6.00 Build 0)  -->
<svg version="1.1" id="Camada_1" xmlns="http://www.w3.org/2000/svg" xmlns:xlink="http://www.w3.org/1999/xlink" x="0px" y="0px"
	 viewBox="0 0 61.8 63.9" style="enable-background:new 0 0 61.8 63.9;" xml:space="preserve">
<g transform="scale(1 -1)">
	<g transform="translate(0 -96)">
		<g>
			<path marker-start="none" marker-end="none" d="M36.9,34v6.8h-19c-1.1,0-1.9,0.9-1.9,1.9l0,21.4h3.8l0-19.5H37v40.9
				c0,0.7,0.5,1.4,1.2,1.7l12.3,5.1H19.9V73.1h-3.8v21c0,1.1,0.9,1.9,1.9,1.9h41.9h0.2h0.1c0,0,0.2-0.1,0.6-0.3
				c-0.4,0.3-0.1,0.1,0.2-0.2c-0.2,0.2,0,0,0.4-0.4c-0.2,0.4,0,0.1,0.2-0.2c-0.1,0.3,0.1-0.1,0.2-0.8c-0.1,0.6,0,0.3,0,0V42.7l0,0
				c0-0.1,0-0.2-0.1-0.5c0.1,0.3,0.1,0.1,0-0.1c0,0.1,0,0-0.1-0.2c0.1,0.1,0-0.1-0.2-0.3c0,0-0.1-0.2-0.4-0.4c0,0-0.2-0.1-0.4-0.2
				l-20.9-8.7C38.4,31.8,37.1,32.7,36.9,34z M58,44v47.3l-17.2-7.2V36.8L58,44z M61,41.2c0,0-0.1,0-0.4-0.2
				C60.8,41,60.9,41.1,61,41.2z M45.4,57.5c-1.1,0-1.9,0.9-1.9,1.9v4.8c0,1.1,0.9,1.9,1.9,1.9c1.1,0,1.9-0.9,1.9-1.9v-4.8
				C47.3,58.3,46.5,57.5,45.4,57.5z M8.5,59.4l-8,8c-0.7,0.8-0.7,2,0,2.7l8,8c0.8,0.7,2,0.7,2.7,0c0.7-0.8,0.7-2,0-2.7l-4.8-4.8
				h23.9c1.1,0,1.9-0.9,1.9-1.9c0-1.1-0.9-1.9-1.9-1.9H6.4l4.8-4.8c0.7-0.8,0.7-2,0-2.7C10.5,58.5,9.3,58.5,8.5,59.4z"/>
		</g>
	</g>
</g>
</svg>
