<svg xmlns="http://www.w3.org/2000/svg" width="24" height="24" viewBox="0 0 24 24">
    <defs>
        <style>
            .cls-1{fill:#fff}
        </style>
    </defs>
    <path id="instagram" d="M144 140a4 4 0 1 0-1.172 2.828A3.854 3.854 0 0 0 144 140zm2.156 0a6.135 6.135 0 1 1-1.8-4.359 5.936 5.936 0 0 1 1.8 4.359zm1.688-6.406a1.44 1.44 0 1 1-.422-1.016 1.385 1.385 0 0 1 .422 1.016zM140 130.156l-1.2-.008q-1.086-.008-1.648 0t-1.508.047a12.386 12.386 0 0 0-1.609.156 6.269 6.269 0 0 0-1.117.289 4.09 4.09 0 0 0-2.281 2.281 6.269 6.269 0 0 0-.289 1.117 12.386 12.386 0 0 0-.156 1.609q-.039.945-.047 1.508t0 1.648l.008 1.2-.008 1.2q-.008 1.086 0 1.648t.047 1.508a12.385 12.385 0 0 0 .156 1.609 6.268 6.268 0 0 0 .289 1.117 4.09 4.09 0 0 0 2.281 2.281 6.267 6.267 0 0 0 1.117.289 12.383 12.383 0 0 0 1.609.156q.945.039 1.508.047t1.648 0l1.2-.008 1.2.008q1.086.008 1.648 0t1.508-.047a12.381 12.381 0 0 0 1.609-.156 6.265 6.265 0 0 0 1.117-.289 4.09 4.09 0 0 0 2.281-2.281 6.265 6.265 0 0 0 .289-1.117 12.381 12.381 0 0 0 .156-1.609q.039-.945.047-1.508t0-1.648l-.008-1.2.008-1.2q.008-1.086 0-1.648t-.047-1.508a12.383 12.383 0 0 0-.156-1.609 6.267 6.267 0 0 0-.289-1.117 4.09 4.09 0 0 0-2.281-2.281 6.268 6.268 0 0 0-1.117-.289 12.385 12.385 0 0 0-1.609-.156q-.945-.039-1.508-.047t-1.648 0zM152 140q0 3.578-.078 4.953a6.644 6.644 0 0 1-6.969 6.969Q143.578 152 140 152t-4.953-.078a6.644 6.644 0 0 1-6.969-6.969Q128 143.578 128 140t.078-4.953a6.644 6.644 0 0 1 6.969-6.969Q136.422 128 140 128t4.953.078a6.644 6.644 0 0 1 6.969 6.969Q152 136.422 152 140z" class="cls-1" transform="translate(-128 -128)"/>
</svg>
