<svg xmlns="http://www.w3.org/2000/svg" width="14" height="14" viewBox="0 0 14 14">
    <defs>
        <style>
            .cls-1{fill:#9d9d9d}
        </style>
    </defs>
    <path id="link" d="M92.353 26.294a.794.794 0 0 0-.24-.583l-1.784-1.784a.794.794 0 0 0-.583-.24.817.817 0 0 0-.618.275l.163.159q.137.133.184.184a2.044 2.044 0 0 1 .129.163.69.69 0 0 1 .112.219.874.874 0 0 1 .03.236.82.82 0 0 1-.824.824.873.873 0 0 1-.236-.03.69.69 0 0 1-.219-.112 2.048 2.048 0 0 1-.163-.129q-.051-.047-.184-.184l-.159-.163a.832.832 0 0 0-.283.626.794.794 0 0 0 .24.583l1.767 1.776a.791.791 0 0 0 .583.232.826.826 0 0 0 .583-.223l1.261-1.252a.784.784 0 0 0 .241-.577zm-6.031-6.048a.794.794 0 0 0-.24-.583l-1.767-1.776a.794.794 0 0 0-.583-.24.828.828 0 0 0-.583.232l-1.261 1.252a.784.784 0 0 0-.24.575.794.794 0 0 0 .24.583l1.784 1.784a.791.791 0 0 0 .583.232.829.829 0 0 0 .618-.266l-.163-.159q-.137-.133-.184-.184a2.043 2.043 0 0 1-.129-.163.69.69 0 0 1-.112-.219.874.874 0 0 1-.03-.236.82.82 0 0 1 .824-.824.873.873 0 0 1 .236.03.69.69 0 0 1 .219.112 2.043 2.043 0 0 1 .163.129q.051.047.184.184l.159.163a.832.832 0 0 0 .282-.626zM94 26.294a2.341 2.341 0 0 1-.729 1.741l-1.261 1.253a2.475 2.475 0 0 1-3.491-.017L86.751 27.5a2.369 2.369 0 0 1-.712-1.741 2.413 2.413 0 0 1 .755-1.793l-.755-.755a2.486 2.486 0 0 1-3.534.034l-1.784-1.784A2.383 2.383 0 0 1 80 19.706a2.341 2.341 0 0 1 .729-1.741l1.261-1.252a2.475 2.475 0 0 1 3.491.017l1.768 1.77a2.369 2.369 0 0 1 .712 1.741 2.413 2.413 0 0 1-.755 1.793l.755.755a2.486 2.486 0 0 1 3.539-.029l1.784 1.784a2.382 2.382 0 0 1 .716 1.75z" class="cls-1" transform="translate(-80 -16)"/>
</svg>
