<svg width="211" height="48" viewBox="0 0 211 48" fill="none" xmlns="http://www.w3.org/2000/svg">
<path d="M53.6307 13.3724C48.4225 13.3724 44.27 15.1319 40.8917 18.5806C39.2729 20.1994 38.2876 22.0293 37.443 24.2111C36.7392 26.3929 36.3169 28.7155 36.3169 30.9677C36.3169 35.7536 37.7949 39.7653 40.4694 42.7917C43.4958 46.0996 47.8594 47.8592 53.2084 47.8592C58.4166 47.8592 62.5691 46.0996 65.7362 42.651C68.7626 39.4838 70.2406 35.2609 70.2406 30.4046C70.2406 25.4779 68.7626 21.4662 65.877 18.2991C62.8506 14.9911 58.8389 13.3724 53.6307 13.3724ZM59.965 37.9354C58.3462 39.8357 56.2348 40.8211 53.6307 40.8211C50.745 40.8211 48.4225 39.8357 46.7333 37.9354C46.0295 37.0908 45.2553 36.0351 44.833 34.7683C44.4107 33.5014 44.1292 32.1642 44.1292 30.8973C44.1292 28.0117 44.833 25.6891 46.311 23.7888C47.9298 21.607 50.182 20.6216 53.0676 20.6216C55.9532 20.6216 58.2758 21.4662 59.8242 23.5073C61.443 25.4076 62.1468 27.6598 62.1468 30.7565C62.1468 33.8533 61.443 36.0351 59.965 37.9354Z" fill="white"/>
<path d="M206.358 17.6657C203.473 14.7097 201.15 13.3021 196.364 13.3021C191.015 13.3021 186.722 15.0616 183.414 18.3695C181.795 19.9883 180.669 21.8182 179.824 24C178.98 26.1818 178.558 28.5044 178.558 30.8974C178.558 35.8241 180.317 39.8358 184.047 43.1437C187.426 46.0997 191.508 47.6481 196.364 47.8592H196.997C197.138 47.8592 197.349 47.8592 197.49 47.8592C197.912 47.8592 198.405 47.8592 198.898 47.8592H200.728C202.135 47.8592 203.332 47.0851 203.965 46.0293C204.106 45.8182 204.176 45.6774 204.247 45.4663C204.528 44.9736 204.528 44.1994 204.388 43.4956C204.388 43.4252 204.317 43.2845 204.317 43.2141C204.317 43.0733 204.247 43.0029 204.247 42.8622C204.106 42.5103 203.965 42.1584 203.684 41.8768C203.402 41.4546 203.121 41.1026 202.346 40.7507C202.206 40.6804 201.995 40.61 201.783 40.5396C201.713 40.5396 201.643 40.4692 201.643 40.4692C201.361 40.3988 201.009 40.3285 200.657 40.3285C200.728 40.3285 200.798 40.3285 200.657 40.3285C199.813 40.2581 199.883 40.3285 197.561 40.2581C195.238 40.1877 192.634 39.695 190.663 38.3578C188.763 37.1613 187.496 35.5425 186.863 33.4311C186.792 33.2199 186.933 33.0792 187.144 33.0792H197.983C202.135 33.0792 204.88 33.0088 206.851 32.5865C208.822 32.1642 210.159 30.5455 210.159 28.5044C210.088 24 209.103 20.5513 206.358 17.6657ZM202.558 26.8153H187.214C187.003 26.8153 186.863 26.6041 186.933 26.4634C187.215 25.6188 187.496 24.8446 187.989 24.0704C189.748 21.3255 192.141 19.9179 195.308 19.9179C199.39 19.9179 201.854 22.0997 202.839 26.4634C202.91 26.6745 202.769 26.8153 202.558 26.8153Z" fill="white"/>
<path d="M171.449 37.9355V26.3929C171.449 24.3519 171.167 22.6627 170.604 21.044C168.704 15.9765 164.27 13.5132 157.302 13.5132C154.698 13.5132 152.094 13.7947 149.771 14.4985C149.067 14.7097 147.801 15.4135 147.801 15.4135C146.675 15.9061 145.971 17.0322 145.971 18.2991C145.971 19.9883 147.238 21.3255 148.856 21.5366C148.927 21.5366 148.997 21.5366 148.997 21.5366C149.068 21.5366 149.138 21.5366 149.138 21.5366C149.208 21.5366 149.208 21.5366 149.279 21.5366C149.349 21.5366 149.419 21.5366 149.56 21.5366C149.912 21.4663 150.194 21.3959 150.546 21.2551C151.39 20.9736 152.446 20.6921 153.431 20.5513C154.416 20.4105 155.472 20.2698 156.458 20.2698C157.443 20.2698 158.499 20.4105 159.343 20.5513C162.088 21.1144 163.496 23.1554 163.848 26.4633C163.566 26.4633 163.285 26.4633 163.003 26.3226C162.721 26.3226 162.44 26.3226 162.158 26.3226H160.892C155.261 26.3226 150.757 27.4487 147.449 29.6305C144.422 31.6715 142.944 34.2756 142.944 37.302C142.944 40.7507 144.211 43.3548 146.675 45.1144C147.801 45.9589 149.419 46.7331 151.179 47.1554C152.938 47.5777 155.05 47.8592 157.513 47.8592C159.977 47.8592 162.721 47.0146 165.748 45.3959C166.874 47.2962 169.337 47.5777 170.956 46.0997L171.238 45.8182C171.519 45.3959 171.519 45.3959 171.519 44.9032V43.7771C171.449 41.8064 171.449 39.8358 171.449 37.9355ZM163.425 34.7683V38.6393C163.425 38.6393 163.425 39.2727 163.355 39.4135C162.933 40.3284 159.625 41.3138 157.443 41.3138C155.261 41.3138 153.572 41.0322 152.516 40.3284C151.953 40.0469 151.531 39.6246 151.249 39.0616C150.968 38.4985 150.827 37.9355 150.827 37.1613C150.827 36.4575 150.968 35.8944 151.39 35.1202C153.15 32.3754 156.88 32.0938 159.765 31.9531C160.469 31.9531 161.243 31.9531 161.947 32.2346C162.37 32.3754 162.792 32.7976 163.073 33.0792C163.496 33.5718 163.425 34.7683 163.425 34.7683Z" fill="white"/>
<path d="M21.4663 14.5689C19.566 13.8651 17.4545 13.4428 14.9912 13.4428C12.4575 13.4428 10.2053 14.0059 7.74194 15.2727V3.87097C7.74194 1.68915 5.9824 0 3.87097 0C1.75953 0 0 1.75953 0 3.87097V34.9091C0 39.0616 1.61877 42.2991 4.5044 44.7625C7.10851 46.9443 10.4164 47.9296 14.4985 47.9296C19.1437 47.9296 23.0147 46.3108 26.0411 43.1437C29.2082 39.8358 30.827 35.4721 30.827 30.1232C30.827 25.0557 29.349 21.044 26.3226 17.8768C24.7742 16.3988 23.1554 15.2727 21.4663 14.5689ZM20.3402 38.0059C18.7214 39.9062 16.61 40.8915 14.0059 40.8915C13.5132 40.8915 13.0909 40.8915 12.6686 40.8211C9.85337 40.4692 7.74194 38.0059 7.74194 35.1906V26.393C7.74194 23.2258 10.2757 20.6921 13.4428 20.6921C16.3284 20.6921 18.651 21.5367 20.1994 23.5777C21.8182 25.478 22.522 27.7302 22.522 30.827C22.522 33.783 21.8182 36.1056 20.3402 38.0059Z" fill="white"/>
<path d="M95.0149 13.654C92.9034 13.654 91.0031 14.2874 89.2436 14.9912C87.4841 15.695 85.7246 16.4692 84.2465 18.088L84.0354 17.1027C83.6835 15.4839 82.2759 14.2874 80.7275 14.2874C78.8272 14.2874 77.2788 15.9062 77.2788 17.9472V43.7068C77.2788 46.0294 79.0383 47.8593 81.2202 47.8593C83.402 47.8593 85.1615 45.959 85.1615 43.7068V27.9414C85.1615 25.1965 86.4988 22.5924 88.751 21.3255C88.751 21.3255 88.7509 21.3255 88.8213 21.3255C90.1586 20.6217 91.4254 20.1994 92.7627 20.1994C94.5222 20.1994 95.7891 20.7625 96.6336 21.8886C97.4782 23.0147 97.9005 24.4223 97.9005 26.2522V43.7772C97.9005 46.0997 99.66 47.9296 101.842 47.9296C104.024 47.9296 105.783 46.0294 105.783 43.7772V25.1965C105.783 21.5367 104.868 18.6511 102.968 16.6804C101.068 14.7097 98.3932 13.654 95.0149 13.654Z" fill="white"/>
<path d="M128.376 27.8709L126.264 27.2375C124.082 26.6041 122.604 25.9706 121.83 25.3372C121.126 24.7038 120.704 23.9296 120.704 23.085C120.704 22.0293 121.126 21.1847 122.041 20.6217C122.956 19.9882 124.223 19.7067 125.983 19.7067C127.672 19.7067 129.361 19.9882 131.121 20.5513C132.739 21.044 134.358 20.0586 134.851 18.5102C135.343 16.8915 134.428 15.2023 132.739 14.7096C132.036 14.4985 131.402 14.3577 130.698 14.217C128.939 13.8651 127.109 13.7243 125.209 13.7243C123.308 13.7243 121.619 13.9354 120.071 14.4281C118.522 14.9208 117.185 15.6246 116.129 16.4692C115.074 17.3137 114.229 18.3695 113.596 19.6363C112.962 20.8328 112.681 22.1701 112.681 23.6481C112.681 26.1114 113.384 28.0821 114.722 29.5601C116.059 31.0381 118.17 32.305 121.056 33.2199L123.238 33.9237C125.42 34.5572 126.968 35.1906 127.813 35.7536C128.728 36.3167 129.15 37.1613 129.15 38.217C129.15 40.6803 127.25 41.8768 123.379 41.8768C121.76 41.8768 120.211 41.6657 118.733 41.2434C118.241 41.1026 117.818 40.9618 117.326 40.8211C115.707 40.258 114.018 41.2434 113.525 42.8621L113.455 43.1437C113.033 44.692 113.807 46.3812 115.355 46.8739C117.818 47.6481 120.634 48 123.801 48C127.953 48 131.261 47.085 133.654 45.1847C136.047 43.2844 137.244 40.8211 137.244 37.5835C137.244 35.1202 136.47 33.0791 134.991 31.5308C133.584 29.9824 131.332 28.7859 128.376 27.8709Z" fill="white"/>
</svg>
