<svg xmlns="http://www.w3.org/2000/svg" width="79" height="52.813" viewBox="0 0 79 52.813">
    <defs>
        <style>
            .cls-1{fill:#fff}
        </style>
    </defs>
    <path id="logo_gambiarra" d="M350.375 390.375c-5.6-13.784-11.312-27.524-16.808-41.35-1.031-2.595-2.588-3.15-5.073-3.1-2.5.053-4.421.346-5.471 3.143-2.075 5.529-4.506 10.923-6.728 16.4-.625 1.541-1.207 2.219-3.228 1.9a30.608 30.608 0 0 0-8.157.193c-2.556.3-5.064 1.02-7.306 1.494-1.241-3.114-2.057-6.1-3.564-8.687-1.566-2.687-3.8-4.984-6.323-8.191 3.528-.911 6.672-2.079 9.91-2.451 2.892-.332 5.885.272 8.836.358 2.8.081 4.962-1.009 5.861-3.828.608-1.906.382-3.367-2.185-3.343-5.382.05-10.791-.3-16.143.12a22.045 22.045 0 0 0-16.035 8.534c-8.534 10.785-7.48 25.661 2.366 34.693 9.361 8.588 25.915 8.465 35.443-.155a20.915 20.915 0 0 1 5.278-3.364 2.965 2.965 0 0 1 2.781.757c5.2 8.745 13.322 11.8 22.939 12.128 4.438.16 5.323-1.026 3.607-5.251zm-64.686-10.085c-5.745-5.015-7.064-14.1-3.036-20.928 7.847 3.157 9.507 14.587 3.036 20.927zm7.561 4.365c3.116-7.559 13.605-11.574 19.136-10.364a14.256 14.256 0 0 1-19.137 10.363zm26.095-7.766l9.131-20.846c1.159 3.123 2.223 5.614 2.965 8.2a4.008 4.008 0 0 1-.571 2.918c-2.834 4.301-6.989 7.039-11.526 9.727zm10.366 1.923c1.8-1.724 3.453-3.3 5.448-5.207 1.773 4.432 3.455 8.634 5.4 13.486-5.52-1.106-8.384-4.339-10.849-8.28z" class="cls-1" transform="translate(-272.193 -342.832)"/>
</svg>
