<?xml version="1.0" encoding="utf-8"?>
<!-- Generator: Adobe Illustrator 21.0.0, SVG Export Plug-In . SVG Version: 6.00 Build 0)  -->
<svg version="1.1" id="Camada_1" xmlns="http://www.w3.org/2000/svg" xmlns:xlink="http://www.w3.org/1999/xlink" x="0px" y="0px"
	 viewBox="0 0 85 34" style="enable-background:new 0 0 85 34;" xml:space="preserve">
<style type="text/css">
	.st0{fill:#FFFFFF;}
</style>
<g>
	<path class="st0" d="M33.6,31.1c1.9,0,2.7-1.2,2.7-3.4s-0.9-3.4-2.7-3.4s-2.7,1.2-2.7,3.4C30.8,29.9,31.7,31.1,33.6,31.1
		 M33.6,33.6c-1,0-1.8-0.1-2.6-0.4c-0.7-0.3-1.4-0.7-1.9-1.2c-0.5-0.5-0.9-1.2-1.2-1.9s-0.4-1.6-0.4-2.4c0-0.9,0.1-1.7,0.4-2.5
		c0.3-0.7,0.7-1.4,1.2-1.9s1.2-0.9,1.9-1.2s1.6-0.4,2.5-0.4s1.7,0.1,2.5,0.4c0.7,0.3,1.3,0.7,1.9,1.2c0.5,0.5,0.9,1.2,1.2,1.9
		s0.4,1.6,0.4,2.5s-0.1,1.7-0.4,2.4c-0.3,0.7-0.7,1.3-1.2,1.9c-0.5,0.5-1.2,1-1.9,1.2C35.3,33.5,34.5,33.6,33.6,33.6 M48,32.1
		c0-2,0-6.5,0-6.5c0-0.8-0.2-1.4-0.5-1.7s-0.8-0.4-1.6-0.4c-1.7,0-2.5,0.8-2.5,2.5c0,0,0,4.6,0,6.2c0,0.7-3.1,0.7-3.1,0
		c0-1.9,0-8.5,0-10.7c0-0.7,2.9-0.7,3,0c0,0.5,0,1.6,0,1.6c0.4-0.6,0.9-1.1,1.5-1.4c0.6-0.3,1.4-0.5,2.4-0.5c0.6,0,1.1,0.1,1.6,0.2
		s0.9,0.4,1.3,0.7c0.4,0.3,0.6,0.7,0.8,1.1c0.2,0.5,0.3,1,0.3,1.6c0,0,0,5.4,0,7.5C51.3,32.8,48.1,32.8,48,32.1 M59.6,25.5
		c-0.2-0.7-0.3-0.9-0.6-1.1s-0.9-0.4-1.5-0.4c-0.7,0-1.2,0.1-1.5,0.2c-0.3,0.1-0.5,0.4-0.5,0.8c0,0.3,0.2,0.6,0.5,0.7
		c0.3,0.2,0.8,0.4,1.5,0.5c1.1,0.3,1.9,0.5,2.7,0.7c0.7,0.2,1.3,0.4,1.7,0.7s0.7,0.6,0.9,1c0.2,0.4,0.3,0.9,0.3,1.6
		c0,1-0.5,1.9-1.4,2.5c-0.9,0.7-2.2,1-3.9,1c-0.9,0-1.7-0.1-2.4-0.3c-0.7-0.2-1.3-0.5-1.8-0.8c-0.5-0.3-0.9-0.7-1.2-1.3
		c-0.3-0.5-0.3-0.8-0.3-1.7c0-0.8,3-0.7,3,0c0,0.4,0.2,1,0.7,1.2c0.5,0.3,1,0.4,1.8,0.4c0.6,0,1.1-0.1,1.6-0.3
		c0.5,0.1,0.7-0.2,0.7-0.5c0-0.4-0.2-0.7-0.5-0.9c-0.3-0.2-0.8-0.4-1.5-0.5c-1.2-0.2-2.1-0.5-2.8-0.8c-0.7-0.3-1.3-0.6-1.7-0.9
		s-0.7-0.7-0.8-1.1s-0.2-0.9-0.2-1.3c0-0.4,0.1-0.8,0.3-1.2c0.2-0.4,0.5-0.7,0.9-1s0.9-0.5,1.6-0.7c0.7-0.2,1.5-0.3,2.4-0.3
		c1.7,0,2.9,0.3,3.7,1c0.8,0.7,1.3,1.4,1.3,2.7C62.6,26.2,59.8,26.2,59.6,25.5 M70.6,27.7c-0.2,0.2-0.4,0.3-0.7,0.4
		c-0.3,0.1-0.8,0.2-1.4,0.3c-0.9,0.2-1.6,0.4-1.9,0.6c-0.3,0.3-0.5,0.6-0.5,1.1c0,0.8,0.5,1.2,1.6,1.2c0.4,0,0.8-0.1,1.2-0.2
		c0.4-0.1,0.7-0.3,0.9-0.5c0.3-0.2,0.5-0.5,0.6-0.8c0.2-0.3,0.2-0.6,0.2-0.9C70.6,28.9,70.6,27.7,70.6,27.7z M70.7,33
		c0-0.4,0-0.5,0-0.9c-0.4,0.4-0.9,0.7-1.5,0.9c-0.6,0.2-1.4,0.4-2.2,0.4c-1.4,0-2.4-0.3-3-0.9c-0.7-0.6-1-1.3-1-2.2
		c0-0.8,0.1-1.4,0.4-1.9c0.3-0.5,0.7-0.9,1.2-1.1c0.5-0.3,1.1-0.5,1.8-0.6c0.7-0.1,1.5-0.3,2.2-0.4c0.8-0.1,1.4-0.2,1.6-0.4
		c0.3-0.2,0.4-0.5,0.4-0.9s-0.2-0.6-0.6-0.9C69.5,24.1,69,24,68.4,24c-0.7,0-1.3,0.2-1.6,0.5c-0.3,0.3-0.5,0.7-0.6,1.2
		c-0.1,0.7-3,0.7-2.9,0c0-0.4,0.1-1.1,0.3-1.6c0.2-0.5,0.5-0.9,0.9-1.2c0.4-0.3,1-0.6,1.7-0.8c0.7-0.2,1.5-0.3,2.5-0.3
		c1,0,1.8,0.1,2.4,0.3c0.7,0.2,1.2,0.5,1.6,0.9c0.4,0.4,0.7,0.8,0.9,1.4s0.3,1.2,0.3,1.9c0,0,0,5.1,0,7C73.7,33.8,70.7,33.8,70.7,33
		L70.7,33z"/>
	<path class="st0" d="M81.7,26.6c0-0.4-0.1-0.7-0.2-1.1c-0.1-0.3-0.3-0.6-0.5-0.8c-0.2-0.2-0.5-0.4-0.8-0.5
		c-0.3-0.1-0.6-0.1-0.9-0.1c-0.6,0-1.2,0.2-1.6,0.7c-0.4,0.5-0.7,1.1-0.8,1.8C77,26.6,81.7,26.6,81.7,26.6z M76.9,28.5
		c0,0.9,0.3,1.6,0.8,2.1c0.5,0.5,1.1,0.7,1.8,0.7c0.5,0,1-0.1,1.4-0.3c0.4-0.2,0.8-0.6,0.9-1c0.3-0.8,2.9-0.7,2.8,0
		c-0.1,1.2-0.9,2.1-1.8,2.7c-0.9,0.6-2,1-3.2,1c-3.8,0-5.8-2.1-5.8-6.1c0-0.9,0.1-1.7,0.4-2.4c0.3-0.7,0.6-1.3,1.1-1.8
		c0.5-0.5,1.1-0.9,1.8-1.2c0.7-0.3,1.5-0.4,2.4-0.4c1.8,0,3.1,0.6,4,1.7c0.9,1.1,1.1,2.1,1,4.3c0,0.8-1.9,0.6-3.7,0.7
		C78.8,28.6,76.9,28.5,76.9,28.5L76.9,28.5z"/>
	<g transform="translate(14 17)">
		<path class="st0" d="M7.3,13.7c-1.4,0-2.6-1.6-2.6-3.4s1.1-3.4,2.6-3.4c1.4,0,2.6,1.6,2.6,3.4C9.8,12.2,8.7,13.7,7.3,13.7
			 M12.2,7.9c-0.2-0.7-0.5-1.3-1-1.9c-0.4-0.5-1-0.9-1.6-1.2C9.1,4.6,8.4,4.5,7.6,4.5C6.1,4.5,5,5.1,4.1,6.3c0,0,0-4,0-5.6
			c0-0.7-3-0.7-3,0C0.9,4.3,1.1,13,1,16.1c0,0.7,2.9,0.7,3,0c0-0.4,0-1.4,0-1.4c0.7,1.1,1.9,1.7,3.3,1.7c0.8,0,1.5-0.1,2.1-0.4
			s1.2-0.7,1.7-1.2c0.4-0.6,0.8-1.2,1.1-2c0.2-0.8,0.3-1.6,0.3-2.6C12.5,9.4,12.4,8.6,12.2,7.9"/>
	</g>
	<path class="st0" d="M11.2,17.9C10.5,12.4,9.5,7,5.4,2.7c-1-1.1-2.7,0.5-1.8,1.6c3.5,3.8,4.4,8.9,5,13.6
		C8.9,19.2,11.4,19.2,11.2,17.9"/>
	<path class="st0" d="M4.7,32.4c4.4-3.1,5.1-8.5,6.4-13.5c1.5-5.9,5.8-9.3,11.6-9.5c1.4,0,1.5-2.4,0-2.3c-5.3,0.2-9.9,2.6-12.5,7.6
		S8.6,26.9,3.6,30.4C2.5,31.2,3.6,33.3,4.7,32.4"/>
	<g transform="translate(18)">
		<path class="st0" d="M11.6,5.7c0,2.9-2.4,5.3-5.3,5.3S1,8.6,1,5.7s2.4-5.3,5.3-5.3S11.6,2.8,11.6,5.7"/>
	</g>
	<path class="st0" d="M8.3,3.7c0,1.9-1.8,3.4-3.9,3.4S0.4,5.6,0.4,3.7s1.8-3.4,3.9-3.4C6.6,0.3,8.3,1.8,8.3,3.7"/>
	<path class="st0" d="M8.1,30.6c0,1.7-1.3,2.9-2.9,2.9s-2.9-1.3-2.9-2.9c0-1.7,1.3-2.9,2.9-2.9S8.1,29.1,8.1,30.6"/>
</g>
</svg>
