<?xml version="1.0" encoding="utf-8"?>
<!-- Generator: Adobe Illustrator 21.0.0, SVG Export Plug-In . SVG Version: 6.00 Build 0)  -->
<svg version="1.1" id="Layer_1" xmlns="http://www.w3.org/2000/svg" xmlns:xlink="http://www.w3.org/1999/xlink" x="0px" y="0px"
	 viewBox="0 0 376.8 151.1" style="enable-background:new 0 0 376.8 151.1;" xml:space="preserve">
<style type="text/css">
	.st012{fill:#0461F5;}
	.st1133{fill:url(#SVGID_1_);}
	.st299{fill:url(#SVGID_2_);}
	.st355{fill:url(#SVGID_3_);}
	.st4132132{fill:#2BDCD6;}
	.st509999{opacity:0.2;fill:#0461F5;}
</style>
<g>
	<g>
		<g>
			<g>
				<path class="st012" d="M146.9,150.1c-4.2,0-7.9-0.7-11.2-2c-3.3-1.4-6-3.3-8.3-5.7c-2.3-2.4-4-5.4-5.2-8.8
					c-1.2-3.4-1.8-7.2-1.8-11.3c0-4.2,0.6-8,1.8-11.4c1.2-3.4,3-6.4,5.3-8.8c2.3-2.4,5.1-4.3,8.3-5.7c3.2-1.3,6.9-2,11-2
					c4,0,7.7,0.7,10.9,2c3.2,1.3,5.9,3.2,8.2,5.6c2.3,2.4,4,5.3,5.2,8.8c1.2,3.4,1.8,7.3,1.8,11.5c0,4.2-0.6,8.1-1.8,11.5
					c-1.2,3.4-3,6.3-5.2,8.8c-2.3,2.4-5,4.3-8.2,5.6C154.5,149.4,150.9,150.1,146.9,150.1z M146.9,138.3c8.3,0,12.4-5.4,12.4-16.1
					c0-10.7-4.1-16-12.4-16c-8.3,0-12.4,5.3-12.4,16C134.5,133,138.6,138.3,146.9,138.3z"/>
			</g>
		</g>
		<g>
			<g>
				<path class="st012" d="M210.3,147.5c-0.2-9.5,0-31.3,0-31.3c0-4-0.7-6.7-2-8.1c-1.3-1.4-3.6-2.1-6.8-2.1c-7,0-10.5,4-10.5,11.9
					c0,0,0,22.4,0,29.6c0,3.4-13.6,3.4-13.6,0c0-8.9,0-41.2,0-51.6c0-3.3,12.9-3.4,12.9-0.1c0,2.3,0,7.7,0,7.7
					c1.6-2.9,3.7-5.2,6.4-6.7c2.6-1.5,6.1-2.3,10.2-2.3c2.4,0,4.7,0.4,6.8,1.1c2.1,0.7,3.9,1.8,5.4,3.3c1.5,1.5,2.7,3.3,3.5,5.4
					c0.9,2.1,1.3,4.6,1.3,7.4c0,0-0.1,26.2,0,35.8C224,150.9,210.4,150.9,210.3,147.5z"/>
			</g>
		</g>
		<g>
			<g>
				<path class="st012" d="M260.4,111.8c-0.8-3.1-1.2-4.2-2.7-5.3c-1.4-1.1-3.6-1.7-6.5-1.7c-2.8,0-4.9,0.3-6.3,1
					c-1.4,0.7-2.1,1.8-2.1,3.5c0,1.4,0.7,2.6,2.1,3.4c1.4,0.9,3.5,1.7,6.2,2.5c4.5,1.3,8.2,2.4,11.3,3.3c3.1,0.9,5.5,2,7.4,3.2
					c1.8,1.2,3.2,2.7,4,4.6c0.8,1.8,1.2,4.3,1.2,7.4c0,4.7-1.9,8.7-5.7,11.8c-3.8,3.1-9.5,4.7-17,4.7c-3.7,0-7-0.4-10-1.3
					c-3-0.9-5.6-2.1-7.7-3.7c-2.1-1.6-3.8-3.6-4.9-5.8c-1.1-2.3-1.2-3.8-1.1-7.8c0.1-3.6,13.2-3.4,13.3,0.2c0.1,1.7,1,4.4,2.9,5.8
					c1.9,1.4,4.4,2,7.5,2c2.6,0,4.8-0.4,6.6-1.2c1.8-0.8,2.8-2.1,2.8-3.8c0-1.9-0.7-3.3-2-4.2c-1.4-0.9-3.4-1.6-6.2-2.3
					c-5-1.1-9.1-2.3-12.1-3.6c-3.1-1.3-5.5-2.6-7.2-4.1c-1.7-1.5-2.9-3.2-3.4-5c-0.6-1.8-0.9-3.8-0.9-6c0-2,0.4-3.9,1.2-5.7
					c0.8-1.8,2.1-3.4,3.8-4.7c1.7-1.4,4-2.5,6.8-3.3c2.8-0.8,6.2-1.2,10.2-1.2c7.4,0,12.8,1.5,16.2,4.6c3.4,3.1,5.7,6.6,5.6,12.8
					C273.4,115.1,261.2,115,260.4,111.8z"/>
			</g>
		</g>
		<g>
			<g>
				<path class="st012" d="M311.4,147.9c0-1.8,0-2.4-0.2-4.2c-1.6,1.9-3.7,3.3-6.4,4.5c-2.6,1.1-5.7,1.7-9.2,1.7c-5.9,0-10.3-1.3-13-4
					c-2.8-2.7-4.1-6.2-4.1-10.5c0-3.8,0.6-6.8,1.8-9.1c1.2-2.3,2.8-4,4.9-5.3c2.1-1.3,4.6-2.2,7.5-2.8c2.9-0.6,6-1.2,9.5-1.7
					c3.4-0.5,5.7-1.2,6.9-2c1.2-0.8,1.8-2.2,1.8-4c0-1.7-0.8-3.1-2.3-4c-1.6-1-3.7-1.4-6.3-1.4c-3.1,0-5.4,0.7-6.7,2.1
					c-1.4,1.4-2.2,3.2-2.6,5.7c-0.5,3.2-12.9,3.2-12.6,0c0.1-2.1,0.5-5.2,1.3-7.5c0.8-2.3,2.1-4.3,3.9-5.9c1.8-1.6,4.1-2.9,6.9-3.8
					c2.9-0.9,6.3-1.3,10.4-1.3c4,0,7.5,0.5,10.3,1.4c2.8,0.9,5.1,2.3,6.8,4c1.7,1.8,2.9,3.9,3.7,6.5c0.8,2.6,1.1,5.6,1.1,8.8
					c0,0,0.2,24.6,0,33.3C324.6,151.9,311.5,151.9,311.4,147.9z M311.1,122.6c-0.7,0.7-1.7,1.3-3,1.7c-1.3,0.4-3.2,0.9-5.7,1.4
					c-3.9,0.8-6.6,1.8-8,3c-1.5,1.2-2.2,3-2.2,5.3c0,3.9,2.2,5.9,6.6,5.9c1.7,0,3.4-0.3,4.9-0.9c1.5-0.6,2.8-1.4,3.9-2.5
					c1.1-1,1.9-2.3,2.6-3.6c0.7-1.4,1-2.9,1-4.4L311.1,122.6z"/>
			</g>
		</g>
		<g>
			<g>
				<path class="st012" d="M342.6,125.6c0.2,4,1.3,7.2,3.4,9.5c2.1,2.4,4.8,3.5,8.1,3.5c2.2,0,4.2-0.5,5.9-1.5c1.7-1,3.3-2.9,4-4.8
					c1.4-3.9,13.2-3.4,12.8,0.1c-0.6,5.7-3.9,9.9-7.9,12.8c-4,2.9-8.7,4.4-14.2,4.4c-17.1,0-25.7-9.5-25.7-28.6
					c0-4.1,0.6-7.7,1.7-11c1.1-3.3,2.7-6.1,4.9-8.4c2.1-2.4,4.7-4.2,7.8-5.4c3.1-1.2,6.6-1.9,10.6-1.9c7.9,0,13.9,2.6,18,7.8
					c4.1,5.2,4.9,9.7,4.5,20.4c-0.1,3.5-8.2,3-16.4,3.3C351.3,126.2,342.6,125.6,342.6,125.6z M364,116.9c-0.1-1.9-0.4-3.6-1-5.1
					c-0.6-1.5-1.4-2.7-2.3-3.6c-1-1-2.1-1.7-3.3-2.1c-1.3-0.5-2.5-0.7-3.9-0.7c-2.7,0-5.1,1-7.1,3c-2,2-3.1,4.9-3.4,8.5H364z"/>
			</g>
		</g>
		<g>
			<g>
				<path class="st012" d="M114.1,110.7c-0.9-3.3-2.3-6.2-4.1-8.6c-1.8-2.4-4-4.3-6.6-5.6c-2.6-1.3-5.6-2-8.9-2
					c-6.3,0-11.4,2.8-15.2,8.3c0,0,0.1-18.6,0-26.2c0-3.3-13.3-3.4-13.4,0c-0.6,17,0.3,57.9,0,72c-0.1,3.3,12.9,3.3,13.1,0
					c0.1-1.8,0.1-6.4,0.1-6.4c3.1,5.2,7.9,7.8,14.3,7.8c3.2,0,6.2-0.6,8.9-1.9c2.7-1.3,5.1-3.1,7-5.6c1.9-2.4,3.5-5.4,4.6-8.9
					c1.1-3.5,1.7-7.5,1.7-11.9C115.5,117.7,115,114,114.1,110.7z M92.6,137.8c-6,0-10.9-7.2-10.9-16.1c0-8.9,4.9-16.1,10.9-16.1
					c6,0,10.9,7.2,10.9,16.1C103.5,130.5,98.6,137.8,92.6,137.8z"/>
			</g>
		</g>
	</g>
</g>
<g>
	<linearGradient id="SVGID_1_" gradientUnits="userSpaceOnUse" x1="8.6287" y1="18.6195" x2="47.8249" y2="86.5093">
		<stop  offset="0" style="stop-color:#2BDCD6"/>
		<stop  offset="0.1866" style="stop-color:#2AD8D7"/>
		<stop  offset="0.3662" style="stop-color:#26CDDA"/>
		<stop  offset="0.543" style="stop-color:#20B9DF"/>
		<stop  offset="0.718" style="stop-color:#179EE6"/>
		<stop  offset="0.8902" style="stop-color:#0C7BEE"/>
		<stop  offset="1" style="stop-color:#0461F5"/>
	</linearGradient>
	<path class="st1133" d="M43.6,85.9C40.9,60.9,36.7,36,20.4,16.1c-4.1-5-11.2,2.1-7.1,7.1c14.4,17.6,17.9,40.7,20.3,62.6
		C34.2,92.3,44.3,92.3,43.6,85.9L43.6,85.9z"/>
	<linearGradient id="SVGID_2_" gradientUnits="userSpaceOnUse" x1="8.6704" y1="86.378" x2="103.1488" y2="86.378">
		<stop  offset="0" style="stop-color:#56F7A1"/>
		<stop  offset="3.436643e-02" style="stop-color:#50EDA7"/>
		<stop  offset="0.1895" style="stop-color:#39C2BF"/>
		<stop  offset="0.3475" style="stop-color:#269FD2"/>
		<stop  offset="0.5066" style="stop-color:#1784E1"/>
		<stop  offset="0.6673" style="stop-color:#0C70EC"/>
		<stop  offset="0.8305" style="stop-color:#0665F3"/>
		<stop  offset="1" style="stop-color:#0461F5"/>
	</linearGradient>
	<path class="st299" d="M16,142.1c20.1-13.9,23.3-38.1,29-60.2c6.8-26.1,26.4-41.2,53.2-42.1c6.5-0.2,6.5-10.3,0-10.1
		c-24.2,0.8-45.6,11.5-57,33.4c-11.7,22.3-7.6,54.5-30.3,70.2C5.6,137.1,10.7,145.8,16,142.1L16,142.1z"/>
	<linearGradient id="SVGID_3_" gradientUnits="userSpaceOnUse" x1="124.4995" y1="10.9635" x2="84.6712" y2="33.9583">
		<stop  offset="0" style="stop-color:#56B4A1"/>
		<stop  offset="0.2306" style="stop-color:#3B99BC"/>
		<stop  offset="0.5459" style="stop-color:#1D7ADB"/>
		<stop  offset="0.8137" style="stop-color:#0B68EE"/>
		<stop  offset="1" style="stop-color:#0461F5"/>
	</linearGradient>
	<ellipse class="st355" cx="104.6" cy="22.5" rx="23.2" ry="22.5"/>
	<circle class="st4132132" cx="16.8" cy="19.7" r="16.8"/>
	<ellipse class="st4132132" cx="16.6" cy="138.1" rx="13.2" ry="12.4"/>
	<ellipse class="st509999" cx="16.6" cy="138.1" rx="13.2" ry="12.4"/>
</g>
</svg>
