<svg width="163" height="101" viewBox="0 0 163 101" fill="none" xmlns="http://www.w3.org/2000/svg">
<g id="Frame">
<g id="Group">
<path id="Vector" d="M1.5197 71.1122C2.54917 70.0816 3.77474 69.5908 5.19639 69.5908C6.66707 69.5908 7.89263 70.0816 8.87308 71.1122C9.90256 72.1428 10.3928 73.3697 10.3928 74.7929C10.3928 79.1117 11.9615 82.8415 15.0499 85.9334C18.1383 89.0252 21.8641 90.5956 26.178 90.5956C30.492 90.5956 34.1687 89.0252 37.2571 85.9334C40.3456 82.8415 41.9143 79.1117 41.9143 74.7929V27.2375C41.9143 25.7652 42.4045 24.5383 43.434 23.5568C44.4635 22.5262 45.689 22.0354 47.1107 22.0354C48.5323 22.0354 49.7579 22.5262 50.7874 23.5568C51.8168 24.5383 52.3071 25.7652 52.3071 27.2375V74.7929C52.3071 82.0072 49.7579 88.1909 44.6595 93.3439C39.5122 98.4479 33.3844 101 26.178 101C18.9717 101 12.7949 98.4479 7.64752 93.3439C2.54917 88.1909 0 82.0072 0 74.7929C0 73.3697 0.490225 72.1428 1.5197 71.1122Z" fill="white"/>
<path id="Vector_2" d="M79.0734 95.7978C79.0734 97.2701 78.5832 98.4971 77.5537 99.5277C76.5733 100.509 75.3477 101 73.8771 101C72.4554 101 71.2298 100.509 70.2004 99.5277C69.1709 98.4971 68.6807 97.2701 68.6807 95.7978V28.121C68.6807 26.6977 69.1709 25.4708 70.2004 24.4402C71.2298 23.4096 72.4554 22.9188 73.8771 22.9188C75.3477 22.9188 76.5733 23.4096 77.5537 24.4402C78.5832 25.4708 79.0734 26.6977 79.0734 28.121V95.7978Z" fill="white"/>
<path id="Vector_3" d="M103.143 95.7978C103.143 97.2701 102.653 98.4971 101.624 99.5277C100.643 100.509 99.4176 101 97.9469 101C96.5252 101 95.2997 100.509 94.2702 99.5277C93.2407 98.4971 92.7505 97.2701 92.7505 95.7978V91.9208C92.7505 82.2527 96.1821 73.9587 103.094 67.0879C105.006 65.1739 107.163 63.4562 109.565 61.9839C107.212 60.5116 105.055 58.794 103.094 56.8309C96.2311 49.9601 92.7505 41.7152 92.7505 32.0471V28.121C92.7505 26.6977 93.2407 25.4708 94.2702 24.4402C95.2997 23.4096 96.5252 22.9188 97.9469 22.9188C99.4176 22.9188 100.643 23.4096 101.624 24.4402C102.653 25.4708 103.143 26.6977 103.143 28.121V32.0471C103.143 38.8197 105.545 44.6598 110.399 49.5184C115.252 54.377 121.037 56.7818 127.851 56.7818C134.665 56.7818 140.498 54.377 145.303 49.5184C150.156 44.6598 152.558 38.8688 152.558 32.0471V28.121C152.558 26.6977 153.048 25.4708 154.078 24.4402C155.107 23.4096 156.333 22.9188 157.754 22.9188C159.225 22.9188 160.451 23.4096 161.48 24.4402C162.51 25.4708 163 26.6977 163 28.121V32.0471C163 41.7152 159.568 49.9601 152.656 56.8309C150.695 58.794 148.538 60.5116 146.185 61.9839C148.538 63.4562 150.646 65.1249 152.656 67.0879C159.519 73.9587 163 82.2527 163 91.9208V95.7978C163 97.2701 162.51 98.4971 161.48 99.5277C160.451 100.509 159.225 101 157.754 101C156.333 101 155.107 100.509 154.078 99.5277C153.048 98.4971 152.558 97.2701 152.558 95.7978V91.9208C152.558 85.1482 150.156 79.308 145.303 74.4494C140.498 69.5908 134.665 67.1861 127.851 67.1861C121.086 67.1861 115.252 69.5908 110.399 74.4494C105.545 79.308 103.143 85.0991 103.143 91.9208V95.7978Z" fill="white"/>
</g>
<g id="Group_2">
<path id="Vector_4" d="M34.2177 70.8668C34.2177 75.431 30.541 79.1118 25.9819 79.1118C21.4228 79.1118 17.7461 75.431 17.7461 70.8668C17.7461 66.3027 21.4228 62.6219 25.9819 62.6219C30.541 62.6219 34.2177 66.3027 34.2177 70.8668Z" fill="white"/>
</g>
<g id="Group_3">
<path id="Vector_5" d="M81.6227 8.2449C81.6227 12.809 77.946 16.4898 73.3869 16.4898C68.8278 16.4898 65.1511 12.809 65.1511 8.2449C65.1511 3.68076 68.8278 0 73.3869 0C77.946 0 81.6227 3.68076 81.6227 8.2449Z" fill="white"/>
</g>
<g id="Group_4">
<path id="Vector_6" d="M135.351 36.7094C135.351 41.2735 131.675 44.9543 127.115 44.9543C122.556 44.9543 118.88 41.2735 118.88 36.7094C118.88 32.1452 122.556 28.4645 127.115 28.4645C131.675 28.5136 135.351 32.1943 135.351 36.7094Z" fill="white"/>
</g>
</g>
</svg>
