<?xml version="1.0" encoding="utf-8"?>
<!-- Generator: Adobe Illustrator 24.2.1, SVG Export Plug-In . SVG Version: 6.00 Build 0)  -->
<svg version="1.1" id="icon-medium" xmlns="http://www.w3.org/2000/svg" xmlns:xlink="http://www.w3.org/1999/xlink" x="0px"
	 y="0px" viewBox="0 0 240 125" style="enable-background:new 0 0 240 125;" xml:space="preserve">
<style type="text/css">
	.st0{fill-rule:evenodd;clip-rule:evenodd;fill:#FFFFFF;}
</style>
<g>
	<path class="st0" d="M119.4,47.7c4.2,0,7.6,1.4,10.2,4.2c2.5,2.7,3.7,6.1,3.7,10.3c0,0.3,0,0.6,0,0.9l-6-2
		c-0.2-1.9-0.9-3.5-2.1-4.8c-1.5-1.6-3.4-2.4-5.8-2.4c-2.4,0-4.3,0.8-5.8,2.4c-1.4,1.5-2.1,3.5-2.1,5.8c0,2.4,0.7,4.3,2.1,5.8
		c1.3,1.4,2.9,2.2,4.9,2.4l2,6.2c-0.4,0-0.7,0-1.1,0c-4.2,0-7.6-1.4-10.2-4.2c-2.5-2.7-3.7-6.1-3.7-10.3c0-4.1,1.2-7.6,3.7-10.3
		C111.8,49.1,115.2,47.7,119.4,47.7 M119.4,35.4c7.8,0,14,2.6,18.9,7.8c4.6,5,6.9,11.3,6.9,19c0,1.6-0.1,3.2-0.3,4.7l-5.8-1.9
		c0.1-0.9,0.1-1.9,0.1-2.8c0-5.9-1.8-10.8-5.3-14.6c-3.7-4-8.6-6-14.5-6c-6,0-10.8,2-14.5,6c-3.5,3.8-5.3,8.7-5.3,14.6
		s1.8,10.8,5.3,14.6c3.7,4,8.6,6,14.5,6c1.1,0,2.1-0.1,3.1-0.2l2,6c-1.6,0.3-3.3,0.4-5,0.4c-7.8,0-14-2.6-18.9-7.8
		c-4.6-5-6.9-11.3-6.9-19s2.3-14,6.9-19C105.4,38,111.8,35.4,119.4,35.4z"/>
	<path class="st0" d="M144.2,70.3c-0.5,1.9-1.2,3.7-2.1,5.4l-4.2-1.4l-9.3-3.1l3.6,10.9l1,3.2c-1.7,1-3.5,1.8-5.4,2.4l-0.3-1l0,0
		l-8.1-24.6l21.4,7L144.2,70.3z M146.2,80.9c-1,1.6-2.2,3.2-3.5,4.7c-1.4,1.5-2.9,2.8-4.5,4L134.1,77L146.2,80.9z"/>
</g>
</svg>
