<svg xmlns="http://www.w3.org/2000/svg" xmlns:xlink="http://www.w3.org/1999/xlink" xml:space="preserve" version="1.1" style="shape-rendering:geometricPrecision;text-rendering:geometricPrecision;image-rendering:optimizeQuality;" viewBox="0 0 847 1058.75" x="0px" y="0px" fill-rule="evenodd" clip-rule="evenodd"><defs><style type="text/css">
   
    .fil0 {fill:black}
   
  </style></defs><g><path class="fil0" d="M533 309c57,7 114,14 172,22l84 10 -62 58c-42,40 -84,79 -126,119 11,56 22,113 32,170l16 83 -74 -41c-51,-28 -101,-55 -152,-83 -50,28 -101,55 -151,83l-75 41 16 -83c11,-57 22,-114 33,-170 -42,-40 -84,-79 -126,-119l-62 -58 84 -10c57,-8 114,-15 172,-22 24,-52 49,-104 73,-156l36 -77 36 77c25,52 50,104 74,156zm-110 -139c28,58 56,117 83,176 65,8 129,16 194,24 -48,45 -95,89 -142,134 12,63 24,127 36,191 -57,-31 -114,-63 -171,-94 -57,31 -113,63 -170,94 12,-64 24,-128 36,-191 -47,-45 -95,-89 -142,-134 65,-8 129,-16 193,-24 28,-59 56,-118 83,-176z"/></g><text x="0" y="862" fill="#000000" font-size="5px" font-weight="bold" font-family="'Helvetica Neue', Helvetica, Arial-Unicode, Arial, Sans-serif">Created by laris icon</text><text x="0" y="867" fill="#000000" font-size="5px" font-weight="bold" font-family="'Helvetica Neue', Helvetica, Arial-Unicode, Arial, Sans-serif">from the Noun Project</text></svg>