<svg xmlns="http://www.w3.org/2000/svg" width="23" height="18.4" viewBox="0 0 23 18.4">
    <defs>
        <style>
            .cls-1{fill:#eb5371}
        </style>
    </defs>
    <path id="picture-o" d="M71.667 133.367a2.29 2.29 0 1 1-.667-1.63 2.218 2.218 0 0 1 .667 1.63zm12.267 4.6v5.367H67.067v-2.3L70.9 137.2l1.917 1.917 6.133-6.133zm1.15-8.433H65.917a.389.389 0 0 0-.383.383v14.567a.389.389 0 0 0 .383.383h19.166a.389.389 0 0 0 .383-.383v-14.567a.389.389 0 0 0-.383-.383zm1.917.383v14.567a1.922 1.922 0 0 1-1.917 1.917H65.917A1.922 1.922 0 0 1 64 144.483v-14.566A1.922 1.922 0 0 1 65.917 128h19.166A1.922 1.922 0 0 1 87 129.917z" class="cls-1" transform="translate(-64 -128)"/>
</svg>
