<svg xmlns="http://www.w3.org/2000/svg" width="201" height="202" viewBox="0 0 201 202">
    <defs>
        <style>
            .cls-1{fill:#ffd900}
        </style>
    </defs>
    <g id="points" transform="translate(-5365 7873.63)">
        <ellipse id="Elipse_91" cx="2" cy="1.5" class="cls-1" data-name="Elipse 91" rx="2" ry="1.5" transform="translate(5365 -7845.63)"/>
        <ellipse id="Elipse_92" cx="2" cy="1.5" class="cls-1" data-name="Elipse 92" rx="2" ry="1.5" transform="translate(5365 -7817.63)"/>
        <ellipse id="Elipse_93" cx="2" cy="1.5" class="cls-1" data-name="Elipse 93" rx="2" ry="1.5" transform="translate(5365 -7789.63)"/>
        <circle id="Elipse_94" cx="2" cy="2" r="2" class="cls-1" data-name="Elipse 94" transform="translate(5365 -7760.63)"/>
        <circle id="Elipse_95" cx="2" cy="2" r="2" class="cls-1" data-name="Elipse 95" transform="translate(5365 -7732.63)"/>
        <circle id="Elipse_96" cx="2" cy="2" r="2" class="cls-1" data-name="Elipse 96" transform="translate(5365 -7704.63)"/>
        <circle id="Elipse_97" cx="2" cy="2" r="2" class="cls-1" data-name="Elipse 97" transform="translate(5365 -7676.63)"/>
        <ellipse id="Elipse_98" cx="2" cy="1.5" class="cls-1" data-name="Elipse 98" rx="2" ry="1.5" transform="translate(5393 -7845.63)"/>
        <ellipse id="Elipse_99" cx="2" cy="1.5" class="cls-1" data-name="Elipse 99" rx="2" ry="1.5" transform="translate(5393 -7817.63)"/>
        <ellipse id="Elipse_100" cx="2" cy="1.5" class="cls-1" data-name="Elipse 100" rx="2" ry="1.5" transform="translate(5393 -7789.63)"/>
        <circle id="Elipse_101" cx="2" cy="2" r="2" class="cls-1" data-name="Elipse 101" transform="translate(5393 -7760.63)"/>
        <circle id="Elipse_102" cx="2" cy="2" r="2" class="cls-1" data-name="Elipse 102" transform="translate(5393 -7732.63)"/>
        <circle id="Elipse_103" cx="2" cy="2" r="2" class="cls-1" data-name="Elipse 103" transform="translate(5393 -7704.63)"/>
        <circle id="Elipse_104" cx="2" cy="2" r="2" class="cls-1" data-name="Elipse 104" transform="translate(5393 -7676.63)"/>
        <ellipse id="Elipse_105" cx="2.5" cy="2" class="cls-1" data-name="Elipse 105" rx="2.5" ry="2" transform="translate(5421 -7845.63)"/>
        <circle id="Elipse_106" cx="2.5" cy="2.5" r="2.5" class="cls-1" data-name="Elipse 106" transform="translate(5421 -7817.63)"/>
        <circle id="Elipse_107" cx="2.5" cy="2.5" r="2.5" class="cls-1" data-name="Elipse 107" transform="translate(5421 -7789.63)"/>
        <circle id="Elipse_108" cx="2.5" cy="2.5" r="2.5" class="cls-1" data-name="Elipse 108" transform="translate(5421 -7760.63)"/>
        <circle id="Elipse_109" cx="2.5" cy="2.5" r="2.5" class="cls-1" data-name="Elipse 109" transform="translate(5421 -7732.63)"/>
        <circle id="Elipse_110" cx="2.5" cy="2.5" r="2.5" class="cls-1" data-name="Elipse 110" transform="translate(5421 -7704.63)"/>
        <circle id="Elipse_111" cx="2.5" cy="2.5" r="2.5" class="cls-1" data-name="Elipse 111" transform="translate(5421 -7676.63)"/>
        <ellipse id="Elipse_112" cx="2.5" cy="2" class="cls-1" data-name="Elipse 112" rx="2.5" ry="2" transform="translate(5449 -7845.63)"/>
        <circle id="Elipse_113" cx="2.5" cy="2.5" r="2.5" class="cls-1" data-name="Elipse 113" transform="translate(5449 -7817.63)"/>
        <circle id="Elipse_114" cx="2.5" cy="2.5" r="2.5" class="cls-1" data-name="Elipse 114" transform="translate(5449 -7789.63)"/>
        <circle id="Elipse_115" cx="2.5" cy="2.5" r="2.5" class="cls-1" data-name="Elipse 115" transform="translate(5449 -7760.63)"/>
        <circle id="Elipse_116" cx="2.5" cy="2.5" r="2.5" class="cls-1" data-name="Elipse 116" transform="translate(5449 -7732.63)"/>
        <circle id="Elipse_117" cx="2.5" cy="2.5" r="2.5" class="cls-1" data-name="Elipse 117" transform="translate(5449 -7704.63)"/>
        <circle id="Elipse_118" cx="2.5" cy="2.5" r="2.5" class="cls-1" data-name="Elipse 118" transform="translate(5449 -7676.63)"/>
        <circle id="Elipse_119" cx="1.5" cy="1.5" r="1.5" class="cls-1" data-name="Elipse 119" transform="translate(5479 -7845.63)"/>
        <circle id="Elipse_120" cx="1.5" cy="1.5" r="1.5" class="cls-1" data-name="Elipse 120" transform="translate(5479 -7817.63)"/>
        <circle id="Elipse_121" cx="1.5" cy="1.5" r="1.5" class="cls-1" data-name="Elipse 121" transform="translate(5479 -7789.63)"/>
        <ellipse id="Elipse_122" cx="1.5" cy="2" class="cls-1" data-name="Elipse 122" rx="1.5" ry="2" transform="translate(5479 -7760.63)"/>
        <ellipse id="Elipse_123" cx="1.5" cy="2" class="cls-1" data-name="Elipse 123" rx="1.5" ry="2" transform="translate(5479 -7732.63)"/>
        <ellipse id="Elipse_124" cx="1.5" cy="2" class="cls-1" data-name="Elipse 124" rx="1.5" ry="2" transform="translate(5479 -7704.63)"/>
        <ellipse id="Elipse_125" cx="1.5" cy="2" class="cls-1" data-name="Elipse 125" rx="1.5" ry="2" transform="translate(5479 -7676.63)"/>
        <circle id="Elipse_126" cx="1.5" cy="1.5" r="1.5" class="cls-1" data-name="Elipse 126" transform="translate(5507 -7845.63)"/>
        <circle id="Elipse_127" cx="1.5" cy="1.5" r="1.5" class="cls-1" data-name="Elipse 127" transform="translate(5507 -7817.63)"/>
        <circle id="Elipse_128" cx="1.5" cy="1.5" r="1.5" class="cls-1" data-name="Elipse 128" transform="translate(5507 -7789.63)"/>
        <ellipse id="Elipse_129" cx="1.5" cy="2" class="cls-1" data-name="Elipse 129" rx="1.5" ry="2" transform="translate(5507 -7760.63)"/>
        <ellipse id="Elipse_130" cx="1.5" cy="2" class="cls-1" data-name="Elipse 130" rx="1.5" ry="2" transform="translate(5507 -7732.63)"/>
        <ellipse id="Elipse_131" cx="1.5" cy="2" class="cls-1" data-name="Elipse 131" rx="1.5" ry="2" transform="translate(5507 -7704.63)"/>
        <ellipse id="Elipse_132" cx="1.5" cy="2" class="cls-1" data-name="Elipse 132" rx="1.5" ry="2" transform="translate(5507 -7676.63)"/>
        <circle id="Elipse_133" cx="1.5" cy="1.5" r="1.5" class="cls-1" data-name="Elipse 133" transform="translate(5535 -7845.63)"/>
        <circle id="Elipse_134" cx="1.5" cy="1.5" r="1.5" class="cls-1" data-name="Elipse 134" transform="translate(5535 -7817.63)"/>
        <circle id="Elipse_135" cx="1.5" cy="1.5" r="1.5" class="cls-1" data-name="Elipse 135" transform="translate(5535 -7789.63)"/>
        <ellipse id="Elipse_136" cx="1.5" cy="2" class="cls-1" data-name="Elipse 136" rx="1.5" ry="2" transform="translate(5535 -7760.63)"/>
        <ellipse id="Elipse_137" cx="1.5" cy="2" class="cls-1" data-name="Elipse 137" rx="1.5" ry="2" transform="translate(5535 -7732.63)"/>
        <ellipse id="Elipse_138" cx="1.5" cy="2" class="cls-1" data-name="Elipse 138" rx="1.5" ry="2" transform="translate(5535 -7704.63)"/>
        <ellipse id="Elipse_139" cx="1.5" cy="2" class="cls-1" data-name="Elipse 139" rx="1.5" ry="2" transform="translate(5535 -7676.63)"/>
        <circle id="Elipse_140" cx="1.5" cy="1.5" r="1.5" class="cls-1" data-name="Elipse 140" transform="translate(5563 -7845.63)"/>
        <circle id="Elipse_141" cx="1.5" cy="1.5" r="1.5" class="cls-1" data-name="Elipse 141" transform="translate(5563 -7817.63)"/>
        <circle id="Elipse_142" cx="1.5" cy="1.5" r="1.5" class="cls-1" data-name="Elipse 142" transform="translate(5563 -7789.63)"/>
        <ellipse id="Elipse_143" cx="1.5" cy="2" class="cls-1" data-name="Elipse 143" rx="1.5" ry="2" transform="translate(5563 -7760.63)"/>
        <ellipse id="Elipse_144" cx="1.5" cy="2" class="cls-1" data-name="Elipse 144" rx="1.5" ry="2" transform="translate(5563 -7732.63)"/>
        <ellipse id="Elipse_145" cx="1.5" cy="2" class="cls-1" data-name="Elipse 145" rx="1.5" ry="2" transform="translate(5563 -7704.63)"/>
        <ellipse id="Elipse_146" cx="1.5" cy="2" class="cls-1" data-name="Elipse 146" rx="1.5" ry="2" transform="translate(5563 -7676.63)"/>
        <ellipse id="Elipse_162" cx="2" cy="1.5" class="cls-1" data-name="Elipse 162" rx="2" ry="1.5" transform="translate(5365 -7873.63)"/>
        <ellipse id="Elipse_163" cx="2" cy="1.5" class="cls-1" data-name="Elipse 163" rx="2" ry="1.5" transform="translate(5393 -7873.63)"/>
        <ellipse id="Elipse_164" cx="2.5" cy="2" class="cls-1" data-name="Elipse 164" rx="2.5" ry="2" transform="translate(5421 -7873.63)"/>
        <ellipse id="Elipse_165" cx="2.5" cy="2" class="cls-1" data-name="Elipse 165" rx="2.5" ry="2" transform="translate(5449 -7873.63)"/>
        <circle id="Elipse_166" cx="1.5" cy="1.5" r="1.5" class="cls-1" data-name="Elipse 166" transform="translate(5479 -7873.63)"/>
        <circle id="Elipse_167" cx="1.5" cy="1.5" r="1.5" class="cls-1" data-name="Elipse 167" transform="translate(5507 -7873.63)"/>
        <circle id="Elipse_168" cx="1.5" cy="1.5" r="1.5" class="cls-1" data-name="Elipse 168" transform="translate(5535 -7873.63)"/>
        <circle id="Elipse_169" cx="1.5" cy="1.5" r="1.5" class="cls-1" data-name="Elipse 169" transform="translate(5563 -7873.63)"/>
    </g>
</svg>
