<?xml version="1.0" encoding="utf-8"?>
<!-- Generator: Adobe Illustrator 21.0.0, SVG Export Plug-In . SVG Version: 6.00 Build 0)  -->
<svg version="1.1" id="Camada_1" xmlns="http://www.w3.org/2000/svg" xmlns:xlink="http://www.w3.org/1999/xlink" x="0px" y="0px"
	 viewBox="0 0 695.4 121.1" style="enable-background:new 0 0 695.4 121.1;" xml:space="preserve">
<style type="text/css">
	.st01111{fill:#4472B9;}
	.st1122{fill:#F4C72C;}
</style>
<path class="st01111" d="M36.6,23.1c0,0.7,0,1.2,0,1.7c0,18.8,0,37.7,0,56.5c0,2.5,0.7,4.8,2.6,6.5c4,3.6,10,1.4,11.2-4
	c0.2-0.9,0.3-1.7,0.3-2.6c0-18.8,0-37.6,0-56.4c0-0.5,0-1,0-1.6c12.2,0,24.3,0,36.6,0c0,0.5,0,0.9,0,1.3c0,16.4,0.1,32.8,0,49.2
	c0,6.7-0.3,13.5-2.5,20c-4.3,12.7-13,21.1-25.7,25.3c-6.8,2.2-13.8,2.5-20.8,2c-6.6-0.5-13-2.1-18.6-5.6
	c-9.9-6.3-16.5-14.9-18.3-26.7c-0.7-4.6-1.1-9.2-1.2-13.8C-0.1,62,0,49.3,0,36.5C0,30.3,4,25.1,10,23.4c0.9-0.2,1.9-0.4,2.8-0.4
	c7.6,0,15.1,0,22.7,0C35.8,23,36.1,23.1,36.6,23.1z"/>
<path class="st01111" d="M127.8,57.4c1.7-1.9,3.2-3.6,4.8-5.1c6-5.6,13.2-7.6,21.3-6.7c5.1,0.5,9.8,2.2,13.7,5.7
	c4.1,3.6,6.3,8.3,7.2,13.6c0.4,2.2,0.5,4.4,0.5,6.7c0,15.4,0,30.9,0,46.3c0,1.7,0,1.7-1.6,1.7c-10.1,0-20.2,0-30.4,0
	c-1.2,0-1.6-0.2-1.6-1.5c0.1-12.2,0-24.4,0-36.6c0-3.5-1.9-6.5-4.7-7.6c-4.6-1.7-9.3,1.7-9.3,6.9c-0.1,5.3,0,10.6,0,15.8
	c0,7.2,0,14.4,0,21.6c0,1.1-0.3,1.3-1.4,1.3c-10.3,0-20.6,0-30.8,0c-1,0-1.4-0.3-1.4-1.4c0-19.1,0-38.2,0-57.3
	c0-7.3,5.9-13.1,13.1-13.1c6.3,0,12.6,0,19,0c1.2,0,1.5,0.4,1.4,1.5C127.7,51.8,127.8,54.5,127.8,57.4z"/>
<path class="st01111" d="M234,47.5c0-0.7,0-1.2,0-1.8c0.1-3.5-0.2-7.1,0.3-10.5c0.8-6.5,6.2-11.2,12.9-11.3c6.8-0.1,13.6,0,20.4,0
	c0.9,0,1.1,0.3,1.1,1.2c0,7,0,13.9,0,20.9c0,0.5,0,0.9,0,1.5c3.4,0,6.6,0,10,0c0,8.8,0,17.4,0,26.2c-0.4,0-0.8,0.1-1.3,0.1
	c-2.4,0-4.8,0.1-7.2,0c-1.2,0-1.6,0.3-1.6,1.5c0,14.2,0,28.4,0,42.6c0,1.6,0,1.6-1.6,1.6c-10.5,0-21,0-31.6,0c-1.5,0-1.5,0-1.5-1.6
	c0-14.2,0-28.3,0-42.5c0-1.6,0-1.6-1.6-1.6c-2.4,0-4.9,0-7.3,0c-0.8,0-1.1-0.3-1.1-1c0-8.1,0-16.2,0-24.2c0-0.8,0.3-1,1.1-1
	c2.5,0,5,0,7.4,0C233,47.5,233.4,47.5,234,47.5z"/>
<path class="st01111" d="M182.7,47.6c11.7,0,23.2,0,34.8,0c0,0.5,0,0.9,0,1.3c0,19,0,38.1,0,57.1c0,7.5-5.9,13.4-13.4,13.4
	c-6.7,0-13.4,0-20,0c-1.2,0-1.5-0.3-1.5-1.5c0-23,0-46,0-69C182.7,48.5,182.7,48,182.7,47.6z"/>
<path class="st01111" d="M533.8,107.6c0.1-0.6,0.2-1.1,0.2-1.7c0-9,0-18,0-27c0-1.7,0-1.7,1.7-1.7c1,0,2.1,0,3.1,0
	c1.7,0,1.8,0.1,1.8,1.9c0,9.7,0,19.4,0,29c0,2.4,0,4.8,0,7.2c0,1.8-0.8,2.5-2.6,2.6c-1.7,0-3.4,0-5,0c-1.7,0-2.8-0.6-3.5-2.3
	c-3.9-8.6-7.8-17.1-11.7-25.7c-0.2-0.4-0.5-0.8-0.7-1.2c-0.1,0-0.3,0.1-0.4,0.1c-0.1,0.6-0.2,1.1-0.2,1.7c0,8.5,0,17,0,25.4
	c0,1.9-0.1,2-2,2c-1.1,0-2.2,0-3.2,0c-1,0-1.4-0.5-1.4-1.4c0-0.2,0-0.5,0-0.7c0-11.8,0-23.7,0-35.5c0-0.4,0-0.8,0.1-1.2
	c0.3-1.3,0.9-1.8,2.3-1.9c1.7,0,3.4,0.1,5,0c1.6-0.1,2.6,0.6,3.2,2c2.8,6.3,5.6,12.5,8.5,18.8c1.3,2.9,2.6,5.7,3.9,8.6
	c0.2,0.3,0.4,0.7,0.6,1C533.5,107.6,533.7,107.6,533.8,107.6z"/>
<path class="st01111" d="M367.1,34c0,0.5,0,0.9,0,1.4c0,8.6,0,17.1,0,25.7c0,1.8-0.1,1.9-1.9,1.9c-0.9,0-1.8,0-2.8,0
	c-1.9,0-1.9-0.1-1.9-1.9c0-6.6,0-13.3,0-19.9c0-5.4,0-10.7,0-16.1c0-2.2,0.6-2.8,2.9-2.8c1.5,0,3,0.1,4.6,0c1.6-0.1,2.4,0.6,3,2
	c3,6.8,6.1,13.5,9.2,20.3c1.1,2.4,2.1,4.7,3.2,7.1c0.2,0.4,0.4,0.7,0.6,1.1c0.1,0,0.2,0,0.4,0c0.1-0.5,0.2-0.9,0.2-1.4
	c0-9.1,0-18.2,0-27.2c0-1.7,0.1-1.8,1.7-1.8c1,0,2.1,0,3.1,0c1.7,0,1.7,0.1,1.7,1.7c0,9.6,0,19.2,0,28.8c0,2.6,0,5.2,0,7.8
	c0,1.6-0.7,2.4-2.3,2.4c-1.9,0-3.8,0-5.6,0c-1.4,0-2.4-0.6-3-1.9c-3.8-8.4-7.7-16.9-11.5-25.3c-0.3-0.7-0.7-1.3-1.1-1.9
	C367.4,33.9,367.2,33.9,367.1,34z"/>
<path class="st01111" d="M377.6,102.1c0,0.5,0,0.9,0,1.4c0,4.3,0,8.6,0,13c0,1.1-0.4,1.5-1.5,1.5c-1.4,0-2.9-0.1-4.3,0
	c-1.1,0-1.7-0.4-1.6-1.5c0-0.2,0-0.5,0-0.7c0-11.9,0-23.8,0-35.6c0-2.1,0.1-2.3,2.2-2.6c4.5-0.5,9-1,13.5-0.5
	c4.1,0.5,7.9,1.6,10.5,5.2c1.1,1.6,1.8,3.3,1.8,5.2c0,1.7,0.1,3.4-0.1,5c-0.6,3.6-2.7,6.1-5.9,7.8c-0.4,0.2-0.7,0.4-1.2,0.6
	c0.2,0.4,0.4,0.8,0.6,1.2c2.6,4.8,5.1,9.5,7.7,14.2c0.8,1.4,0.7,1.6-0.9,1.7c-1.7,0-3.4-0.1-5,0c-1,0.1-1.5-0.4-1.9-1.2
	c-2.3-4.4-4.7-8.7-7-13.1c-0.6-1.1-1.3-1.6-2.5-1.5C380.5,102.2,379.2,102.1,377.6,102.1z M377.6,89.7c0,1.8,0,3.5,0,5.3
	c0,0.3,0.4,1,0.6,1c2.5,0,5,0.2,7.4-0.1c3.3-0.4,4.7-1.8,5.2-4.7c0.6-4-0.4-6.9-4.8-7.6c-2.5-0.4-5.2-0.2-7.7-0.1
	c-0.2,0-0.6,0.6-0.6,0.9C377.6,86.1,377.6,87.9,377.6,89.7z"/>
<path class="st01111" d="M488.5,47.2c0,0.4,0,0.9,0,1.3c0,4.3,0,8.6,0,12.8c0,1.4-0.2,1.6-1.6,1.6c-1.5,0-3,0-4.4,0
	c-1,0-1.4-0.4-1.4-1.4c0-0.2,0-0.4,0-0.6c0-12,0-24.1,0-36.1c0-1.9,0.3-2.2,2.2-2.4c3.4-0.3,6.8-0.6,10.3-0.7c2.9,0,5.7,0.3,8.5,1.4
	c4.4,1.8,7,5,7.2,9.8c0.1,1.5,0.1,3.1-0.2,4.5c-0.6,3.6-2.7,6-5.9,7.7c-0.4,0.2-0.8,0.4-1.3,0.7c0.5,1,1,2,1.5,2.9
	c2.2,4.2,4.5,8.4,6.7,12.6c0.7,1.4,0.6,1.6-0.9,1.6c-1.7,0-3.4,0-5.2,0c-0.9,0-1.4-0.3-1.8-1.1c-2.4-4.5-4.9-9.1-7.3-13.6
	c-0.4-0.8-0.9-1.2-1.9-1.1C491.6,47.3,490.1,47.2,488.5,47.2z M488.5,34.7c0,1.8,0,3.6,0,5.4c0,0.3,0.4,0.9,0.7,0.9
	c2.4,0.1,4.8,0.2,7.2,0c3.3-0.3,4.9-1.9,5.4-4.9c0.7-4.1-0.9-6.8-4.9-7.4c-2.5-0.4-5.2-0.2-7.7-0.1c-0.2,0-0.6,0.6-0.6,0.9
	C488.5,31.2,488.5,32.9,488.5,34.7z"/>
<path class="st01111" d="M441.6,97.6c0-6,0-12,0-18c0-1.7,0.1-2,1.8-2.1c5.4-0.5,10.8-1.2,16.2,0c6.4,1.5,10.8,6.6,11.1,13.2
	c0.2,4.6,0.2,9.2,0,13.8c-0.3,7-5.2,12.3-12.1,13.5c-4,0.7-8,0.4-12.1,0.1c-1.1-0.1-2.2-0.2-3.3-0.3c-1.2-0.1-1.6-0.7-1.6-1.9
	C441.6,109.8,441.6,103.7,441.6,97.6z M449,97.5c0,4.2,0,8.5,0,12.7c0,1.9,0,1.9,1.8,1.9c1.4,0,2.9,0,4.3,0c4.4-0.1,7.7-2.8,8-7.1
	c0.3-4.9,0.3-9.9,0-14.8c-0.2-3.7-2.9-6.2-6.6-6.7c-2-0.3-4.1-0.1-6.1-0.3c-1.2-0.1-1.5,0.4-1.5,1.5C449,88.9,449,93.2,449,97.5z"/>
<path class="st01111" d="M563.5,42.6c0-6,0-12,0-18c0-1.6,0.2-1.9,1.8-2c5.4-0.5,10.7-1.2,16.1,0c6.7,1.5,11,6.6,11.2,13.4
	c0.2,4.6,0.3,9.2,0,13.8c-0.5,7-4.7,11.8-12.1,13.2c-4,0.8-8,0.4-12.1,0.1c-1.1-0.1-2.1-0.2-3.2-0.3c-1.6-0.2-1.8-0.4-1.8-2.1
	C563.5,54.6,563.5,48.6,563.5,42.6z M570.9,42.6c0,4.4,0,8.8,0,13.2c0,0.7-0.1,1.3,0.9,1.3c2,0,4,0.1,6,0c3.7-0.3,6.2-2.4,7.1-6.1
	c0.3-1.4,0.5-2.8,0.5-4.3c0-3.8,0.1-7.6-0.3-11.4c-0.4-3.9-2.9-6.4-6.7-7c-2-0.3-4.1-0.1-6.1-0.2c-1.1-0.1-1.4,0.4-1.4,1.5
	C570.9,34,570.9,38.3,570.9,42.6z"/>
<path class="st01111" d="M634.8,42.6c0-5.9,0-11.8,0-17.8c0-2,0-2.1,2-2.3c4.9-0.5,9.8-1,14.8-0.2c7.1,1.1,12.1,6.6,12.3,13.8
	c0.1,4.4,0.1,8.8,0,13.2c-0.2,7.1-5.1,12.5-12.1,13.7c-4.1,0.7-8.2,0.4-12.3,0.1c-1.1-0.1-2.1-0.2-3.2-0.3c-1.2-0.1-1.5-0.7-1.5-1.8
	C634.8,54.8,634.8,48.7,634.8,42.6z M642.1,42.7c0,4.4,0,8.7,0,13.1c0,1.1,0.4,1.4,1.4,1.4c1.7-0.1,3.3,0,5,0c4-0.2,6.9-2.4,7.6-6.3
	c1-5.3,0.8-10.6,0.1-15.9c-0.5-3.3-2.5-5.8-6-6.4c-2.2-0.4-4.5-0.2-6.8-0.4c-1-0.1-1.4,0.4-1.4,1.4C642.2,34,642.1,38.3,642.1,42.7z
	"/>
<path class="st01111" d="M432.4,117.9c-0.7,0-1.4-0.1-2.2,0c-1.1,0.1-1.6-0.4-1.8-1.4c-0.7-2.9-1.5-5.9-2.1-8.8
	c-0.2-0.9-0.6-1.2-1.6-1.2c-3.4,0-6.9,0-10.3,0c-0.9,0-1.3,0.3-1.5,1.2c-0.7,3-1.4,5.9-2.1,8.8c-0.2,1-0.7,1.4-1.7,1.4
	c-1.6-0.1-3.2,0-4.8,0c-1.2,0-1.4-0.3-1.1-1.5c2.6-10,5.2-20,7.8-30c0.4-1.3,0.8-2.7,1.1-4c1-4.4,4.5-5.9,8.5-5.6
	c3.6,0.3,5.8,2.3,6.7,5.8c2.9,11.2,5.8,22.4,8.8,33.7c0.3,1.3,0.1,1.6-1.2,1.6C434,117.9,433.2,117.9,432.4,117.9z M414.7,100.4
	c3.3,0,6.5,0,9.7,0c-0.1-0.5-0.1-0.9-0.2-1.3c-0.7-2.8-1.4-5.6-2.1-8.3c-0.6-2.3-1.1-4.6-1.7-6.8c-0.1-0.4-0.6-0.8-0.9-0.8
	c-0.3,0-0.6,0.5-0.9,0.8c-0.1,0.1-0.1,0.4-0.2,0.6c-1.1,4.4-2.1,8.9-3.2,13.3C415.1,98.7,414.9,99.5,414.7,100.4z"/>
<path class="st01111" d="M625.6,63c-0.8,0-1.6,0-2.4,0c-1,0.1-1.4-0.4-1.6-1.3c-0.7-3-1.5-6-2.1-9c-0.2-0.8-0.6-1.2-1.5-1.2
	c-3.5,0-7,0-10.4,0c-0.9,0-1.3,0.3-1.5,1.2c-0.7,3-1.4,5.9-2.1,8.8c-0.2,1-0.7,1.5-1.8,1.5c-1.6-0.1-3.2,0-4.8,0
	c-1.1,0-1.4-0.4-1.1-1.4c3-11.5,6-23,9-34.5c1.1-4.2,4.4-5.5,8-5.2c4.5,0.4,6.1,1.9,7.2,6.3c2.9,11,5.8,22.1,8.6,33.1
	c0.4,1.4,0.1,1.6-1.3,1.6C627.2,63,626.4,63,625.6,63z M607.9,45.5c3.4,0,6.5,0,9.7,0c-0.1-0.5-0.1-0.9-0.2-1.3
	c-0.4-1.8-0.9-3.6-1.3-5.5c-0.7-3.1-1.5-6.2-2.3-9.3c-0.1-0.5-0.6-1.1-1-1.2c-0.9-0.2-0.9,0.7-1.1,1.2c0,0.1,0,0.2-0.1,0.2
	c-0.8,3.3-1.6,6.6-2.4,9.9C608.8,41.5,608.4,43.4,607.9,45.5z"/>
<path class="st01111" d="M352.2,37.1c0,3.9,0.1,7.8,0,11.6c-0.1,2-0.3,4-0.8,5.9c-1.5,5.1-5.5,8.1-10.9,8.6c-2.9,0.3-5.7,0.3-8.4-0.4
	c-5.3-1.3-8.7-5.1-9.4-10.5c-0.2-1.6-0.3-3.3-0.3-4.9c0-7.7,0-15.4,0-23c0-1.9,0.1-2,2.1-2c1.1,0,2.2,0,3.2,0c2.1,0,2.1,0,2.1,2.1
	c0,8,0,16.1,0,24.1c0,1.6,0.3,3.3,0.7,4.8c0.5,1.9,1.8,3.1,3.8,3.6c2.1,0.6,4.1,0.6,6.2,0c2.6-0.7,4.1-2.8,4.3-5.9
	c0.1-2.1,0.2-4.2,0.2-6.3c0-6.9,0-13.8,0-20.6c0-1.6,0.1-1.7,1.7-1.7c1.4,0,2.8,0,4.2,0c1,0,1.4,0.4,1.4,1.4
	C352.2,28.2,352.2,32.6,352.2,37.1z"/>
<path class="st01111" d="M416.5,22.3c0.8,0,1.5,0,2.3,0c1-0.1,1.4,0.4,1.6,1.3c1.6,6.9,3.3,13.9,5,20.8c0.9,3.8,1.8,7.5,2.7,11.3
	c0.1,0.4,0.2,0.8,0.4,1.1c0.2,0.2,0.7,0.4,0.8,0.3c0.4-0.2,0.7-0.6,0.8-1c0.7-2.7,1.4-5.5,2-8.2c1.9-8.1,3.9-16.1,5.8-24.2
	c0.2-1,0.7-1.4,1.8-1.4c1.5,0.1,3,0,4.6,0c1.4,0,1.6,0.3,1.3,1.7c-2.4,9.1-4.7,18.2-7.1,27.3c-0.6,2.2-1.2,4.4-1.7,6.6
	c-1.1,4.4-4.5,5.9-8.3,5.5c-4.1-0.3-5.9-2.1-7-6.1c-2.9-11-5.8-22-8.6-33.1c-0.4-1.7-0.2-1.9,1.4-1.9
	C415,22.3,415.7,22.3,416.5,22.3z"/>
<path class="st01111" d="M577.9,97.5c0-3.7-0.1-7.4,0-11c0.1-5.5,3.6-9,9-9.4c4.5-0.4,8.9-0.2,13.4,0.5c1.1,0.2,1.7,0.6,1.6,1.8
	c-0.1,0.8,0,1.7,0,2.5c0,1-0.4,1.4-1.5,1.4c-3.3,0-6.6,0-10,0c-0.4,0-0.7,0-1.1,0c-2.7,0.1-3.9,1.1-4.1,3.8c-0.1,2.1,0,4.2-0.1,6.2
	c0,1,0.7,0.8,1.2,0.8c4.3,0,8.6,0,12.8,0c1.8,0,2,0.1,2,2c0,0.5,0,1,0,1.6c0,2.4,0,2.4-2.4,2.4c-4.1,0-8.2,0-12.2,0
	c-1.1,0-1.5,0.3-1.4,1.4c0.1,2.1,0,4.2,0.1,6.2c0.1,3.3,1.3,4.4,4.6,4.5c3.4,0,6.9,0,10.3,0c1.6,0,1.7,0.1,1.7,1.7c0,0.3,0,0.6,0,1
	c0,3.2,0.2,2.8-2.7,3.1c-4.5,0.6-9,0.9-13.5,0.1c-4.5-0.7-7.5-4.1-7.8-8.7c0-0.6-0.1-1.2-0.1-1.8
	C577.9,104.1,577.9,100.8,577.9,97.5C577.9,97.5,577.9,97.5,577.9,97.5z"/>
<path class="st01111" d="M478.3,97.6c0-3.8-0.1-7.5,0-11.3c0.2-5.4,3.6-8.8,8.9-9.3c4.5-0.4,9-0.2,13.5,0.5c1,0.1,1.6,0.5,1.5,1.7
	c-0.1,0.9,0,1.8,0,2.6c0,1-0.4,1.4-1.4,1.4c-3.4,0-6.7,0-10.1,0c-0.3,0-0.6,0-1,0c-2.8,0.1-4,1.2-4.2,4c-0.1,2,0,4-0.1,6
	c0,1,0.6,0.9,1.3,0.9c4.3,0,8.6,0,12.8,0c1.7,0,1.9,0.2,2,1.9c0,0.8,0,1.7,0,2.5c0,1.1-0.5,1.5-1.5,1.5c-4.4,0-8.7,0-13.1,0
	c-1.1,0-1.6,0.3-1.5,1.5c0.1,2.6,0.1,5.2,0.3,7.8c0.1,1.6,1.1,2.5,2.6,2.6c1.8,0.2,3.7,0.2,5.5,0.2c2.3,0,4.6,0,6.8,0
	c1,0,1.5,0.4,1.4,1.4c0,1,0,1.9,0,2.9c0,0.7-0.3,1.1-1,1.2c-5.3,0.8-10.7,1.3-16.1,0.1c-4.2-0.9-6.8-4.1-6.9-8.4
	C478.2,105.4,478.3,101.5,478.3,97.6C478.3,97.6,478.3,97.6,478.3,97.6z"/>
<path class="st01111" d="M449.5,42.6c0-3.7-0.1-7.4,0-11c0.2-5.7,3.6-9.1,9.2-9.5c4.4-0.3,8.8-0.1,13.1,0.5c1.2,0.2,1.7,0.6,1.7,1.9
	c-0.1,4.4,0.5,3.7-3.8,3.7c-2.6,0-5.3,0-7.9,0c-0.4,0-0.9,0-1.3,0.1c-2.6,0.4-3.5,1.3-3.6,3.9c-0.1,2,0,4,0,6c0,1,0.6,1,1.3,1
	c4.4,0,8.7,0,13.1,0c1.5,0,1.7,0.2,1.7,1.8c0,0.9,0,1.8,0,2.6c0,1.1-0.4,1.5-1.5,1.5c-4.4,0-8.7,0-13.1,0c-1.1,0-1.5,0.3-1.5,1.5
	c0.1,2.1,0,4.2,0,6.2c0,3.1,1.3,4.4,4.4,4.4c3.5,0,7,0,10.6,0c1.5,0,1.7,0.2,1.7,1.6c0,0.9,0,1.8,0,2.6c0,0.7-0.3,1.2-1,1.3
	c-5.3,0.8-10.6,1.3-15.9,0.2c-4.3-0.9-6.9-4.2-7-8.7C449.5,50.3,449.5,46.5,449.5,42.6C449.5,42.6,449.5,42.6,449.5,42.6z"/>
<path class="st01111" d="M671.5,42.6c0-3.8-0.1-7.5,0-11.3c0.2-5.6,3.6-8.8,9.2-9.3c4.4-0.4,8.8-0.1,13.1,0.5c1.1,0.2,1.8,0.5,1.6,1.8
	c-0.1,0.8-0.1,1.7,0,2.5c0.1,1-0.3,1.4-1.3,1.3c-3.3,0-6.6,0-10,0c-0.4,0-0.7,0-1.1,0c-3,0.1-4.2,1.4-4.2,4.4c0,1.8,0,3.5,0,5.3
	c0,1,0.3,1.3,1.3,1.3c4.4,0,8.7,0,13.1,0c1.4,0,1.6,0.2,1.6,1.6c0,0.9,0,1.8,0,2.8c0,1.4-0.1,1.5-1.6,1.5c-4.3,0-8.6,0-12.8,0
	c-1.1,0-1.5,0.3-1.5,1.5c0.1,2.1,0,4.2,0,6.4c0,3,1.3,4.2,4.3,4.3c3.6,0,7.2,0,10.8,0c1.2,0,1.6,0.4,1.5,1.5c-0.1,1-0.1,1.9,0,2.9
	c0,0.7-0.3,1.1-0.9,1.1c-5.4,0.8-10.9,1.4-16.3,0.1c-3.9-0.9-6.5-4.1-6.6-8.1C671.4,50.6,671.5,46.6,671.5,42.6
	C671.5,42.6,671.5,42.6,671.5,42.6z"/>
<path class="st01111" d="M539.7,25.9c0,3.4,0.4,2.8-3.3,2.7c-2.8-0.1-5.6-0.3-8.4-0.4c-1.1,0-2.2,0.1-3.2,0.4c-3,0.9-3.8,4.2-1.5,6.3
	c0.8,0.7,1.8,1.4,2.7,1.9c2.7,1.6,5.5,3,8.1,4.6c2.8,1.6,5.2,3.7,6.1,6.9c2,7-1.8,13.2-9.1,14.5c-4.8,0.9-9.5,0.4-14.3-0.5
	c-0.9-0.2-1.3-0.6-1.2-1.6c0.1-1,0-1.9,0-2.9c-0.1-1.1,0.4-1.5,1.5-1.4c3.1,0.2,6.1,0.4,9.2,0.5c0.9,0,1.9-0.1,2.9-0.3
	c1.7-0.3,3-1.2,3.5-3c0.5-1.9,0.4-3.6-1.2-4.9c-1.3-1.1-2.8-2-4.2-2.9c-2.4-1.5-4.8-2.8-7.2-4.4c-2.9-1.9-5.1-4.3-5.4-8
	c-0.6-6.3,2.4-9.7,7.4-11c3.8-1,7.7-0.7,11.5-0.4c1.5,0.1,2.9,0.4,4.4,0.6c1.2,0.1,1.8,0.6,1.6,1.8C539.6,25,539.7,25.4,539.7,25.9z
	"/>
<path class="st01111" d="M632.8,80.8c0,3.3,0.5,2.9-3.2,2.8c-3.5-0.1-7.1-0.2-10.6-0.2c-1.8,0-3.2,1-3.6,2.9c-0.4,1.8,0.4,3.3,1.9,4.2
	c2.9,1.8,5.8,3.4,8.7,5c2.2,1.3,4.3,2.6,5.9,4.6c4.2,5.4,2.2,13.7-3.9,16.6c-2.9,1.4-6.1,1.7-9.2,1.6c-2.8-0.1-5.5-0.6-8.3-0.9
	c-1-0.1-1.5-0.7-1.5-1.8c0-0.9,0-1.8,0-2.6c0-1.3,0.3-1.6,1.6-1.5c2.7,0.1,5.3,0.4,8,0.4c1.5,0,3.1-0.1,4.6-0.4c3.1-0.8,4.2-5,2-7.4
	c-0.8-0.8-1.7-1.5-2.6-2.1c-2.6-1.6-5.3-3.2-8-4.8c-0.9-0.5-1.7-1.1-2.6-1.7c-4.3-3.2-4.9-8.1-3.4-12.6c1.3-3.6,4.4-5,7.8-5.7
	c4.3-0.9,8.5-0.4,12.7,0.1c0.6,0.1,1.2,0.1,1.8,0.3c1.9,0.4,1.9,0.4,1.9,2.3C632.8,80.2,632.8,80.5,632.8,80.8z"/>
<path class="st01111" d="M555.4,100.4c0-5.1,0-10.2,0-15.4c0-1.6,0-1.6-1.6-1.6c-2.6,0-5.2,0-7.8,0c-1,0-1.5-0.4-1.4-1.4
	c0-1,0-2.1,0-3.1c0-1.3,0.3-1.6,1.6-1.6c6.3,0,12.6,0,19,0c2.2,0,4.5,0,6.7,0c1.4,0,1.6,0.2,1.6,1.6c0,1.1,0,2.2,0,3.2
	c0,0.9-0.4,1.3-1.3,1.3c-2.6,0-5.3,0.1-7.9,0c-1.3,0-1.6,0.4-1.5,1.6c0,10.2,0,20.5,0,30.7c0,2.3,0,2.3-2.3,2.3c-1.2,0-2.3,0-3.5,0
	c-1.4,0-1.6-0.2-1.6-1.6C555.4,111,555.4,105.7,555.4,100.4z"/>
<path class="st01111" d="M330.5,100.5c0-5.2,0-10.5,0-15.7c0-1.1-0.3-1.4-1.4-1.4c-2.6,0.1-5.3,0-7.9,0c-1.1,0-1.5-0.4-1.5-1.5
	c0-1.1,0-2.2,0-3.2c0-0.9,0.4-1.4,1.4-1.4c8.8,0,17.5,0,26.3,0c0.9,0,1.3,0.4,1.3,1.3c0,1.2,0,2.3,0,3.5c0,1-0.4,1.4-1.3,1.3
	c-2.6,0-5.2,0-7.8,0c-1.6,0-1.6,0-1.6,1.6c0,10.2,0,20.4,0,30.6c0,0.4,0,0.8,0,1.2c0,0.8-0.4,1.2-1.2,1.2c-1.6,0-3.3,0-4.9,0
	c-1,0-1.3-0.6-1.3-1.5C330.5,111.1,330.5,105.8,330.5,100.5z"/>
<path class="st01111" d="M354.3,97.5c0-6.1,0-12.2,0-18.3c0-1.7,0.2-1.9,1.9-1.9c1.4,0,2.8,0,4.2,0c1,0,1.5,0.4,1.5,1.4
	c0,12.6,0,25.2,0,37.8c0,1.1-0.5,1.5-1.5,1.5c-1.4,0-2.7,0-4.1,0c-1.6,0-1.9-0.3-1.9-1.9C354.3,109.9,354.3,103.7,354.3,97.5z"/>
<path class="st01111" d="M547.7,42.6c0-6.2,0-12.4,0-18.6c0-1.6,0.1-1.7,1.7-1.7c1.4,0,2.8,0,4.2,0c1,0,1.5,0.3,1.5,1.4
	c0,12.6,0,25.3,0,37.9c0,1-0.5,1.4-1.5,1.4c-1.5,0-3,0-4.4,0c-1.1,0-1.5-0.4-1.5-1.5C547.7,55.2,547.7,48.9,547.7,42.6z"/>
<path class="st01111" d="M406.9,42.6c0,6.2,0,12.4,0,18.6c0,1.6-0.1,1.7-1.7,1.7c-1.2,0-2.5,0-3.7,0c-1.9,0-1.9-0.1-1.9-1.9
	c0-6.6,0-13.2,0-19.8c0-5.8,0-11.6,0-17.4c0-1.4,0.2-1.6,1.6-1.6c1.4,0,2.8,0,4.2,0c1.4,0,1.6,0.2,1.6,1.6
	C406.9,30.2,406.9,36.4,406.9,42.6z"/>
<g id="KWRmfh_1_">
	<g>
		<path class="st1122" d="M196.6,0c2.1,0,4.2,0,6.2,0c0.3,0.1,0.7,0.2,1,0.3c9.3,2,15.9,9,17.4,18.4c0.1,0.8,0,1.7,0.3,2.5
			c0,0.3,0,0.6,0,1c-0.1,0.4-0.2,0.7-0.2,1.1c-0.9,12.6-12.3,21.8-24.8,20c-8.9-1.3-16.1-7.9-18.1-16.7c-2-8.8,1.6-17.9,9-22.9
			C190.3,1.7,193.4,0.7,196.6,0z M190.8,38c-0.7-2-0.9-3.5,1-4.4c0.5-0.3,1-0.8,1.6-1c0.8-0.3,1.5-0.8,1.9-1.6
			c0.4-0.8,0.9-1,1.7-1.1c0.7-0.1,1.6-0.1,1.9-1c0.4-1.3,1.2-2.2,2.2-3.1c0.8-0.8,0.7-1.6-0.2-2.2c-0.5-0.3-1.1-0.6-1.7-0.8
			c-1.3-0.4-2-1.1-2.2-2.5c-0.3-1.7-2.3-2.2-3.1-3.7c-0.1-0.1-0.4-0.1-0.6-0.1c-0.4-0.1-0.8-0.1-1.1-0.4c-1-0.7-2-0.8-3.2-0.3
			c-0.5,0.3-0.9-0.1-1.3-0.4c-0.4-0.3-0.3-0.7-0.1-1.1c0.3-0.5,0.6-1-0.1-1.2c-0.6-0.2-0.3-1-1-1.2c-1.1-0.3-1.3-1-0.7-2
			c0.5-0.8,1.2-1.3,2.2-1.4c1-0.1,2-0.1,2.5,1.3c0.4-1.6,1.8-1.6,2.8-2.3c1.2-0.9,2.5-1.6,4.1-1.3c0.4,0.1,0.7,0,0.6-0.5
			c-0.4-1.4,0.4-1.3,1.3-1c0.9,0.3,1-0.1,0.8-0.8c-0.2-0.9-1.6-1.5-2.3-1c-0.6,0.4-1.2,0.3-1.8,0.2c-0.3-0.1-0.7-0.3-0.7-0.7
			c0-0.4,0.4-0.5,0.7-0.6c1.1-0.2,2.2-0.2,3.2-0.2c0.3,0,0.5,0.1,0.5,0.4c0,0.4,0.1,0.7,0.6,0.4c0.4-0.3,0.3-0.7,0-1
			c-0.5-0.5-1.1-0.5-1.7-0.5c-4.5,0.3-8.8,1.5-12.1,4.8c-0.7,0.7-1.5,1.4-1.7,2.4c-0.1,0.9-0.4,1.8-0.8,2.6c-0.3,0.6-0.3,1,0.4,1.3
			c1,0.5,1.8,1.3,2,2.5c0.1,0.6,0.5,1.1,1,1.4c1.1,0.7,1.2,1.2,0.5,2.2c-1.6,2.5-1.5,5.1,0.4,7.3c0.5,0.7,0.7,1.4,0.6,2.2
			c-0.3,1.6-0.4,3.2-0.7,4.7c-0.1,0.4,0.1,0.7,0.3,1c0.4,0.5,0.4,1,0.5,1.6C189.2,36.2,189.6,37.1,190.8,38z M220.5,21.3
			c-0.1-0.9-0.1-1.8-0.2-2.8c-0.1-0.8-0.3-1.6-0.4-2.4c-0.1-0.9-0.8-1.4-1.5-1.3c-1.2,0.2-1.7-0.6-2-1.4c-0.4-0.9-1-1-1.8-1
			c-1.2,0-1.8,0.8-2.7,1.6c-1.4,1.3-1.6,2.7-1.7,4.3c0,1.5,0.8,2.7,1.4,3.9c0.4,0.8,1.4,0.2,2,0.5c0.4,0.2,0.8,0.1,1.2,0.1
			c0.6,0.1,0.9,0.3,1.1,0.9c0.4,1.3,0.5,2.6,0.5,4c0,1.3-0.2,2.6-1.3,3.4c-0.4,0.3-0.6,0.7-0.7,1.2c-0.4,1.4-1.1,2.6-1.7,3.8
			c-0.1,0.2-0.4,0.5-0.1,0.7c0.2,0.2,0.5,0,0.8-0.1c1-0.7,2.1-1.4,2.9-2.5C218.9,30.5,220.5,26.2,220.5,21.3z M217.1,12
			c0.3-0.9,0.2-1.5-0.2-2.1c-0.4-0.5-0.9-1-1.3-1.6c-0.7-1.1-1.5-0.9-2.5-0.4c-0.4,0.2-0.8,0.4-0.3,1c0.4,0.4,0.3,0.8-0.4,0.9
			c-0.3,0-0.8-0.1-0.7,0.5c0.1,0.7,0.3,1.2,1,1.5c0.4,0.2,0.8,0.1,0.9-0.4c0.2-0.7,0.6-0.8,1.2-0.6C215.7,10.9,216.6,10.8,217.1,12z
			"/>
	</g>
</g>
</svg>
